<?xml version="1.0" encoding="UTF-8"?> <svg xmlns="http://www.w3.org/2000/svg" width="120" height="120" viewBox="0 0 120 120" fill="none"><g clip-path="url(#clip0_1067_32703)"><rect width="120" height="120" fill="white"></rect><path d="M37.141 60.1494C51.928 60.1494 63.9153 48.203 63.9153 33.4663C63.9153 18.7296 51.928 6.7832 37.141 6.7832C22.354 6.7832 10.3668 18.7296 10.3668 33.4663C10.3668 48.203 22.354 60.1494 37.141 60.1494Z" fill="#FFF0E9"></path><path d="M63.2217 33.4663C63.2217 38.8582 61.5107 44.1119 58.4125 48.536C55.3143 52.9602 51.06 56.0939 46.1583 57.8913C41.0254 59.7807 35.2914 60.0112 30.0198 58.4904C24.7482 56.9696 20.3552 54.0662 16.9795 50.0107C13.6038 45.9553 11.4767 40.7938 11.1067 35.494C10.6906 30.1021 11.9853 24.6641 14.7599 20.0556C17.5344 15.4471 21.5575 11.9908 26.3204 9.77869C31.0834 7.56662 36.9561 6.87535 42.3202 7.98138C47.6843 9.08742 52.2623 11.6682 55.9154 15.4471C59.5685 19.2261 62.0656 24.2032 62.898 29.4108C63.7303 34.6184 63.2217 32.0837 63.2217 33.4663C63.2217 34.8488 64.6089 34.3419 64.6089 33.4663C64.6089 27.7979 62.8517 22.2216 59.5686 17.6131C56.3316 13.0968 51.7999 9.64044 46.6207 7.75096C41.4416 5.86148 35.1989 5.53889 29.6961 7.10577C24.1933 8.67265 19.5228 11.7603 16.0084 16.0001C12.494 20.2399 10.2281 25.724 9.76572 31.3925C9.3033 37.0609 10.6906 42.8215 13.6501 47.6604C16.5171 52.3611 20.7714 56.14 25.8118 58.3982C30.8522 60.6563 37.0024 61.4398 42.6439 60.2877C48.1005 59.1816 53.1409 56.3705 56.979 52.4072C60.8171 48.4439 63.4067 43.2363 64.2853 37.7061C65.1639 32.1759 64.6089 34.8949 64.6089 33.4663C64.6089 32.0377 63.2217 32.5907 63.2217 33.4663Z" fill="#FFF0E9"></path><path d="M60.3554 62.9611C73.1759 62.9611 83.569 52.6034 83.569 39.8265C83.569 27.0496 73.1759 16.6919 60.3554 16.6919C47.5349 16.6919 37.1418 27.0496 37.1418 39.8265C37.1418 52.6034 47.5349 62.9611 60.3554 62.9611Z" fill="#FFF0E9"></path><path d="M82.8755 39.8263C82.8755 49.1354 76.9102 57.7533 68.078 60.9331C59.2457 64.113 58.6908 62.7304 54.1591 61.394C49.6273 60.0575 45.928 57.5689 43.061 54.1586C37.0032 46.9233 36.2634 36.2777 41.165 28.2129C46.0205 20.2402 55.6388 16.0004 64.841 17.8438C73.997 19.6872 81.2107 27.199 82.6905 36.3699C82.8755 37.522 82.968 38.6741 82.968 39.8263C82.968 40.9784 84.3552 40.7019 84.3552 39.8263C84.3552 34.8952 82.783 30.0102 79.916 26.0008C77.049 21.9914 73.2109 19.1342 68.6791 17.4751C59.292 14.0188 48.3788 16.9682 42.0436 24.6643C38.8992 28.4894 37.0032 33.144 36.6333 38.075C36.2634 42.96 37.4656 47.9833 40.009 52.177C42.5523 56.3707 46.2054 59.5966 50.5984 61.5322C55.1764 63.606 60.3093 64.159 65.2572 63.1913C74.8756 61.2557 82.598 53.2369 84.0778 43.513C85.5575 33.7891 84.3552 41.0705 84.3552 39.8263C84.3552 38.582 82.968 38.9506 82.968 39.8263H82.8755Z" fill="#FFF0E9"></path><path d="M60.3554 115.313C73.1759 115.313 83.569 104.955 83.569 92.1785C83.569 79.4016 73.1759 69.0439 60.3554 69.0439C47.5349 69.0439 37.1418 79.4016 37.1418 92.1785C37.1418 104.955 47.5349 115.313 60.3554 115.313Z" fill="#FFF0E9"></path><path d="M82.8755 92.1783C82.8755 101.487 76.9102 110.105 68.078 113.285C63.6387 114.898 58.6908 115.082 54.1591 113.746C49.6273 112.41 45.928 109.921 43.061 106.511C37.0032 99.2754 36.2634 88.6298 41.165 80.5649C46.0667 72.5001 55.6388 68.3525 64.841 70.1958C73.997 72.0392 81.2107 79.5511 82.6905 88.7219C82.8755 89.8741 82.968 91.0262 82.968 92.1783C82.968 93.3304 84.3552 93.0539 84.3552 92.1783C84.3552 87.2472 82.783 82.3622 79.916 78.3529C77.049 74.3435 73.2109 71.4862 68.6791 69.8272C59.292 66.3708 48.3788 69.3202 42.0436 77.0164C38.8992 80.8414 37.0032 85.496 36.6333 90.4271C36.2634 95.3121 37.4656 100.335 40.009 104.529C42.506 108.631 46.2054 111.949 50.5984 113.884C55.1764 115.958 60.3093 116.511 65.2572 115.543C74.8756 113.608 82.598 105.589 84.0778 95.8651C85.5575 86.1412 84.3552 93.4226 84.3552 92.1783C84.3552 90.934 82.968 91.3027 82.968 92.1783H82.8755Z" fill="#FFF0E9"></path><path d="M90.7831 85.2192C101.152 85.2192 109.557 76.8423 109.557 66.5088C109.557 56.1753 101.152 47.7983 90.7831 47.7983C80.4143 47.7983 72.0088 56.1753 72.0088 66.5088C72.0088 76.8423 80.4143 85.2192 90.7831 85.2192Z" fill="#FFF0E9"></path><path d="M108.864 66.5093C108.864 73.975 104.101 80.8877 97.0255 83.4224C89.9505 85.9571 81.7194 83.7911 76.8177 77.9383C71.916 72.0855 71.3611 63.6059 75.2917 57.1541C79.2223 50.7022 86.991 47.2919 94.3897 48.8127C101.788 50.3335 107.43 56.2784 108.632 63.652C109.835 71.0256 108.864 65.5415 108.864 66.5093C108.864 67.4771 110.251 67.3849 110.251 66.5093C110.251 58.3983 105.072 51.0709 97.4417 48.2597C89.8118 45.4485 80.887 47.891 75.7079 54.1585C70.5288 60.4722 69.8351 69.5509 74.0894 76.5097C78.2975 83.4685 86.621 87.0631 94.6209 85.4962C102.621 83.9293 108.817 77.4314 110.02 69.5048C111.222 61.5782 110.251 67.4771 110.251 66.4632C110.251 65.4493 108.864 65.5876 108.864 66.4632V66.5093Z" fill="#FFF0E9"></path><path d="M99.1535 38.4895C103.955 38.4895 107.847 34.6105 107.847 29.8256C107.847 25.0406 103.955 21.1616 99.1535 21.1616C94.3522 21.1616 90.46 25.0406 90.46 29.8256C90.46 34.6105 94.3522 38.4895 99.1535 38.4895Z" fill="#FFF0E9"></path><path d="M107.153 29.8258C107.153 33.1439 105.026 36.1855 101.881 37.3377C98.7369 38.4898 95.13 37.4759 93.0029 34.9412C90.8757 32.4066 90.5983 28.6276 92.263 25.8164C93.9277 23.0053 97.3959 21.3923 100.679 22.0836C103.962 22.7748 107.107 26.139 107.107 29.918C107.107 33.6969 108.494 30.7936 108.494 29.918C108.494 26.0008 106.043 22.5444 102.344 21.1619C98.6444 19.7793 94.3439 20.9775 91.8468 23.973C89.3497 26.9686 88.9798 31.3927 91.0607 34.7569C93.0953 38.1211 97.0722 39.8262 100.957 39.0889C104.841 38.3515 108.448 34.2961 108.494 29.918C108.54 25.5399 107.107 29.0424 107.107 29.918L107.153 29.8258Z" fill="#FFF0E9"></path><path d="M28.7253 109.414L5.28052 99.1828V28.627L28.7253 38.9039V109.414Z" fill="#C1E2EC"></path><path d="M29.0949 108.815L21.1412 105.359L8.5171 99.8284L5.65008 98.5841L5.97378 99.1832V31.5306C5.97378 30.6089 6.06626 29.6412 5.97378 28.7656C5.8813 27.8899 5.97378 28.6734 5.97378 28.6273L4.91021 29.2264L12.8639 32.6828L25.488 38.2129L28.355 39.4572L28.0313 38.8581V100.796C28.0313 103.653 27.9388 106.465 28.0313 109.322C28.1238 112.179 28.0313 109.414 28.0313 109.46C28.0313 110.336 29.4186 110.336 29.4186 109.46V47.5682C29.4186 44.7109 29.5111 41.8997 29.4186 39.0425C29.3261 36.1852 29.4186 38.9503 29.4186 38.9042C29.4186 38.6738 29.2798 38.3973 29.0949 38.3051L21.1412 34.8488L8.5171 29.3186L5.65008 28.0743C5.18766 27.8899 4.58651 28.0743 4.58651 28.6734V90.5192C4.58651 93.3765 4.49403 96.1877 4.58651 99.0449C4.679 101.902 4.58651 99.1371 4.58651 99.1832C4.58651 99.4136 4.72524 99.6901 4.91021 99.7823L12.8639 103.239L25.488 108.769L28.355 110.013C29.1874 110.382 29.881 109.184 29.0486 108.815H29.0949Z" fill="#C1E2EC"></path><path d="M28.7253 109.414L52.1701 99.1833V28.6274L28.7253 38.9044V109.414Z" fill="#FF9180"></path><path d="M29.0954 110.013L37.0491 106.557L49.6732 101.027L52.5402 99.7825C52.7714 99.6904 52.8639 99.4138 52.8639 99.1834V37.2915C52.8639 34.4342 52.9564 31.6231 52.8639 28.7658C52.7714 25.9085 52.8639 28.6736 52.8639 28.6275C52.8639 28.0745 52.2628 27.8441 51.8003 28.0284L43.8467 31.4848L31.2226 37.015L28.3555 38.2593C28.1243 38.3514 28.0319 38.6279 28.0319 38.8584V100.796C28.0319 103.654 27.9394 106.465 28.0319 109.322C28.1243 112.179 28.0319 109.414 28.0319 109.46C28.0319 110.336 29.4191 110.336 29.4191 109.46V41.8078C29.4191 40.8861 29.5116 39.9644 29.4191 39.0427C29.3266 38.121 29.4191 38.9505 29.4191 38.9045L29.0954 39.5036L37.0491 36.0472L49.6732 30.517L52.5402 29.2727L51.4766 28.6736V96.2801C51.4766 97.2018 51.3842 98.1235 51.4766 99.0452C51.5691 99.9669 51.4766 99.1373 51.4766 99.1834L51.8003 98.5843L43.8467 102.041L31.2226 107.571L28.3555 108.815C27.5232 109.184 28.2631 110.382 29.0492 110.013H29.0954Z" fill="#FF9180"></path><path d="M75.6147 109.414L52.1699 99.1828V28.627L75.6147 38.9039V109.414Z" fill="#A3D2A9"></path><path d="M75.985 108.815L68.0314 105.359L55.4072 99.8284L52.5402 98.5841L52.8639 99.1832V31.5306C52.8639 30.6089 52.9564 29.6412 52.8639 28.7656C52.7714 27.8899 52.8639 28.6734 52.8639 28.6273L51.8003 29.2264L59.754 32.6828L72.3781 38.2129L75.2451 39.4572L74.9214 38.8581V100.796C74.9214 103.653 74.829 106.465 74.9214 109.322C75.0139 112.179 74.9214 109.414 74.9214 109.46C74.9214 110.336 76.3087 110.336 76.3087 109.46V47.5682C76.3087 44.7109 76.4012 41.8997 76.3087 39.0425C76.2162 36.1852 76.3087 38.9503 76.3087 38.9042C76.3087 38.6738 76.17 38.3973 75.985 38.3051L68.0314 34.8488L55.4072 29.3186L52.5402 28.0743C52.0778 27.8899 51.4767 28.0743 51.4767 28.6734V90.5192C51.4767 93.3765 51.3842 96.1877 51.4767 99.0449C51.5691 101.902 51.4767 99.1371 51.4767 99.1832C51.4767 99.4136 51.6154 99.6901 51.8003 99.7823L59.754 103.239L72.3781 108.769L75.2451 110.013C76.0775 110.382 76.7711 109.184 75.9388 108.815H75.985Z" fill="#A3D2A9"></path><path d="M75.6155 109.414L99.0603 99.1833V28.6274L75.6155 38.9044V109.414Z" fill="#FFD483"></path><path d="M75.9853 110.013L83.939 106.557L96.5631 101.027L99.4301 99.7825C99.6613 99.6904 99.7538 99.4138 99.7538 99.1834V37.2915C99.7538 34.4342 99.8463 31.6231 99.7538 28.7658C99.6613 25.9085 99.7538 28.6736 99.7538 28.6275C99.7538 28.0745 99.1527 27.8441 98.6902 28.0284L90.7366 31.4848L78.1125 37.015L75.2454 38.2593C75.0142 38.3514 74.9217 38.6279 74.9217 38.8584V100.796C74.9217 103.654 74.8293 106.465 74.9217 109.322C75.0142 112.179 74.9217 109.414 74.9217 109.46C74.9217 110.336 76.309 110.336 76.309 109.46V41.8078C76.309 40.8861 76.4015 39.9644 76.309 39.0427C76.2165 38.121 76.309 38.9505 76.309 38.9045L75.9853 39.5036L83.939 36.0472L96.5631 30.517L99.4301 29.2727L98.3665 28.6736V96.2801C98.3665 97.2018 98.274 98.1235 98.3665 99.0452C98.459 99.9669 98.3665 99.1373 98.3665 99.1834L98.6902 98.5843L90.7366 102.041L78.1125 107.571L75.2454 108.815C74.4131 109.184 75.153 110.382 75.9391 110.013H75.9853Z" fill="#FFD483"></path><path d="M92.9102 64.6658L82.5982 69.1821L81.1185 69.8273C80.2861 70.196 81.026 71.3942 81.8121 71.0255L92.1241 66.5092L93.6039 65.864C94.4362 65.4953 93.6964 64.2971 92.9102 64.6658Z" fill="white"></path><path d="M92.9102 69.8274L82.5982 74.3437L81.1185 74.9889C80.2861 75.3576 81.026 76.5558 81.8121 76.1871L92.1241 71.6708L93.6039 71.0256C94.4362 70.657 93.6964 69.4587 92.9102 69.8274Z" fill="white"></path><path d="M92.9102 74.9886L82.5982 79.5049L81.1185 80.1501C80.2861 80.5187 81.026 81.7169 81.8121 81.3483L92.1241 76.8319L93.6039 76.1868C94.4362 75.8181 93.6964 74.6199 92.9102 74.9886Z" fill="white"></path><path d="M92.9102 80.1043L82.5982 84.6206L81.1185 85.2658C80.2861 85.6345 81.026 86.8327 81.8121 86.464L92.1241 81.9477L93.6039 81.3025C94.4362 80.9338 93.6964 79.7356 92.9102 80.1043Z" fill="white"></path><path d="M10.7832 46.5085L21.0952 51.0248L22.575 51.67C23.4073 52.0387 24.101 50.8405 23.2686 50.4718L12.9566 45.9555L11.4768 45.3103C10.6445 44.9417 9.95085 46.1399 10.7832 46.5085Z" fill="white"></path><path d="M10.7832 51.6702L21.0952 56.1865L22.575 56.8317C23.4073 57.2003 24.101 56.0021 23.2686 55.6335L12.9566 51.1171L11.4768 50.472C10.6445 50.1033 9.95085 51.3015 10.7832 51.6702Z" fill="white"></path><path d="M10.7832 56.7854L21.0952 61.3017L22.575 61.9469C23.4073 62.3156 24.101 61.1174 23.2686 60.7487L12.9566 56.2324L11.4768 55.5872C10.6445 55.2185 9.95085 56.4167 10.7832 56.7854Z" fill="white"></path><path d="M10.7832 61.947L21.0952 66.4633L22.575 67.1085C23.4073 67.4772 24.101 66.279 23.2686 65.9103L12.9566 61.394L11.4768 60.7488C10.6445 60.3801 9.95085 61.5783 10.7832 61.947Z" fill="white"></path><path d="M99.7541 99.1834V37.2915C99.7541 34.4342 99.8465 31.6231 99.7541 28.7658C99.6616 25.9085 99.7541 28.6736 99.7541 28.6275C99.7541 27.7519 98.3668 27.7519 98.3668 28.6275V90.5195C98.3668 93.3767 98.2743 96.1879 98.3668 99.0452C98.4593 101.902 98.3668 99.1373 98.3668 99.1834C98.3668 100.059 99.7541 100.059 99.7541 99.1834Z" fill="#FFC17F"></path><path d="M99.1533 6.73765C100.217 7.93585 101.974 8.53496 103.546 8.16628C106.46 7.475 108.217 3.97256 111.223 3.69605C112.933 3.51171 114.552 4.52558 115.754 5.76987C116.309 6.36897 116.864 7.06024 117.65 7.29067C118.668 7.61326 119.916 6.78373 120.055 5.72378C120.055 7.10633 119.731 8.53496 118.899 9.64099C118.066 10.747 116.725 11.5766 115.338 11.4844C114.459 11.4844 113.488 11.0696 112.564 11.0235C111.639 10.9775 110.575 11.254 109.697 11.6687C105.812 13.466 103.731 18.351 99.1533 18.7197" fill="#FF9180"></path><path d="M98.6444 7.24457C99.8467 8.58103 101.743 9.22622 103.5 8.85754C105.257 8.48886 106.413 7.42891 107.615 6.41505C108.818 5.40118 110.02 4.34123 111.638 4.38731C113.257 4.4334 113.488 4.84816 114.228 5.40118C114.968 5.9542 115.523 6.73764 116.263 7.33674C117.003 7.93585 117.974 8.25844 118.898 7.88976C119.823 7.52108 120.471 6.82981 120.609 5.90811L119.268 5.72377C119.268 7.61325 118.621 9.5949 116.818 10.4705C115.014 11.3461 115.107 10.8392 114.182 10.6549C113.257 10.4705 112.147 10.2862 111.084 10.4705C107.847 11.1157 105.766 13.8347 103.454 15.8624C101.141 17.8902 100.818 17.8441 99.1068 18.0284C97.3959 18.2128 98.2282 19.5031 99.1068 19.411C102.575 19.0884 104.702 16.5076 107.107 14.2956C108.401 13.1434 109.881 11.9913 111.638 11.7609C113.396 11.5305 113.858 12.0835 114.968 12.1757C116.078 12.2678 116.91 12.0374 117.742 11.5305C119.777 10.3323 120.609 7.98193 120.609 5.72377C120.609 3.46562 119.361 4.75599 119.268 5.53943C119.176 6.32288 118.667 6.69156 117.974 6.64547C117.28 6.59939 116.633 5.76986 116.124 5.26293C114.968 4.01864 113.396 3.05085 111.685 3.00477C108.586 2.86651 106.829 5.76986 104.378 7.10632C101.928 8.44278 100.818 7.65934 99.6155 6.27679C98.4132 4.89425 98.0432 6.59939 98.6444 7.24457Z" fill="#FF9180"></path><path d="M115.292 10.8393C114.274 10.7471 113.349 10.3784 112.332 10.3784C111.315 10.3784 110.436 10.6549 109.511 11.0236C108.17 11.6227 107.014 12.5444 105.997 13.5122C104.009 15.3556 102.066 17.7981 99.1531 18.0746C96.2398 18.3511 98.2745 19.5493 99.1531 19.4571C102.205 19.1806 104.286 17.1068 106.321 15.1252C107.338 14.1574 108.355 13.1896 109.65 12.4983C110.945 11.807 111.407 11.761 112.332 11.761C113.257 11.761 114.274 12.1757 115.292 12.2218C116.309 12.2679 116.17 10.8854 115.292 10.8393Z" fill="#FF765C"></path><path d="M115.199 6.27638C115.985 7.15199 116.864 8.16586 118.159 8.07369C119.453 7.98152 120.471 7.15199 120.609 5.95378C120.748 4.75558 120.517 5.21643 120.147 5.12426C119.777 5.03209 119.361 5.21643 119.315 5.58511C119.268 5.95378 119.315 5.76945 119.268 5.9077C119.222 6.04595 119.268 5.99987 119.268 5.9077C119.268 5.95378 119.222 5.99987 119.176 6.04595C119.13 6.09204 119.13 6.13812 119.083 6.18421C119.037 6.27638 119.083 6.18421 119.083 6.18421C119.083 6.18421 118.945 6.32246 118.852 6.41463C118.76 6.5068 118.899 6.41463 118.852 6.41463C118.806 6.41463 118.76 6.46072 118.714 6.5068C118.667 6.55289 118.621 6.55289 118.575 6.59897C118.482 6.64506 118.621 6.59897 118.575 6.59897C118.529 6.59897 118.39 6.64506 118.297 6.69114C118.205 6.73723 118.39 6.69114 118.297 6.69114C118.205 6.69114 118.205 6.69114 118.112 6.69114C118.02 6.69114 118.02 6.69114 117.974 6.69114C117.789 6.69114 118.112 6.69114 117.974 6.69114C117.835 6.69114 117.789 6.64506 117.696 6.59897C117.835 6.64506 117.65 6.59897 117.65 6.59897C117.604 6.59897 117.557 6.55289 117.511 6.5068C117.465 6.46072 117.419 6.46072 117.373 6.41463C117.188 6.27638 117.465 6.5068 117.326 6.36855C116.956 6.04595 116.633 5.67728 116.309 5.3086C115.985 4.93992 115.569 5.03209 115.338 5.3086C115.107 5.58511 115.06 5.99987 115.338 6.27638H115.199Z" fill="#FF765C"></path><path d="M98.6445 7.24413C99.8931 8.67276 101.882 9.27186 103.685 8.8571C105.488 8.44233 104.286 8.35016 104.147 8.02757C104.009 7.70497 103.685 7.47455 103.315 7.56672C102.945 7.65889 103.13 7.56672 103.038 7.6128C102.945 7.65889 103.13 7.6128 103.038 7.6128C102.945 7.6128 102.945 7.6128 102.899 7.6128C102.714 7.6128 102.529 7.6128 102.298 7.6128C102.066 7.6128 102.113 7.6128 102.02 7.6128C102.159 7.6128 101.928 7.6128 101.882 7.6128C101.697 7.6128 101.512 7.52064 101.327 7.47455C101.142 7.42847 101.142 7.42847 101.095 7.38238C100.957 7.38238 101.095 7.38238 101.095 7.38238C101.095 7.38238 101.003 7.38238 100.957 7.3363C100.772 7.24413 100.633 7.15196 100.494 7.05979C100.356 6.96762 100.309 6.96762 100.263 6.87545C100.217 6.78328 100.356 6.92153 100.263 6.87545C100.171 6.82936 100.171 6.82936 100.124 6.78328C99.9856 6.64502 99.8468 6.50677 99.7081 6.36851C99.4769 6.09201 98.9683 6.09201 98.737 6.36851C98.5058 6.64502 98.4596 7.05979 98.737 7.3363L98.6445 7.24413Z" fill="#FF765C"></path><path d="M99.7542 35.6786V6.73728C99.7542 5.86166 98.3669 5.86166 98.3669 6.73728V35.6325C98.3669 36.5081 99.7542 36.5081 99.7542 35.6325V35.6786Z" fill="#025749"></path><path d="M99.0605 43.3745L98.0432 43.8354" stroke="#025749" stroke-width="1.38727" stroke-miterlimit="10"></path><path d="M96.1005 44.7109L77.6499 52.7758" stroke="#025749" stroke-width="1.38727" stroke-miterlimit="10"></path><path d="M76.6788 53.1904L75.6152 53.6513V54.8034" stroke="#025749" stroke-width="1.38727" stroke-miterlimit="10"></path><path d="M75.6152 57.3379V66.094" stroke="#025749" stroke-width="1.38727" stroke-miterlimit="10"></path><path d="M75.6153 67.3384V68.4905L74.5518 68.0297" stroke="#025749" stroke-width="1.38727" stroke-miterlimit="10"></path><path d="M72.6092 67.2001L54.2048 59.1353" stroke="#025749" stroke-width="1.38727" stroke-miterlimit="10"></path><path d="M53.2337 58.7206L52.1702 58.2598V59.4119" stroke="#025749" stroke-width="1.38727" stroke-miterlimit="10"></path><path d="M52.1702 61.6699V69.7348" stroke="#025749" stroke-width="1.38727" stroke-miterlimit="10"></path><path d="M52.1705 70.8867V72.0388L51.1069 72.4997" stroke="#025749" stroke-width="1.38727" stroke-miterlimit="10"></path><path d="M49.1644 73.3296L30.76 81.3944" stroke="#025749" stroke-width="1.38727" stroke-miterlimit="10"></path><path d="M29.7889 81.8091L28.7253 82.2699V83.4221" stroke="#025749" stroke-width="1.38727" stroke-miterlimit="10"></path><path d="M28.7253 85.6343V93.2383" stroke="#025749" stroke-width="1.38727" stroke-miterlimit="10"></path><path d="M28.7251 94.3442V95.4964L27.6615 95.0355" stroke="#025749" stroke-width="1.38727" stroke-miterlimit="10"></path><path d="M25.7191 94.206L7.3147 86.1411" stroke="#025749" stroke-width="1.38727" stroke-miterlimit="10"></path><path d="M6.3436 85.6806L5.28003 85.2197" stroke="#025749" stroke-width="1.38727" stroke-miterlimit="10"></path><path d="M101.16 45.4089C102.533 44.0411 102.738 42.0277 101.618 40.9119C100.499 39.7961 98.4784 40.0003 97.1059 41.3681C95.7335 42.7359 95.5285 44.7493 96.6481 45.8651C97.7678 46.9809 99.788 46.7767 101.16 45.4089Z" fill="#FF9180"></path><path d="M101.142 41.3935C101.142 41.3935 101.234 41.4856 101.281 41.5317C101.373 41.6239 101.281 41.5317 101.281 41.5317C101.281 41.5317 101.281 41.5778 101.327 41.6239C101.327 41.67 101.373 41.716 101.419 41.7621C101.465 41.8082 101.419 41.8082 101.419 41.8543C101.419 41.9004 101.512 42.0386 101.419 41.9465C101.327 41.8543 101.419 42.0386 101.419 42.0847C101.419 42.1308 101.419 42.223 101.465 42.2691C101.512 42.3151 101.465 42.4073 101.465 42.4995C101.465 42.3612 101.465 42.5456 101.465 42.5917C101.465 42.7299 101.465 42.8682 101.465 43.0064C101.465 43.1447 101.465 43.1908 101.465 43.0986C101.465 43.1908 101.465 43.2829 101.419 43.3751C101.419 43.5134 101.327 43.6516 101.281 43.7899C101.234 43.9281 101.188 43.9742 101.096 44.1585C100.818 44.7116 100.402 45.1263 99.8932 45.4489C99.3846 45.7715 99.6158 45.5872 99.4771 45.6793C99.3383 45.7715 99.4771 45.6793 99.3846 45.6793C99.2921 45.6793 99.1996 45.7254 99.1071 45.7715C98.9684 45.7715 98.8297 45.8176 98.6909 45.8637C98.5522 45.9098 98.5522 45.8637 98.6909 45.8637C98.6909 45.8637 98.6447 45.8637 98.5985 45.8637C98.506 45.8637 98.4597 45.8637 98.3673 45.8637C98.2748 45.8637 98.2285 45.8637 98.1823 45.8637C98.136 45.8637 97.9511 45.8637 97.9973 45.8637C98.0436 45.8637 97.9048 45.8637 97.8586 45.8637C97.7661 45.8637 97.6736 45.8637 97.6274 45.8176C97.5811 45.7715 97.4424 45.7715 97.4887 45.8176C97.5349 45.8637 97.3962 45.8176 97.3962 45.7715C97.3499 45.7715 97.2574 45.6793 97.2112 45.6793C97.165 45.6793 97.165 45.6793 97.1187 45.6333C97.0262 45.5872 97.2112 45.6793 97.1187 45.6333C97.0262 45.5872 96.9337 45.4489 96.8413 45.3567C96.7488 45.2646 96.8413 45.3568 96.8413 45.3107C96.8413 45.2646 96.7488 45.1724 96.7025 45.0802C96.6563 44.9881 96.6563 44.9881 96.6101 44.8959C96.6563 44.9881 96.6101 44.8959 96.6101 44.8498C96.6101 44.7116 96.5176 44.5733 96.5176 44.4351C96.5176 44.5733 96.5176 44.389 96.5176 44.3429C96.5176 44.2968 96.5176 44.2046 96.5176 44.1585C96.5176 44.1125 96.5176 44.0203 96.5176 43.9742C96.5176 43.9281 96.5176 43.9281 96.5176 43.882C96.5176 43.6977 96.5176 43.9742 96.5176 43.8359C96.5176 43.6977 96.5638 43.5594 96.6101 43.4212C96.6563 43.2829 96.6563 43.2829 96.7025 43.1908C96.7488 43.0986 96.7025 43.1447 96.7025 43.0986C96.7025 43.0064 96.7025 43.1908 96.7025 43.0986C96.7025 43.0064 96.8413 42.8221 96.9337 42.6838C97.0262 42.5456 97.1187 42.4073 97.165 42.3152C97.2574 42.1769 97.3499 42.0847 97.4887 41.9926C97.6274 41.9004 97.7199 41.7621 97.8124 41.716C97.9511 41.6239 98.136 41.5317 98.2748 41.4395C98.4135 41.3474 98.4597 41.3474 98.6447 41.2552C98.8297 41.163 98.9684 41.163 99.1534 41.1169C99.3383 41.0709 99.1996 41.1169 99.2459 41.1169C99.1534 41.1169 99.2459 41.1169 99.2459 41.1169C99.3383 41.1169 99.4308 41.1169 99.5233 41.1169C99.6158 41.1169 99.662 41.1169 99.7545 41.1169C99.847 41.1169 99.9857 41.1169 99.847 41.1169C99.9857 41.1169 100.171 41.163 100.309 41.2091C100.448 41.2552 100.356 41.2091 100.402 41.2091C100.263 41.2091 100.402 41.2091 100.402 41.2091C100.448 41.2091 100.541 41.2552 100.587 41.3013C100.633 41.3474 100.818 41.4395 100.679 41.3935C100.726 41.4395 100.818 41.4856 100.864 41.5778C101.142 41.8543 101.558 41.8543 101.835 41.5778C102.113 41.3013 102.113 40.8404 101.835 40.61C100.679 39.4579 98.8759 39.504 97.4887 40.2413C96.1014 40.9787 94.9453 42.5917 94.9916 44.2507C95.0378 45.9098 96.0551 47.1541 97.5811 47.4306C99.1071 47.7071 100.911 46.8315 101.928 45.495C102.945 44.1585 103.13 41.9926 101.835 40.6561C100.541 39.3196 101.096 40.3796 100.864 40.6561C100.633 40.9326 100.587 41.3474 100.864 41.6239L101.142 41.3935Z" fill="#FF9180"></path><path d="M6.99765 87.1247C8.11729 86.0089 7.91233 83.9955 6.53987 82.6277C5.16741 81.2599 3.14717 81.0557 2.02753 82.1715C0.907891 83.2873 1.11284 85.3007 2.4853 86.6685C3.85776 88.0363 5.87801 88.2405 6.99765 87.1247Z" fill="#FFD483"></path><path d="M1.58097 81.7176C0.424919 82.8698 0.471161 84.6671 1.21104 86.0496C1.95091 87.4322 3.56939 88.5843 5.23411 88.5382C6.89882 88.4921 8.14736 87.4783 8.42482 85.9575C8.70227 84.4367 7.82367 82.6393 6.48265 81.6255C5.14162 80.6116 2.96824 80.4273 1.62722 81.7176C0.286192 83.008 1.34976 82.455 1.62722 82.6854C1.90467 82.9158 2.32085 82.9619 2.5983 82.6854C2.87575 82.4089 2.69079 82.5933 2.73703 82.5472C2.82951 82.455 2.73703 82.5472 2.73703 82.5472C2.73703 82.5472 2.78327 82.5472 2.82951 82.5011C2.87575 82.5011 2.922 82.455 2.96824 82.4089C3.01448 82.3628 3.01448 82.4089 3.06072 82.4089C3.10697 82.4089 3.24569 82.3168 3.15321 82.4089C3.06072 82.5011 3.24569 82.4089 3.29193 82.4089C3.33818 82.4089 3.43066 82.4089 3.4769 82.3628C3.52314 82.3167 3.61563 82.3628 3.70811 82.3628C3.56939 82.3628 3.75436 82.3628 3.8006 82.3628C3.93932 82.3628 4.07805 82.3628 4.21678 82.3628C4.3555 82.3628 4.40175 82.3628 4.30926 82.3628C4.40175 82.3628 4.49423 82.3628 4.58672 82.4089C4.72544 82.4089 4.86417 82.5011 5.00289 82.5472C5.14162 82.5933 5.18786 82.6393 5.37283 82.7315C5.92774 83.008 6.34392 83.4228 6.66761 83.9297C6.99131 84.4367 6.80634 84.2062 6.89882 84.3445C6.99131 84.4827 6.89882 84.3445 6.89882 84.4367C6.89882 84.5288 6.94507 84.621 6.99131 84.7132C6.99131 84.8514 7.03755 84.9897 7.08379 85.1279C7.13003 85.2662 7.08379 85.2662 7.08379 85.1279C7.08379 85.1279 7.08379 85.174 7.08379 85.2201C7.08379 85.3123 7.08379 85.3583 7.08379 85.4505C7.08379 85.5427 7.08379 85.5888 7.08379 85.6349C7.08379 85.6809 7.08379 85.8653 7.08379 85.8192C7.08379 85.7731 7.08379 85.9114 7.08379 85.9575C7.08379 86.0496 7.08379 86.1418 7.03755 86.1879C6.99131 86.234 6.99131 86.3722 7.03755 86.3261C7.08379 86.28 7.03755 86.4183 6.99131 86.4183C6.99131 86.4644 6.89882 86.5566 6.89882 86.6026C6.89882 86.6487 6.89882 86.6487 6.85258 86.6948C6.80634 86.787 6.89882 86.6026 6.85258 86.6948C6.80634 86.787 6.66761 86.8791 6.57513 86.9713C6.48265 87.0635 6.57513 86.9713 6.52889 86.9713C6.48264 86.9713 6.39016 87.0635 6.29768 87.1096C6.20519 87.1557 6.20519 87.1557 6.11271 87.2017C6.20519 87.1557 6.11271 87.2017 6.06646 87.2017C5.92774 87.2017 5.78901 87.2939 5.65029 87.2939C5.78901 87.2939 5.60404 87.2939 5.5578 87.2939C5.51156 87.2939 5.41907 87.2939 5.37283 87.2939C5.32659 87.2939 5.23411 87.2939 5.18786 87.2939C5.14162 87.2939 5.14162 87.2939 5.09538 87.2939C4.91041 87.2939 5.18786 87.2939 5.04914 87.2939C4.91041 87.2939 4.77168 87.2478 4.63296 87.2017C4.49423 87.1557 4.49423 87.1557 4.40175 87.1096C4.30926 87.0635 4.3555 87.1096 4.30926 87.1096C4.21678 87.1096 4.40175 87.1096 4.30926 87.1096C4.21678 87.1096 4.03181 86.9713 3.89308 86.8791C3.75436 86.787 3.61563 86.6948 3.52314 86.6487C3.38442 86.5566 3.29193 86.4644 3.19945 86.3261C3.10697 86.1879 2.96824 86.0957 2.922 86.0035C2.82951 85.8653 2.73703 85.6809 2.64454 85.5427C2.55206 85.4044 2.55206 85.3584 2.45957 85.174C2.36709 84.9897 2.36709 84.8514 2.32085 84.6671C2.27461 84.4827 2.32085 84.621 2.32085 84.5749C2.32085 84.6671 2.32085 84.5749 2.32085 84.5749C2.32085 84.4827 2.32085 84.3906 2.32085 84.2984C2.32085 84.2062 2.32085 84.1601 2.32085 84.068C2.32085 83.9758 2.32085 83.8375 2.32085 83.9758C2.32085 83.8375 2.36709 83.6532 2.41333 83.515C2.45957 83.3767 2.41333 83.4689 2.41333 83.4228C2.41333 83.561 2.41333 83.4228 2.41333 83.4228C2.41333 83.3767 2.45957 83.2845 2.50582 83.2384C2.55206 83.1924 2.64454 83.008 2.5983 83.1463C2.64454 83.1002 2.69079 83.008 2.78327 82.9619C3.06072 82.6854 3.06072 82.2707 2.78327 81.9942C2.50582 81.7176 2.0434 81.7176 1.81218 81.9942L1.58097 81.7176Z" fill="#FFD483"></path><path d="M29.095 108.815L21.1413 105.359L8.5172 99.8286L5.65018 98.5843C4.81783 98.2156 4.12419 99.4138 4.95655 99.7825L12.9102 103.239L25.5343 108.769L28.4013 110.013C29.2337 110.382 29.9273 109.184 29.095 108.815Z" fill="#ACD3E1"></path><path d="M29.0953 110.013L37.049 106.557L49.6731 101.027L52.5401 99.7825C53.3725 99.4138 52.6326 98.2156 51.8465 98.5843L43.8928 102.041L31.2687 107.571L28.4017 108.815C27.5693 109.184 28.3092 110.382 29.0953 110.013Z" fill="#FF765C"></path><path d="M75.9853 108.815L68.0317 105.359L55.4076 99.8286L52.5406 98.5843C51.7082 98.2156 51.0146 99.4138 51.8469 99.7825L59.8006 103.239L72.4247 108.769L75.2917 110.013C76.1241 110.382 76.8177 109.184 75.9853 108.815Z" fill="#7CBF99"></path><path d="M75.9855 110.013L83.9391 106.557L96.5632 101.027L99.4303 99.7825C100.263 99.4138 99.5227 98.2156 98.7366 98.5843L90.783 102.041L78.1588 107.571L75.2918 108.815C74.4595 109.184 75.1993 110.382 75.9855 110.013Z" fill="#FFC17F"></path></g><defs><clipPath id="clip0_1067_32703"><rect width="120" height="120" fill="white"></rect></clipPath></defs></svg> 