<?xml version="1.0" encoding="UTF-8"?> <svg xmlns="http://www.w3.org/2000/svg" width="120" height="120" viewBox="0 0 120 120" fill="none"><rect width="120" height="120" fill="white"></rect><g clip-path="url(#clip0_1067_32700)"><path d="M57.497 93.4652C67.2076 93.4652 75.0796 85.5816 75.0796 75.8566C75.0796 66.1317 67.2076 58.248 57.497 58.248C47.7863 58.248 39.9143 66.1317 39.9143 75.8566C39.9143 85.5816 47.7863 93.4652 57.497 93.4652Z" fill="#FFF0E9"></path><path d="M39.2167 75.8566C39.2514 83.497 44.0879 90.4338 51.257 93.0672C58.4198 95.6982 66.7614 93.4138 71.5941 87.5072C76.4538 81.5679 77.1361 72.9893 73.1515 66.3977C69.1721 59.8147 61.3306 56.3998 53.8067 57.924C46.4831 59.4077 40.602 65.5411 39.4518 72.9401C39.3015 73.9064 39.2211 74.8786 39.2167 75.8566C39.2126 76.756 40.6081 76.7571 40.6122 75.8566C40.644 68.8435 45.0826 62.3649 51.7007 59.9672C58.3801 57.5474 65.9652 59.624 70.5106 65.077C75.0586 70.5331 75.613 78.5448 71.9466 84.6101C68.3063 90.6321 61.0796 93.8423 54.1776 92.4415C47.3058 91.0467 41.9194 85.41 40.8099 78.4799C40.6711 77.6128 40.6162 76.7342 40.6122 75.8566C40.6081 74.9575 39.2126 74.9557 39.2167 75.8566Z" fill="#FFF0E9"></path><path d="M49.2637 108.725C58.9743 108.725 66.8463 100.842 66.8463 91.1169C66.8463 81.3919 58.9743 73.5083 49.2637 73.5083C39.5531 73.5083 31.681 81.3919 31.681 91.1169C31.681 100.842 39.5531 108.725 49.2637 108.725Z" fill="#FFF0E9"></path><path d="M30.983 91.1168C31.0178 98.7573 35.8543 105.694 43.0234 108.327C50.1862 110.958 58.5277 108.674 63.3605 102.767C68.2201 96.8281 68.9025 88.2495 64.9179 81.6579C60.9385 75.0749 53.097 71.66 45.573 73.1843C38.2494 74.6679 32.3684 80.8014 31.2181 88.2003C31.0679 89.1667 30.9875 90.1388 30.983 91.1168C30.979 92.0162 32.3744 92.0174 32.3785 91.1168C32.4104 84.1037 36.8489 77.6252 43.4671 75.2275C50.1464 72.8077 57.7315 74.8842 62.277 80.3372C66.825 85.7933 67.3794 93.805 63.7129 99.8703C60.0727 105.892 52.846 109.103 45.944 107.702C39.0722 106.307 33.6857 100.67 32.5763 93.7402C32.4375 92.873 32.3825 91.9944 32.3785 91.1168C32.3744 90.2178 30.9789 90.2159 30.983 91.1168Z" fill="#FFF0E9"></path><path d="M85.0273 85.6718C96.3628 85.6718 105.552 76.4689 105.552 65.1166C105.552 53.7644 96.3628 44.5615 85.0273 44.5615C73.6917 44.5615 64.5024 53.7644 64.5024 65.1166C64.5024 76.4689 73.6917 85.6718 85.0273 85.6718Z" fill="#FFF0E9"></path><path d="M63.8046 65.1166C63.8392 73.9721 69.4479 82.0254 77.7527 85.0864C86.0914 88.1599 95.7901 85.5008 101.413 78.6194C107.046 71.726 107.819 61.7659 103.195 54.1258C98.5931 46.5202 89.5445 42.5558 80.8409 44.278C72.2722 45.9735 65.3947 53.1351 64.0684 61.7858C63.8992 62.8896 63.8089 63.9999 63.8046 65.1166C63.8011 66.016 65.1965 66.0172 65.2001 65.1166C65.2322 56.8871 70.4428 49.2952 78.1965 46.4676C86.0477 43.6044 94.9978 46.057 100.329 52.4843C105.649 58.8972 106.297 68.2861 101.99 75.4021C97.6975 82.4964 89.1814 86.2496 81.0568 84.5764C73.0082 82.9188 66.704 76.2787 65.4261 68.1548C65.2681 67.1504 65.204 66.1328 65.2001 65.1166C65.1965 64.2175 63.8011 64.2157 63.8046 65.1166Z" fill="#FFF0E9"></path><path d="M105.552 75.0796C109.86 75.0796 113.352 71.5822 113.352 67.2681C113.352 62.9539 109.86 59.4565 105.552 59.4565C101.244 59.4565 97.7518 62.9539 97.7518 67.2681C97.7518 71.5822 101.244 75.0796 105.552 75.0796Z" fill="#FFF0E9"></path><path d="M97.0541 67.2683C97.0906 70.8347 99.3089 74.0248 102.653 75.2675C105.977 76.503 109.888 75.4189 112.118 72.665C114.353 69.9053 114.681 65.9447 112.837 62.8854C111.002 59.839 107.411 58.263 103.93 58.9151C99.9545 59.6598 97.0951 63.2628 97.0541 67.2683C97.0449 68.1678 98.4404 68.1685 98.4496 67.2683C98.4797 64.3316 100.306 61.595 103.096 60.5897C105.925 59.5705 109.107 60.4337 111.035 62.7424C112.947 65.032 113.165 68.4024 111.633 70.9457C110.105 73.4801 107.05 74.8461 104.146 74.2433C100.845 73.5581 98.484 70.6308 98.4496 67.2683C98.4404 66.3695 97.0449 66.3672 97.0541 67.2683Z" fill="#FFF0E9"></path><path d="M43.8575 113.37C45.5557 113.37 46.9323 111.991 46.9323 110.29C46.9323 108.59 45.5557 107.211 43.8575 107.211C42.1593 107.211 40.7827 108.59 40.7827 110.29C40.7827 111.991 42.1593 113.37 43.8575 113.37Z" fill="#FFF0E9"></path><path d="M40.0848 110.29C40.1066 111.882 41.0855 113.276 42.5694 113.839C44.0121 114.387 45.7632 113.922 46.739 112.724C47.7418 111.492 47.9258 109.742 47.1011 108.36C46.2795 106.983 44.685 106.305 43.1238 106.586C41.3616 106.904 40.1089 108.531 40.0848 110.29C40.0725 111.19 41.4679 111.19 41.4803 110.29C41.4936 109.316 42.1007 108.381 43.0169 108.061C44.0075 107.714 45.0615 107.992 45.727 108.814C46.3259 109.554 46.3974 110.675 45.8962 111.515C45.4021 112.343 44.3897 112.817 43.4537 112.639C42.2946 112.419 41.4961 111.443 41.4803 110.29C41.468 109.392 40.0724 109.389 40.0848 110.29Z" fill="#FFF0E9"></path><path d="M19.2031 77.5464V97.5094H46.9323" stroke="#FFD1C3" stroke-width="0.931355" stroke-miterlimit="10" stroke-linejoin="round" stroke-dasharray="0.93 0.93"></path><path d="M108.149 115.278H53.8861C52.6005 115.278 51.6253 114.118 51.8448 112.849L58.6295 73.6303C58.8015 72.6359 59.663 71.9097 60.6708 71.9097H114.933C116.219 71.9097 117.194 73.0701 116.975 74.3386L110.19 113.558C110.018 114.552 109.156 115.278 108.149 115.278Z" fill="#FF765C"></path><path d="M108.149 114.58C106.703 114.58 105.257 114.58 103.812 114.58C100.232 114.58 96.6516 114.58 93.0714 114.58C88.4917 114.58 83.912 114.58 79.3323 114.58C74.8881 114.58 70.4438 114.58 65.9996 114.58C62.8258 114.58 59.652 114.58 56.4783 114.58C55.7242 114.58 54.97 114.58 54.2159 114.58C53.2705 114.58 52.3991 114.07 52.5285 112.972C52.7839 110.806 53.2776 108.642 53.6492 106.494C54.3929 102.195 55.1365 97.8965 55.8801 93.5978C56.6231 89.303 57.3661 85.0082 58.109 80.7135C58.5006 78.45 58.869 76.181 59.284 73.9216C59.4559 72.9858 60.1245 72.6086 60.9906 72.6086C61.7391 72.6086 62.4877 72.6086 63.2363 72.6086C66.4025 72.6086 69.5687 72.6086 72.735 72.6086C77.1763 72.6086 81.6176 72.6086 86.0589 72.6086C90.6404 72.6086 95.2219 72.6086 99.8033 72.6086C103.39 72.6086 106.977 72.6086 110.563 72.6086C112.014 72.6086 113.483 72.5432 114.933 72.6086C115.806 72.648 116.394 73.3656 116.289 74.2273C116.26 74.4635 116.207 74.6992 116.167 74.9335C115.971 76.0674 115.775 77.2012 115.578 78.3351C114.896 82.2796 114.214 86.224 113.531 90.1685C112.75 94.6823 111.97 99.1962 111.189 103.71C110.681 106.647 110.173 109.583 109.665 112.52C109.504 113.449 109.375 114.533 108.149 114.58C107.253 114.614 107.249 116.011 108.149 115.977C109.476 115.927 110.6 115.046 110.867 113.722C110.906 113.526 110.935 113.327 110.969 113.13C111.158 112.038 111.347 110.946 111.536 109.854C112.228 105.85 112.921 101.845 113.614 97.8411C114.404 93.2729 115.194 88.7047 115.985 84.1365C116.497 81.1754 117.009 78.2142 117.521 75.2531C117.56 75.0281 117.602 74.8034 117.638 74.5779C117.813 73.4795 117.472 72.4141 116.554 71.7405C115.801 71.1876 114.977 71.2111 114.111 71.2111C111.559 71.2111 109.007 71.2111 106.455 71.2111C102.2 71.2111 97.9451 71.2111 93.6902 71.2111C88.9576 71.2111 84.2251 71.2111 79.4925 71.2111C75.4597 71.2111 71.4269 71.2111 67.3941 71.2111C65.2498 71.2111 63.1055 71.2111 60.9612 71.2111C59.5289 71.2111 58.2539 71.9848 57.9517 73.473C57.8197 74.1229 57.7251 74.7827 57.6121 75.4361C57.0013 78.967 56.3904 82.4979 55.7796 86.0289C54.9787 90.6584 54.1778 95.288 53.377 99.9175C52.7631 103.466 52.1492 107.014 51.5354 110.563C51.4168 111.248 51.2881 111.933 51.1796 112.62C50.8895 114.457 52.1791 115.962 54.0297 115.977C55.9883 115.994 57.9477 115.977 59.9064 115.977C63.8416 115.977 67.7769 115.977 71.7121 115.977C76.453 115.977 81.1939 115.977 85.9349 115.977C90.2473 115.977 94.5597 115.977 98.8721 115.977C101.588 115.977 104.305 115.977 107.021 115.977C107.397 115.977 107.773 115.977 108.149 115.977C109.047 115.977 109.048 114.58 108.149 114.58Z" fill="#FF765C"></path><path d="M102.198 115.278H47.9357C46.6501 115.278 45.6749 114.118 45.8944 112.849L52.679 73.6303C52.851 72.6359 53.7126 71.9097 54.7203 71.9097H108.983C110.269 71.9097 111.244 73.0701 111.024 74.3386L104.24 113.558C104.068 114.552 103.206 115.278 102.198 115.278Z" fill="#FF9180"></path><path d="M102.198 114.58C100.753 114.58 99.3071 114.58 97.8615 114.58C94.2814 114.58 90.7012 114.58 87.1211 114.58C82.5414 114.58 77.9617 114.58 73.382 114.58C68.9378 114.58 64.4935 114.58 60.0493 114.58C56.8755 114.58 53.7017 114.58 50.528 114.58C49.7738 114.58 49.0197 114.58 48.2656 114.58C47.3202 114.58 46.4488 114.07 46.5782 112.972C46.8335 110.806 47.3273 108.642 47.6989 106.494C48.4425 102.195 49.1862 97.8965 49.9298 93.5978C50.6728 89.303 51.4158 85.0082 52.1587 80.7135C52.5503 78.45 52.9187 76.181 53.3337 73.9216C53.5056 72.9858 54.1742 72.6086 55.0402 72.6086C55.7888 72.6086 56.5374 72.6086 57.286 72.6086C60.4522 72.6086 63.6184 72.6086 66.7846 72.6086C71.226 72.6086 75.6673 72.6086 80.1086 72.6086C84.6901 72.6086 89.2715 72.6086 93.853 72.6086C97.4396 72.6086 101.026 72.6086 104.613 72.6086C106.064 72.6086 107.533 72.5432 108.983 72.6086C109.855 72.648 110.444 73.3656 110.339 74.2273C110.31 74.4635 110.257 74.6992 110.217 74.9335C110.02 76.0674 109.824 77.2012 109.628 78.3351C108.946 82.2796 108.263 86.224 107.581 90.1685C106.8 94.6823 106.019 99.1962 105.238 103.71C104.73 106.647 104.222 109.583 103.714 112.52C103.554 113.449 103.424 114.533 102.198 114.58C101.303 114.614 101.299 116.011 102.198 115.977C103.526 115.927 104.649 115.046 104.916 113.722C104.956 113.526 104.985 113.327 105.019 113.13C105.208 112.038 105.396 110.946 105.585 109.854C106.278 105.85 106.971 101.845 107.664 97.8411C108.454 93.2729 109.244 88.7047 110.034 84.1365C110.547 81.1754 111.059 78.2142 111.571 75.2531C111.61 75.0281 111.652 74.8034 111.688 74.5779C111.863 73.4795 111.522 72.4141 110.604 71.7405C109.85 71.1876 109.027 71.2111 108.161 71.2111C105.609 71.2111 103.057 71.2111 100.504 71.2111C96.2496 71.2111 91.9947 71.2111 87.7399 71.2111C83.0073 71.2111 78.2748 71.2111 73.5422 71.2111C69.5094 71.2111 65.4766 71.2111 61.4438 71.2111C59.2995 71.2111 57.1552 71.2111 55.0109 71.2111C53.5786 71.2111 52.3035 71.9848 52.0014 73.473C51.8694 74.1229 51.7748 74.7827 51.6618 75.4361C51.0509 78.967 50.4401 82.4979 49.8293 86.0289C49.0284 90.6584 48.2275 95.288 47.4266 99.9175C46.8128 103.466 46.1989 107.014 45.585 110.563C45.4665 111.248 45.3377 111.933 45.2293 112.62C44.9392 114.457 46.2288 115.962 48.0793 115.977C50.038 115.994 51.9974 115.977 53.9561 115.977C57.8913 115.977 61.8265 115.977 65.7618 115.977C70.5027 115.977 75.2436 115.977 79.9845 115.977C84.2969 115.977 88.6093 115.977 92.9217 115.977C95.6381 115.977 98.3544 115.977 101.071 115.977C101.447 115.977 101.822 115.977 102.198 115.977C103.096 115.977 103.098 114.58 102.198 114.58Z" fill="#FF9180"></path><path d="M101.03 111.906H49.6852C49.4481 111.906 49.2682 111.692 49.3087 111.458L55.5122 75.5986C55.5439 75.4152 55.7028 75.2812 55.8887 75.2812H107.234C107.471 75.2812 107.651 75.4953 107.61 75.7292L101.407 111.589C101.375 111.773 101.216 111.906 101.03 111.906Z" fill="#FFD483"></path><path d="M58.6289 79.4884C58.6607 79.305 58.8196 79.1711 59.0054 79.1711H107.015L107.61 75.7293C107.651 75.4953 107.471 75.2812 107.234 75.2812H55.8888C55.703 75.2812 55.5441 75.4152 55.5123 75.5986L49.3088 111.458C49.2683 111.692 49.4482 111.906 49.6853 111.906H53.0208L58.6289 79.4884Z" fill="#FFC17F"></path><path d="M59.3016 79.6744C59.1045 80.2175 58.8779 79.8058 59.0882 79.8701C59.1585 79.8915 59.2695 79.8701 59.3425 79.8701C59.6575 79.8701 59.9726 79.8701 60.2876 79.8701C61.4508 79.8701 62.6141 79.8701 63.7773 79.8701C67.5977 79.8701 71.418 79.8701 75.2384 79.8701C79.8609 79.8701 84.4835 79.8701 89.1061 79.8701C93.1034 79.8701 97.1007 79.8701 101.098 79.8701C103.036 79.8701 104.995 79.9518 106.932 79.8701C106.959 79.8689 106.987 79.8701 107.015 79.8701C107.296 79.8701 107.636 79.655 107.688 79.3571C107.84 78.4738 107.993 77.5906 108.146 76.7074C108.201 76.3897 108.294 76.0533 108.308 75.7295C108.335 75.0877 107.845 74.623 107.226 74.5827C106.765 74.5526 106.291 74.5827 105.829 74.5827C102.949 74.5827 100.069 74.5827 97.1896 74.5827C92.7922 74.5827 88.3948 74.5827 83.9974 74.5827C79.3779 74.5827 74.7584 74.5827 70.1389 74.5827C66.6033 74.5827 63.0677 74.5827 59.5322 74.5827C58.5585 74.5827 57.5848 74.5827 56.6111 74.5827C55.8931 74.5827 55.0755 74.5159 54.8368 75.4279C54.67 76.0655 54.608 76.7508 54.4957 77.3995C54.2323 78.9224 53.9688 80.4453 53.7054 81.9683C52.9438 86.3706 52.1822 90.7729 51.4207 95.1752C50.7168 99.2437 50.013 103.312 49.3092 107.381C49.1176 108.488 48.926 109.596 48.7344 110.704C48.7022 110.89 48.6633 111.076 48.6376 111.263C48.5526 111.882 48.8549 112.458 49.4997 112.58C49.8176 112.641 50.1622 112.605 50.4833 112.605C51.3291 112.605 52.1749 112.605 53.0207 112.605C53.302 112.605 53.642 112.39 53.6935 112.092C54.3288 108.42 54.964 104.748 55.5993 101.076C56.603 95.2738 57.6068 89.4715 58.6106 83.6691C58.8409 82.3375 59.0713 81.006 59.3016 79.6744C59.4538 78.7948 58.1092 78.417 57.956 79.3029C57.3207 82.975 56.6855 86.647 56.0503 90.3191C55.0465 96.1215 54.0427 101.924 53.039 107.726C52.8086 109.058 52.5782 110.389 52.3479 111.721C52.5722 111.55 52.7964 111.379 53.0207 111.208C52.1749 111.208 51.3291 111.208 50.4834 111.208C50.2984 111.208 50.095 111.184 49.9116 111.208C49.877 111.212 49.7714 111.185 49.7462 111.208C49.6744 111.272 49.9616 111.649 49.9818 111.642C49.994 111.639 49.9987 111.526 50.004 111.514C50.11 111.274 50.1079 110.914 50.1524 110.657C50.2407 110.146 50.3291 109.635 50.4174 109.125C51.0473 105.484 51.6771 101.843 52.307 98.2019C53.0714 93.7833 53.8358 89.3646 54.6002 84.946C55.0938 82.0927 55.5874 79.2393 56.081 76.386C56.0981 76.2872 56.2327 75.8953 56.182 75.8021C56.1762 75.7914 55.8398 75.931 55.9139 75.9802C55.9445 76.0006 56.0417 75.9762 56.0778 75.9802C56.7338 76.0544 57.4421 75.9802 58.1013 75.9802C61.1619 75.9802 64.2225 75.9802 67.2831 75.9802C71.636 75.9802 75.9889 75.9802 80.3419 75.9802C84.7996 75.9802 89.2573 75.9802 93.715 75.9802C97.09 75.9802 100.465 75.9802 103.84 75.9802C104.75 75.9802 105.66 75.9802 106.571 75.9802C106.704 75.9802 107.035 76.0439 107.156 75.9802C107.343 75.8815 106.939 75.5482 106.936 75.5487C106.871 75.5648 106.778 76.4625 106.765 76.5397C106.624 77.355 106.483 78.1702 106.342 78.9855C106.566 78.8145 106.79 78.6435 107.015 78.4725C105.375 78.4725 103.736 78.4725 102.096 78.4725C98.1952 78.4725 94.2944 78.4725 90.3937 78.4725C85.6944 78.4725 80.9951 78.4725 76.2958 78.4725C72.3224 78.4725 68.349 78.4725 64.3756 78.4725C62.6022 78.4725 60.7897 78.363 59.0187 78.4725C58.4777 78.506 58.1372 78.8038 57.956 79.3029C57.6487 80.1495 58.9967 80.5144 59.3016 79.6744Z" fill="#FFC17F"></path><path d="M101.03 111.208C99.7624 111.208 98.4946 111.208 97.2268 111.208C94.0574 111.208 90.888 111.208 87.7186 111.208C83.5983 111.208 79.478 111.208 75.3577 111.208C71.2375 111.208 67.1172 111.208 62.9969 111.208C59.8275 111.208 56.6581 111.208 53.4886 111.208C52.5606 111.208 51.6325 111.208 50.7045 111.208C50.4537 111.208 50.203 111.208 49.9523 111.208C49.9073 111.208 49.7923 111.186 49.753 111.208C49.5752 111.307 50.0124 111.635 49.9817 111.644C50.0866 111.613 50.2065 110.345 50.2258 110.233C50.4394 108.998 50.6531 107.763 50.8668 106.528C51.523 102.734 52.1793 98.9405 52.8356 95.1469C53.5286 91.141 54.2215 87.1352 54.9145 83.1293C55.3197 80.7872 55.7249 78.4452 56.13 76.1031C56.1394 76.0489 56.1904 75.9123 56.1721 75.8598C56.0992 75.6506 56.0336 76.1418 55.8897 75.9803C55.9151 76.0088 56.1398 75.9803 56.1749 75.9803C56.8341 75.9803 57.4933 75.9803 58.1525 75.9803C60.9526 75.9803 63.7527 75.9803 66.5527 75.9803C70.5317 75.9803 74.5105 75.9803 78.4895 75.9803C82.6964 75.9803 86.9033 75.9803 91.1103 75.9803C94.5944 75.9803 98.0786 75.9803 101.563 75.9803C103.373 75.9803 105.184 75.9803 106.994 75.9803C107.029 75.9803 107.151 76.0007 107.18 75.9803C107.317 75.8821 106.906 75.5557 106.937 75.5457C106.904 75.5564 106.871 75.9295 106.865 75.9652C106.71 76.8603 106.555 77.7554 106.4 78.6505C105.801 82.1143 105.202 85.5782 104.602 89.0421C103.889 93.168 103.175 97.294 102.461 101.42C101.957 104.332 101.453 107.244 100.95 110.156C100.896 110.466 100.843 110.776 100.789 111.085C100.778 111.151 100.738 111.256 100.748 111.323C100.774 111.5 100.57 111.282 100.845 111.233C99.9622 111.391 100.336 112.738 101.216 112.581C102.137 112.415 102.139 111.429 102.265 110.704C102.465 109.545 102.666 108.386 102.866 107.228C103.522 103.435 104.179 99.6416 104.835 95.8486C105.544 91.7477 106.254 87.6467 106.963 83.5458C107.383 81.1166 107.804 78.6874 108.224 76.2582C108.253 76.087 108.3 75.9036 108.308 75.7296C108.339 75.0209 107.775 74.6069 107.128 74.5828C106.581 74.5624 106.028 74.5828 105.481 74.5828C102.78 74.5828 100.079 74.5828 97.3779 74.5828C93.3793 74.5828 89.3807 74.5828 85.382 74.5828C81.0891 74.5828 76.7961 74.5828 72.5032 74.5828C68.9065 74.5828 65.3097 74.5828 61.713 74.5828C59.8544 74.5828 57.9959 74.5828 56.1373 74.5828C55.4619 74.5828 54.9409 74.9221 54.8049 75.6128C54.6494 76.4029 54.53 77.2021 54.3927 77.9956C53.8017 81.4122 53.2106 84.8288 52.6196 88.2454C51.8915 92.4539 51.1635 96.6624 50.4355 100.871C49.9129 103.891 49.3904 106.912 48.8678 109.933C48.7794 110.444 48.6106 111.004 48.6115 111.527C48.6133 112.619 49.6286 112.606 50.3925 112.606C52.6235 112.606 54.8546 112.606 57.0857 112.606C60.8597 112.606 64.6337 112.606 68.4078 112.606C72.7214 112.606 77.0351 112.606 81.3488 112.606C85.1987 112.606 89.0485 112.606 92.8984 112.606C95.281 112.606 97.6637 112.606 100.046 112.606C100.374 112.606 100.702 112.606 101.03 112.606C101.928 112.606 101.93 111.208 101.03 111.208Z" fill="#025749"></path><path d="M103.243 119.263H22.0194V115.278H104.676V117.828C104.676 118.621 104.035 119.263 103.243 119.263Z" fill="#FF765C"></path><path d="M103.244 118.564C102.517 118.564 101.791 118.564 101.065 118.564C99.1005 118.564 97.1364 118.564 95.1722 118.564C92.2538 118.564 89.3354 118.564 86.4169 118.564C82.8734 118.564 79.3299 118.564 75.7863 118.564C71.8857 118.564 67.9851 118.564 64.0845 118.564C60.1468 118.564 56.2091 118.564 52.2714 118.564C48.6174 118.564 44.9634 118.564 41.3094 118.564C38.2059 118.564 35.1025 118.564 31.9991 118.564C29.7773 118.564 27.5555 118.564 25.3337 118.564C24.2915 118.564 23.1948 118.466 22.156 118.564C22.1114 118.569 22.0644 118.564 22.0195 118.564C22.2521 118.797 22.4847 119.03 22.7173 119.263C22.7173 117.935 22.7173 116.607 22.7173 115.278C22.4847 115.511 22.2521 115.744 22.0195 115.977C22.7538 115.977 23.488 115.977 24.2222 115.977C26.233 115.977 28.2438 115.977 30.2546 115.977C33.2153 115.977 36.176 115.977 39.1367 115.977C42.748 115.977 46.3593 115.977 49.9705 115.977C53.9456 115.977 57.9207 115.977 61.8957 115.977C65.8892 115.977 69.8826 115.977 73.876 115.977C77.6001 115.977 81.3241 115.977 85.0482 115.977C88.1968 115.977 91.3453 115.977 94.4939 115.977C96.769 115.977 99.0441 115.977 101.319 115.977C102.375 115.977 103.484 116.074 104.537 115.977C104.583 115.973 104.63 115.977 104.676 115.977C104.444 115.744 104.211 115.511 103.979 115.278C103.979 115.873 103.979 116.467 103.979 117.062C103.979 117.663 104.086 118.519 103.244 118.564C102.35 118.613 102.345 120.01 103.244 119.962C104.574 119.89 105.366 118.893 105.374 117.606C105.379 116.83 105.374 116.054 105.374 115.278C105.374 114.901 105.054 114.58 104.676 114.58C103.942 114.58 103.208 114.58 102.474 114.58C100.463 114.58 98.4521 114.58 96.4413 114.58C93.4806 114.58 90.5199 114.58 87.5592 114.58C83.9479 114.58 80.3367 114.58 76.7254 114.58C72.7503 114.58 68.7753 114.58 64.8002 114.58C60.8068 114.58 56.8133 114.58 52.8199 114.58C49.0959 114.58 45.3718 114.58 41.6477 114.58C38.4992 114.58 35.3506 114.58 32.2021 114.58C29.927 114.58 27.6518 114.58 25.3767 114.58C24.3057 114.58 23.2296 114.549 22.1589 114.58C22.1125 114.581 22.0659 114.58 22.0195 114.58C21.6423 114.58 21.3218 114.9 21.3218 115.278C21.3218 116.607 21.3218 117.935 21.3218 119.263C21.3218 119.641 21.6415 119.962 22.0195 119.962C22.7459 119.962 23.4722 119.962 24.1985 119.962C26.1626 119.962 28.1268 119.962 30.0909 119.962C33.0093 119.962 35.9278 119.962 38.8462 119.962C42.3897 119.962 45.9333 119.962 49.4768 119.962C53.3774 119.962 57.278 119.962 61.1786 119.962C65.1163 119.962 69.054 119.962 72.9917 119.962C76.6457 119.962 80.2997 119.962 83.9538 119.962C87.0572 119.962 90.1606 119.962 93.264 119.962C95.4858 119.962 97.7076 119.962 99.9294 119.962C100.987 119.962 102.05 119.993 103.107 119.962C103.153 119.961 103.198 119.962 103.244 119.962C104.142 119.962 104.143 118.564 103.244 118.564Z" fill="#FF765C"></path><path d="M53.4424 119.263H3.91408C3.25108 119.263 2.71362 118.725 2.71362 118.061V115.278H54.8752V117.828C54.8752 118.621 54.2337 119.263 53.4424 119.263Z" fill="#FF9180"></path><path d="M53.4424 118.564C51.5945 118.564 49.7466 118.564 47.8987 118.564C43.5459 118.564 39.1931 118.564 34.8402 118.564C29.7507 118.564 24.6611 118.564 19.5716 118.564C15.5754 118.564 11.5792 118.564 7.58295 118.564C6.54598 118.564 5.50902 118.564 4.47205 118.564C4.29512 118.564 4.10819 118.582 3.93182 118.564C3.12492 118.485 3.41141 117.049 3.41141 116.496C3.41141 116.09 3.41141 115.684 3.41141 115.278C3.17883 115.511 2.94625 115.744 2.71367 115.977C4.44573 115.977 6.1778 115.977 7.90987 115.977C12.0683 115.977 16.2268 115.977 20.3853 115.977C25.395 115.977 30.4046 115.977 35.4143 115.977C39.7618 115.977 44.1093 115.977 48.4568 115.977C49.8848 115.977 51.3128 115.977 52.7408 115.977C53.4016 115.977 54.1317 116.066 54.7882 115.977C54.8161 115.973 54.847 115.977 54.8752 115.977C54.6427 115.744 54.4101 115.511 54.1775 115.278C54.1775 115.873 54.1775 116.467 54.1775 117.062C54.1775 117.663 54.2844 118.519 53.4424 118.564C52.5492 118.613 52.5435 120.01 53.4424 119.962C54.7729 119.89 55.5649 118.893 55.573 117.606C55.5779 116.83 55.573 116.054 55.573 115.278C55.573 114.901 55.2533 114.58 54.8752 114.58C53.1432 114.58 51.4111 114.58 49.679 114.58C45.5206 114.58 41.3621 114.58 37.2036 114.58C32.1939 114.58 27.1843 114.58 22.1746 114.58C17.8271 114.58 13.4796 114.58 9.13212 114.58C7.02816 114.58 4.90342 114.493 2.80071 114.58C2.77181 114.581 2.74262 114.58 2.71367 114.58C2.33648 114.58 2.01593 114.9 2.01593 115.278C2.01593 116.195 1.98009 117.12 2.01593 118.036C2.05944 119.148 2.87158 119.928 3.97478 119.962C4.67314 119.984 5.37567 119.962 6.07425 119.962C9.73814 119.962 13.402 119.962 17.0659 119.962C22.1727 119.962 27.2795 119.962 32.3863 119.962C37.0469 119.962 41.7076 119.962 46.3683 119.962C48.6862 119.962 51.0224 120.048 53.3391 119.962C53.3735 119.961 53.4081 119.962 53.4424 119.962C54.3404 119.962 54.3419 118.564 53.4424 118.564Z" fill="#FF9180"></path><path d="M3.68291 17.4356C4.58084 17.4356 4.58232 16.0386 3.68291 16.0386C2.78499 16.0386 2.7835 17.4356 3.68291 17.4356Z" fill="white"></path><path d="M9.11565 17.4356C10.0136 17.4356 10.0151 16.0386 9.11565 16.0386C8.21773 16.0386 8.21624 17.4356 9.11565 17.4356Z" fill="white"></path><path d="M14.5488 17.4356C15.4467 17.4356 15.4482 16.0386 14.5488 16.0386C13.6508 16.0386 13.6493 17.4356 14.5488 17.4356Z" fill="white"></path><path d="M74.5604 118.096C75.8636 118.096 77.1669 118.096 78.4701 118.096C78.6545 118.096 78.8388 118.096 79.0231 118.096C79.3881 118.096 79.7377 117.774 79.7208 117.397C79.7039 117.019 79.4142 116.699 79.0231 116.699C77.7198 116.699 76.4166 116.699 75.1133 116.699C74.929 116.699 74.7447 116.699 74.5604 116.699C74.1954 116.699 73.8458 117.02 73.8626 117.397C73.8796 117.776 74.1692 118.096 74.5604 118.096Z" fill="#025749"></path><path d="M84.7974 118.096C86.1007 118.096 87.4039 118.096 88.7072 118.096C88.8915 118.096 89.0758 118.096 89.2601 118.096C89.6251 118.096 89.9748 117.774 89.9579 117.397C89.941 117.019 89.6513 116.699 89.2601 116.699C87.9569 116.699 86.6536 116.699 85.3504 116.699C85.1661 116.699 84.9818 116.699 84.7974 116.699C84.4325 116.699 84.0828 117.02 84.0997 117.397C84.1166 117.776 84.4063 118.096 84.7974 118.096Z" fill="#025749"></path><path d="M117.265 0.739258H54.5042V50.4673H117.265V0.739258Z" fill="#C1E2EC"></path><path d="M117.265 49.7684C115.187 49.7684 113.11 49.7684 111.032 49.7684C106.042 49.7684 101.052 49.7684 96.0618 49.7684C90.0033 49.7684 83.9447 49.7684 77.8862 49.7684C72.6657 49.7684 67.4452 49.7684 62.2247 49.7684C60.5041 49.7684 58.7834 49.7684 57.0628 49.7684C56.2653 49.7684 55.4053 49.6763 54.6116 49.7684C54.5768 49.7724 54.5394 49.7684 54.5042 49.7684C54.7368 50.0013 54.9693 50.2342 55.2019 50.4671C55.2019 48.8219 55.2019 47.1767 55.2019 45.5315C55.2019 41.5792 55.2019 37.627 55.2019 33.6748C55.2019 28.8717 55.2019 24.0687 55.2019 19.2657C55.2019 15.1302 55.2019 10.9947 55.2019 6.85918C55.2019 5.49576 55.2019 4.13234 55.2019 2.76891C55.2019 2.14368 55.2894 1.44588 55.2019 0.825024C55.1981 0.797553 55.2019 0.767016 55.2019 0.739112C54.9693 0.972035 54.7368 1.20496 54.5042 1.43788C56.5816 1.43788 58.6591 1.43788 60.7365 1.43788C65.7267 1.43788 70.7169 1.43788 75.7071 1.43788C81.7656 1.43788 87.8241 1.43788 93.8826 1.43788C99.1031 1.43788 104.324 1.43788 109.544 1.43788C111.265 1.43788 112.985 1.43788 114.706 1.43788C115.504 1.43788 116.364 1.52998 117.157 1.43788C117.192 1.43384 117.229 1.43788 117.265 1.43788C117.032 1.20496 116.799 0.972035 116.567 0.739112C116.567 2.38432 116.567 4.02953 116.567 5.67475C116.567 9.62699 116.567 13.5792 116.567 17.5315C116.567 22.3345 116.567 27.1375 116.567 31.9405C116.567 36.076 116.567 40.2115 116.567 44.3471C116.567 46.3519 116.482 48.3776 116.567 50.3812C116.568 50.4097 116.567 50.4386 116.567 50.4671C116.567 51.3664 117.962 51.3679 117.962 50.4671C117.962 48.8219 117.962 47.1767 117.962 45.5315C117.962 41.5792 117.962 37.627 117.962 33.6748C117.962 28.8717 117.962 24.0687 117.962 19.2657C117.962 15.1302 117.962 10.9947 117.962 6.85918C117.962 4.85434 118.047 2.82862 117.962 0.825024C117.961 0.796495 117.962 0.767682 117.962 0.739112C117.962 0.361371 117.643 0.0403423 117.265 0.0403423C115.187 0.0403423 113.11 0.0403423 111.032 0.0403423C106.042 0.0403423 101.052 0.0403423 96.0618 0.0403423C90.0033 0.0403423 83.9447 0.0403423 77.8862 0.0403423C72.6657 0.0403423 67.4452 0.0403423 62.2247 0.0403423C59.6929 0.0403423 57.1423 -0.0504279 54.6116 0.0403423C54.5759 0.0416234 54.5399 0.0403423 54.5042 0.0403423C54.127 0.0403423 53.8064 0.360495 53.8064 0.739112C53.8064 2.38432 53.8064 4.02953 53.8064 5.67475C53.8064 9.62699 53.8064 13.5792 53.8064 17.5315C53.8064 22.3345 53.8064 27.1375 53.8064 31.9405C53.8064 36.076 53.8064 40.2115 53.8064 44.3471C53.8064 46.3519 53.7217 48.3776 53.8064 50.3812C53.8076 50.4097 53.8064 50.4386 53.8064 50.4671C53.8064 50.8449 54.1261 51.1659 54.5042 51.1659C56.5816 51.1659 58.6591 51.1659 60.7365 51.1659C65.7267 51.1659 70.7169 51.1659 75.7071 51.1659C81.7656 51.1659 87.8241 51.1659 93.8826 51.1659C99.1031 51.1659 104.324 51.1659 109.544 51.1659C112.076 51.1659 114.627 51.2567 117.157 51.1659C117.193 51.1646 117.229 51.1659 117.265 51.1659C118.163 51.1659 118.164 49.7684 117.265 49.7684Z" fill="#C1E2EC"></path><path d="M117.265 49.7687C115.187 49.7687 113.11 49.7687 111.033 49.7687C106.042 49.7687 101.052 49.7687 96.062 49.7687C90.0035 49.7687 83.945 49.7687 77.8865 49.7687C72.666 49.7687 67.4455 49.7687 62.225 49.7687C60.5043 49.7687 58.7837 49.7687 57.063 49.7687C56.2655 49.7687 55.4056 49.6766 54.6119 49.7687C54.5771 49.7727 54.5396 49.7687 54.5044 49.7687C54.737 50.0016 54.9696 50.2345 55.2022 50.4675C55.2022 48.8223 55.2022 47.177 55.2022 45.5318C55.2022 41.5796 55.2022 37.6273 55.2022 33.6751C55.2022 28.8721 55.2022 24.0691 55.2022 19.266C55.2022 15.1305 55.2022 10.995 55.2022 6.85952C55.2022 4.85468 55.2869 2.82895 55.2022 0.82536C55.201 0.796832 55.2022 0.768019 55.2022 0.739449C55.2022 -0.159802 53.8067 -0.161288 53.8067 0.739449C53.8067 2.38466 53.8067 4.02987 53.8067 5.67508C53.8067 9.62733 53.8067 13.5796 53.8067 17.5318C53.8067 22.3348 53.8067 27.1378 53.8067 31.9409C53.8067 36.0764 53.8067 40.2119 53.8067 44.3474C53.8067 46.3522 53.722 48.378 53.8067 50.3815C53.8079 50.4101 53.8067 50.4389 53.8067 50.4675C53.8067 50.8452 54.1264 51.1662 54.5044 51.1662C56.5819 51.1662 58.6593 51.1662 60.7368 51.1662C65.7269 51.1662 70.7171 51.1662 75.7073 51.1662C81.7658 51.1662 87.8243 51.1662 93.8829 51.1662C99.1034 51.1662 104.324 51.1662 109.544 51.1662C112.076 51.1662 114.627 51.257 117.157 51.1662C117.193 51.1649 117.229 51.1662 117.265 51.1662C118.163 51.1662 118.164 49.7687 117.265 49.7687Z" fill="#ACD3E1"></path><path d="M72.0304 17.8983C75.251 17.8983 77.8618 15.2836 77.8618 12.0583C77.8618 8.83293 75.251 6.21826 72.0304 6.21826C68.8098 6.21826 66.199 8.83293 66.199 12.0583C66.199 15.2836 68.8098 17.8983 72.0304 17.8983Z" fill="#ACD3E1"></path><path d="M72.0304 12.6548C69.9976 12.6548 68.2087 13.697 67.1649 15.2764C68.2087 16.8557 69.9976 17.898 72.0304 17.898C74.0631 17.898 75.8521 16.8557 76.8958 15.2764C75.8521 13.697 74.0631 12.6548 72.0304 12.6548Z" fill="white"></path><path d="M72.0304 11.5876C73.0183 11.5876 73.8191 10.7856 73.8191 9.79624C73.8191 8.8069 73.0183 8.00488 72.0304 8.00488C71.0425 8.00488 70.2417 8.8069 70.2417 9.79624C70.2417 10.7856 71.0425 11.5876 72.0304 11.5876Z" fill="white"></path><path d="M77.164 12.0582C77.1348 14.1905 75.8203 16.1642 73.7904 16.8909C71.7418 17.6243 69.422 16.9886 68.0421 15.3009C66.6903 13.6476 66.5327 11.2475 67.6235 9.41946C68.7064 7.6045 70.8789 6.59989 72.962 6.99908C75.3937 7.46504 77.1302 9.59294 77.164 12.0582C77.1763 12.9568 78.5718 12.9593 78.5595 12.0582C78.5221 9.33398 76.855 6.90363 74.3066 5.93153C71.7581 4.95945 68.7306 5.77112 67.0074 7.88643C65.2826 10.0038 65.0089 13.0399 66.4185 15.4023C67.8239 17.7578 70.574 18.9622 73.2552 18.479C76.3261 17.9256 78.5173 15.1364 78.5595 12.0582C78.5718 11.1586 77.1763 11.1582 77.164 12.0582Z" fill="#ACD3E1"></path><path d="M85.9777 24.5183H62.7436C62.4259 24.5183 62.1683 24.2604 62.1683 23.9422V22.0771C62.1683 21.7589 62.4259 21.501 62.7436 21.501H85.9777C86.2954 21.501 86.553 21.7589 86.553 22.0771V23.9422C86.553 24.2604 86.2954 24.5183 85.9777 24.5183Z" fill="#ACD3E1"></path><path d="M85.9778 23.8198C82.9513 23.8198 79.9248 23.8198 76.8982 23.8198C72.631 23.8198 68.3637 23.8198 64.0965 23.8198C63.75 23.8198 63.1842 23.7078 62.8523 23.8198C62.8273 23.8282 62.7784 23.8061 62.756 23.8198C62.8196 23.7811 62.8008 23.9753 62.8662 23.8683C62.9416 23.7449 62.8662 23.3188 62.8662 23.177C62.8662 22.9007 62.8662 22.6244 62.8662 22.3481C62.8662 21.952 62.8876 22.2552 62.7445 22.2C62.7612 22.2065 62.7902 22.1908 62.8052 22.2C62.8769 22.2439 63.1184 22.2 63.2009 22.2C63.781 22.2 64.3611 22.2 64.9412 22.2C69.4118 22.2 73.8824 22.2 78.3529 22.2C80.2992 22.2 82.2455 22.2 84.1917 22.2C84.6978 22.2 85.2039 22.2 85.7101 22.2C85.783 22.2 85.9007 22.2233 85.9709 22.2C85.8349 22.2452 85.918 21.9863 85.8554 22.2053C85.7952 22.4156 85.8554 22.737 85.8554 22.954C85.8554 23.2179 85.8441 23.4848 85.8554 23.7485C85.8575 23.7995 85.8694 23.872 85.8554 23.9212C85.8601 23.9047 86.0114 23.8153 85.7923 23.8448C85.416 23.8954 85.2184 24.3751 85.305 24.7043C85.4116 25.1094 85.7916 25.2424 86.1633 25.1924C87.5342 25.0079 87.304 23.1171 87.2508 22.1112C87.2021 21.1887 86.5001 20.8025 85.6818 20.8025C84.1723 20.8025 82.6627 20.8025 81.1532 20.8025C76.256 20.8025 71.3588 20.8025 66.4616 20.8025C65.2447 20.8025 64.0081 20.7383 62.7924 20.8025C62.2651 20.8303 61.8048 21.0715 61.5865 21.5715C61.3795 22.0457 61.4707 22.6717 61.4707 23.177C61.4707 23.7511 61.3924 24.4011 61.8436 24.844C62.1157 25.1111 62.4677 25.2027 62.8351 25.2174C64.1284 25.2691 65.4346 25.2174 66.7286 25.2174C69.1565 25.2174 71.5844 25.2174 74.0123 25.2174C77.9272 25.2174 81.848 25.2812 85.7625 25.2174C85.8342 25.2162 85.9061 25.2174 85.9778 25.2174C86.8758 25.2173 86.8773 23.8198 85.9778 23.8198Z" fill="#ACD3E1"></path><path d="M109.601 28.6145C108.028 28.6145 106.455 28.6145 104.881 28.6145C101.104 28.6145 97.3266 28.6145 93.5492 28.6145C88.9798 28.6145 84.4104 28.6145 79.841 28.6145C75.8921 28.6145 71.9433 28.6145 67.9945 28.6145C66.087 28.6145 64.1586 28.5315 62.2525 28.6145C62.2246 28.6157 62.1963 28.6145 62.1684 28.6145C61.2705 28.6145 61.269 30.0115 62.1684 30.0115C63.7414 30.0115 65.3145 30.0115 66.8876 30.0115C70.665 30.0115 74.4424 30.0115 78.2199 30.0115C82.7892 30.0115 87.3586 30.0115 91.928 30.0115C95.8769 30.0115 99.8257 30.0115 103.775 30.0115C105.682 30.0115 107.61 30.0945 109.517 30.0115C109.544 30.0103 109.573 30.0115 109.601 30.0115C110.499 30.0115 110.5 28.6145 109.601 28.6145Z" fill="white"></path><path d="M109.601 32.5335C108.028 32.5335 106.455 32.5335 104.881 32.5335C101.104 32.5335 97.3266 32.5335 93.5492 32.5335C88.9798 32.5335 84.4104 32.5335 79.841 32.5335C75.8921 32.5335 71.9433 32.5335 67.9945 32.5335C66.087 32.5335 64.1586 32.4505 62.2525 32.5335C62.2246 32.5347 62.1963 32.5335 62.1684 32.5335C61.2705 32.5335 61.269 33.9305 62.1684 33.9305C63.7414 33.9305 65.3145 33.9305 66.8876 33.9305C70.665 33.9305 74.4424 33.9305 78.2199 33.9305C82.7892 33.9305 87.3586 33.9305 91.928 33.9305C95.8769 33.9305 99.8257 33.9305 103.775 33.9305C105.682 33.9305 107.61 34.0135 109.517 33.9305C109.544 33.9293 109.573 33.9305 109.601 33.9305C110.499 33.9305 110.5 32.5335 109.601 32.5335Z" fill="white"></path><path d="M109.601 36.4524C108.028 36.4524 106.455 36.4524 104.881 36.4524C101.104 36.4524 97.3266 36.4524 93.5492 36.4524C88.9798 36.4524 84.4104 36.4524 79.841 36.4524C75.8921 36.4524 71.9433 36.4524 67.9945 36.4524C66.087 36.4524 64.1586 36.3694 62.2525 36.4524C62.2246 36.4536 62.1963 36.4524 62.1684 36.4524C61.2705 36.4524 61.269 37.8494 62.1684 37.8494C63.7414 37.8494 65.3145 37.8494 66.8876 37.8494C70.665 37.8494 74.4424 37.8494 78.2199 37.8494C82.7892 37.8494 87.3586 37.8494 91.928 37.8494C95.8769 37.8494 99.8257 37.8494 103.775 37.8494C105.682 37.8494 107.61 37.9324 109.517 37.8494C109.544 37.8482 109.573 37.8494 109.601 37.8494C110.499 37.8494 110.5 36.4524 109.601 36.4524Z" fill="white"></path><path d="M109.601 40.3709C108.028 40.3709 106.455 40.3709 104.881 40.3709C101.104 40.3709 97.3266 40.3709 93.5492 40.3709C88.9798 40.3709 84.4104 40.3709 79.841 40.3709C75.8921 40.3709 71.9433 40.3709 67.9945 40.3709C66.087 40.3709 64.1586 40.2879 62.2525 40.3709C62.2246 40.3721 62.1963 40.3709 62.1684 40.3709C61.2705 40.3709 61.269 41.7679 62.1684 41.7679C63.7414 41.7679 65.3145 41.7679 66.8876 41.7679C70.665 41.7679 74.4424 41.7679 78.2199 41.7679C82.7892 41.7679 87.3586 41.7679 91.928 41.7679C95.8769 41.7679 99.8257 41.7679 103.775 41.7679C105.682 41.7679 107.61 41.8509 109.517 41.7679C109.544 41.7667 109.573 41.7679 109.601 41.7679C110.499 41.7679 110.5 40.3709 109.601 40.3709Z" fill="white"></path><path d="M102.922 44.2896C101.575 44.2896 100.229 44.2896 98.882 44.2896C95.6283 44.2896 92.3746 44.2896 89.1209 44.2896C85.2027 44.2896 81.2845 44.2896 77.3663 44.2896C73.9776 44.2896 70.589 44.2896 67.2004 44.2896C65.5537 44.2896 63.8873 44.2147 62.2418 44.2896C62.2175 44.2907 62.1928 44.2896 62.1684 44.2896C61.2705 44.2896 61.269 45.6867 62.1684 45.6867C63.5149 45.6867 64.8614 45.6867 66.2079 45.6867C69.4616 45.6867 72.7153 45.6867 75.969 45.6867C79.8872 45.6867 83.8054 45.6867 87.7237 45.6867C91.1123 45.6867 94.5009 45.6867 97.8895 45.6867C99.5362 45.6867 101.203 45.7616 102.848 45.6867C102.872 45.6856 102.897 45.6867 102.922 45.6867C103.819 45.6867 103.821 44.2896 102.922 44.2896Z" fill="white"></path><path d="M68.6181 18.7285H25.2456V81.1233H68.6181V18.7285Z" fill="#A3D2A9"></path><path d="M68.6182 80.4249C67.1761 80.4249 65.7339 80.4249 64.2917 80.4249C60.8485 80.4249 57.4052 80.4249 53.9619 80.4249C49.778 80.4249 45.5941 80.4249 41.4101 80.4249C37.808 80.4249 34.2059 80.4249 30.6038 80.4249C29.4055 80.4249 28.2073 80.4249 27.009 80.4249C26.4687 80.4249 25.8562 80.3436 25.3202 80.4249C25.2965 80.4285 25.2699 80.4249 25.2457 80.4249C25.4783 80.6578 25.7109 80.8907 25.9435 81.1237C25.9435 79.0542 25.9435 76.9847 25.9435 74.9152C25.9435 69.9456 25.9435 64.9761 25.9435 60.0065C25.9435 53.9953 25.9435 47.9842 25.9435 41.973C25.9435 36.7785 25.9435 31.5841 25.9435 26.3896C25.9435 24.6877 25.9435 22.9858 25.9435 21.2839C25.9435 20.4896 26.0428 19.6217 25.9435 18.8317C25.9393 18.7986 25.9435 18.7624 25.9435 18.7288C25.7109 18.9618 25.4783 19.1947 25.2457 19.4276C26.6879 19.4276 28.1301 19.4276 29.5722 19.4276C33.0155 19.4276 36.4588 19.4276 39.9021 19.4276C44.086 19.4276 48.2699 19.4276 52.4538 19.4276C56.0559 19.4276 59.658 19.4276 63.2601 19.4276C64.4584 19.4276 65.6567 19.4276 66.855 19.4276C67.3953 19.4276 68.0078 19.5089 68.5437 19.4276C68.5674 19.424 68.5941 19.4276 68.6182 19.4276C68.3856 19.1947 68.1531 18.9618 67.9205 18.7288C67.9205 20.7983 67.9205 22.8678 67.9205 24.9373C67.9205 29.9069 67.9205 34.8764 67.9205 39.846C67.9205 45.8571 67.9205 51.8683 67.9205 57.8795C67.9205 63.074 67.9205 68.2684 67.9205 73.4629C67.9205 75.9756 67.8254 78.5093 67.9205 81.0208C67.9218 81.055 67.9205 81.0894 67.9205 81.1237C67.9205 82.0229 69.316 82.0244 69.316 81.1237C69.316 79.0542 69.316 76.9847 69.316 74.9152C69.316 69.9456 69.316 64.9761 69.316 60.0065C69.316 53.9953 69.316 47.9842 69.316 41.973C69.316 36.7785 69.316 31.5841 69.316 26.3896C69.316 23.8769 69.411 21.3432 69.316 18.8317C69.3147 18.7975 69.316 18.7631 69.316 18.7288C69.316 18.3511 68.9963 18.0301 68.6182 18.0301C67.1761 18.0301 65.7339 18.0301 64.2917 18.0301C60.8485 18.0301 57.4052 18.0301 53.9619 18.0301C49.778 18.0301 45.5941 18.0301 41.4101 18.0301C37.808 18.0301 34.2059 18.0301 30.6038 18.0301C28.8492 18.0301 27.0736 17.9503 25.3202 18.0301C25.2955 18.0312 25.2705 18.0301 25.2457 18.0301C24.8685 18.0301 24.548 18.3502 24.548 18.7288C24.548 20.7983 24.548 22.8678 24.548 24.9373C24.548 29.9069 24.548 34.8764 24.548 39.846C24.548 45.8571 24.548 51.8683 24.548 57.8795C24.548 63.074 24.548 68.2684 24.548 73.4629C24.548 75.9756 24.4529 78.5093 24.548 81.0208C24.5493 81.055 24.548 81.0894 24.548 81.1237C24.548 81.5014 24.8677 81.8224 25.2457 81.8224C26.6879 81.8224 28.1301 81.8224 29.5722 81.8224C33.0155 81.8224 36.4588 81.8224 39.9021 81.8224C44.086 81.8224 48.2699 81.8224 52.4538 81.8224C56.0559 81.8224 59.658 81.8224 63.2601 81.8224C65.0148 81.8224 66.7904 81.9022 68.5437 81.8224C68.5685 81.8213 68.5934 81.8224 68.6182 81.8224C69.5161 81.8224 69.5176 80.4249 68.6182 80.4249Z" fill="#A3D2A9"></path><path d="M68.618 81.1235V71.9097H54.7204C53.7127 71.9097 52.8511 72.6359 52.6791 73.6303L51.3828 81.1235H68.618V81.1235Z" fill="#7CBF99"></path><path d="M69.3159 81.1236C69.3159 78.0523 69.3159 74.981 69.3159 71.9098C69.3159 71.532 68.9962 71.211 68.6182 71.211C65.2558 71.211 61.8935 71.211 58.5312 71.211C57.2681 71.211 55.9991 71.1746 54.7364 71.211C53.411 71.2492 52.2735 72.1336 52.0048 73.4539C51.8824 74.0549 51.7952 74.6654 51.6907 75.2697C51.3638 77.1591 51.037 79.0484 50.7101 80.9378C50.6339 81.378 50.8946 81.8223 51.3829 81.8223C56.4177 81.8223 61.4526 81.8223 66.4874 81.8223C67.1977 81.8223 67.9079 81.8223 68.6182 81.8223C69.5161 81.8223 69.5176 80.4248 68.6182 80.4248C63.5833 80.4248 58.5485 80.4248 53.5137 80.4248C52.8034 80.4248 52.0932 80.4248 51.3829 80.4248C51.6072 80.7197 51.8315 81.0145 52.0557 81.3093C52.3242 79.7573 52.5927 78.2054 52.8612 76.6534C53.0055 75.8193 53.1498 74.9853 53.2941 74.1512C53.4342 73.3412 53.7946 72.6496 54.7256 72.6085C55.8859 72.5573 57.06 72.6085 58.2211 72.6085C60.3463 72.6085 62.4715 72.6085 64.5967 72.6085C65.9372 72.6085 67.2777 72.6085 68.6182 72.6085C68.3856 72.3756 68.153 72.1427 67.9204 71.9098C67.9204 74.981 67.9204 78.0523 67.9204 81.1236C67.9204 82.0228 69.3159 82.0243 69.3159 81.1236Z" fill="#7CBF99"></path><path d="M68.6183 81.1233V75.2812H55.8889C55.703 75.2812 55.5441 75.4152 55.5124 75.5986L54.5566 81.1233H68.6183Z" fill="#025749"></path><path d="M69.3159 81.1234C69.3159 79.1761 69.3159 77.2287 69.3159 75.2814C69.3159 74.9036 68.9962 74.5826 68.6181 74.5826C65.943 74.5826 63.2679 74.5826 60.5928 74.5826C59.1967 74.5826 57.8006 74.5826 56.4045 74.5826C56.0261 74.5826 55.621 74.5409 55.2905 74.7679C54.7784 75.1196 54.7748 75.7866 54.6789 76.3409C54.4138 77.8732 54.1488 79.4054 53.8837 80.9377C53.8075 81.3779 54.0682 81.8222 54.5565 81.8222C58.664 81.8222 62.7715 81.8222 66.879 81.8222C67.4587 81.8222 68.0384 81.8222 68.6181 81.8222C69.516 81.8222 69.5175 80.4247 68.6181 80.4247C64.5106 80.4247 60.4031 80.4247 56.2956 80.4247C55.7159 80.4247 55.1362 80.4247 54.5565 80.4247C54.7808 80.7195 55.005 81.0144 55.2293 81.3092C55.4554 80.0021 55.6816 78.6949 55.9077 77.3878C55.9653 77.0546 56.0229 76.7215 56.0806 76.3884C56.0965 76.2961 56.2268 75.8984 56.1803 75.8117C56.2035 75.8549 55.7408 75.9085 55.9756 75.9801C56.0917 76.0155 56.2847 75.9801 56.4045 75.9801C59.477 75.9801 62.5496 75.9801 65.6221 75.9801C66.6208 75.9801 67.6195 75.9801 68.6181 75.9801C68.3855 75.7472 68.153 75.5143 67.9204 75.2814C67.9204 77.2287 67.9204 79.1761 67.9204 81.1234C67.9204 82.0227 69.3159 82.0242 69.3159 81.1234Z" fill="#025749"></path><path d="M68.6186 80.4248C67.1764 80.4248 65.7343 80.4248 64.2921 80.4248C60.8488 80.4248 57.4055 80.4248 53.9623 80.4248C49.7784 80.4248 45.5944 80.4248 41.4105 80.4248C37.8084 80.4248 34.2063 80.4248 30.6042 80.4248C29.4059 80.4248 28.2076 80.4248 27.0094 80.4248C26.469 80.4248 25.8565 80.3435 25.3206 80.4248C25.2969 80.4284 25.2703 80.4248 25.2461 80.4248C25.4787 80.6577 25.7113 80.8906 25.9438 81.1235C25.9438 79.054 25.9438 76.9845 25.9438 74.9151C25.9438 69.9455 25.9438 64.976 25.9438 60.0064C25.9438 53.9952 25.9438 47.984 25.9438 41.9728C25.9438 36.7784 25.9438 31.5839 25.9438 26.3895C25.9438 23.8768 26.0389 21.3431 25.9438 18.8316C25.9425 18.7974 25.9438 18.7629 25.9438 18.7287C25.9438 17.8295 24.5484 17.828 24.5484 18.7287C24.5484 20.7982 24.5484 22.8677 24.5484 24.9372C24.5484 29.9067 24.5484 34.8763 24.5484 39.8458C24.5484 45.857 24.5484 51.8682 24.5484 57.8794C24.5484 63.0739 24.5484 68.2683 24.5484 73.4627C24.5484 75.9755 24.4533 78.5092 24.5484 81.0206C24.5496 81.0548 24.5484 81.0893 24.5484 81.1235C24.5484 81.5013 24.868 81.8223 25.2461 81.8223C26.6883 81.8223 28.1304 81.8223 29.5726 81.8223C33.0159 81.8223 36.4591 81.8223 39.9024 81.8223C44.0863 81.8223 48.2703 81.8223 52.4542 81.8223C56.0563 81.8223 59.6584 81.8223 63.2605 81.8223C65.0151 81.8223 66.7907 81.9021 68.5441 81.8223C68.5688 81.8212 68.5938 81.8223 68.6186 81.8223C69.5165 81.8223 69.518 80.4248 68.6186 80.4248Z" fill="#7CBF99"></path><path d="M46.9323 40.2582C50.9732 40.2582 54.2491 36.9775 54.2491 32.9306C54.2491 28.8837 50.9732 25.603 46.9323 25.603C42.8913 25.603 39.6155 28.8837 39.6155 32.9306C39.6155 36.9775 42.8913 40.2582 46.9323 40.2582Z" fill="#7CBF99"></path><path d="M53.5513 32.9309C53.5215 35.6589 51.8303 38.2135 49.2353 39.15C46.602 40.1004 43.647 39.3129 41.8406 37.1708C40.0529 35.0508 39.8325 31.9146 41.2428 29.5413C42.647 27.1785 45.4777 25.8791 48.1827 26.4182C51.2882 27.0371 53.5168 29.7719 53.5513 32.9309C53.5612 33.8297 54.9567 33.832 54.9468 32.9309C54.9101 29.5705 52.827 26.569 49.6787 25.3914C46.5521 24.2218 42.8636 25.2337 40.7568 27.82C38.6445 30.413 38.3194 34.1342 40.0379 37.0259C41.7639 39.9303 45.1724 41.427 48.476 40.8059C52.2205 40.1019 54.9056 36.7007 54.9468 32.9309C54.9567 32.0314 53.5612 32.0307 53.5513 32.9309Z" fill="#7CBF99"></path><path d="M46.9321 33.6797C44.3815 33.6797 42.1369 34.9874 40.8273 36.9691C42.1369 38.9507 44.3815 40.2584 46.9321 40.2584C49.4826 40.2584 51.7272 38.9507 53.0368 36.9691C51.7272 34.9874 49.4826 33.6797 46.9321 33.6797Z" fill="white"></path><path d="M46.9322 32.3395C48.1717 32.3395 49.1765 31.3332 49.1765 30.0919C49.1765 28.8505 48.1717 27.8442 46.9322 27.8442C45.6927 27.8442 44.6879 28.8505 44.6879 30.0919C44.6879 31.3332 45.6927 32.3395 46.9322 32.3395Z" fill="white"></path><path d="M53.5513 32.9309C53.5215 35.6589 51.8303 38.2135 49.2353 39.15C46.602 40.1004 43.647 39.3129 41.8406 37.1708C40.0529 35.0508 39.8325 31.9146 41.2428 29.5413C42.647 27.1785 45.4777 25.8791 48.1827 26.4182C51.2882 27.0371 53.5168 29.7719 53.5513 32.9309C53.5612 33.8297 54.9567 33.832 54.9468 32.9309C54.9101 29.5705 52.827 26.569 49.6787 25.3914C46.5521 24.2218 42.8636 25.2337 40.7568 27.82C38.6445 30.413 38.3194 34.1342 40.0379 37.0259C41.7639 39.9303 45.1724 41.427 48.476 40.8059C52.2205 40.1019 54.9056 36.7007 54.9468 32.9309C54.9567 32.0314 53.5612 32.0307 53.5513 32.9309Z" fill="#025749"></path><path d="M61.5085 48.5652H32.3561C31.9574 48.5652 31.6343 48.2416 31.6343 47.8424V45.5022C31.6343 45.1029 31.9574 44.7793 32.3561 44.7793H61.5085C61.9071 44.7793 62.2303 45.1029 62.2303 45.5022V47.8424C62.2302 48.2416 61.9071 48.5652 61.5085 48.5652Z" fill="#7CBF99"></path><path d="M61.5084 47.8663C57.7054 47.8663 53.9024 47.8663 50.0994 47.8663C44.745 47.8663 39.3907 47.8663 34.0364 47.8663C33.5619 47.8663 32.9569 47.968 32.4908 47.8663C32.3464 47.8348 32.3955 47.9032 32.332 47.7807C32.2436 47.6101 32.332 47.1417 32.332 46.9527C32.332 46.5982 32.332 46.2436 32.332 45.8891C32.332 45.6909 32.2737 45.5498 32.4165 45.4779C32.5193 45.4261 32.7847 45.4779 32.8977 45.4779C33.6213 45.4779 34.3449 45.4779 35.0685 45.4779C40.6568 45.4779 46.245 45.4779 51.8333 45.4779C54.2913 45.4779 56.7494 45.4779 59.2075 45.4779C59.8519 45.4779 60.4964 45.4779 61.1408 45.4779C61.2067 45.4779 61.4375 45.438 61.4932 45.4779C61.6268 45.5735 61.5325 46.2328 61.5325 46.3915C61.5325 46.5102 61.5809 47.859 61.5084 47.8663C60.6234 47.9556 60.6142 49.3541 61.5084 49.2638C62.557 49.158 62.928 48.4102 62.928 47.4551C62.928 46.8158 62.9589 46.1685 62.928 45.53C62.8757 44.4503 62.0344 44.0803 61.1116 44.0803C59.1966 44.0803 57.2817 44.0803 55.3667 44.0803C49.2367 44.0803 43.1066 44.0803 36.9765 44.0803C35.4607 44.0803 33.9316 44.0215 32.4165 44.0803C31.7992 44.1043 31.2251 44.421 31.0182 45.0349C30.8233 45.6128 30.9365 46.3556 30.9365 46.9527C30.9365 47.6987 30.8424 48.4886 31.5297 48.9904C31.826 49.2066 32.1581 49.2567 32.5091 49.2638C37.216 49.3593 41.9346 49.2638 46.6423 49.2638C51.5106 49.2638 56.3789 49.2638 61.2471 49.2638C61.3342 49.2638 61.4213 49.2638 61.5084 49.2638C62.4064 49.2638 62.4078 47.8663 61.5084 47.8663Z" fill="#7CBF99"></path><path d="M61.5085 47.8662C58.2284 47.8662 54.9483 47.8662 51.6682 47.8662C46.4364 47.8662 41.2047 47.8662 35.973 47.8662C34.7674 47.8662 33.5618 47.8662 32.3561 47.8662C31.4582 47.8662 31.4567 49.2632 32.3561 49.2632C35.6362 49.2632 38.9164 49.2632 42.1965 49.2632C47.4282 49.2632 52.6599 49.2632 57.8916 49.2632C59.0973 49.2632 60.3029 49.2632 61.5085 49.2632C62.4064 49.2632 62.4079 47.8662 61.5085 47.8662Z" fill="#025749"></path><path d="M59.3061 53.8823C56.5133 53.8823 53.7205 53.8823 50.9276 53.8823C46.496 53.8823 42.0644 53.8823 37.6327 53.8823C36.6079 53.8823 35.5831 53.8823 34.5583 53.8823C33.6604 53.8823 33.6589 55.2794 34.5583 55.2794C37.3511 55.2794 40.1439 55.2794 42.9368 55.2794C47.3684 55.2794 51.8001 55.2794 56.2317 55.2794C57.2565 55.2794 58.2813 55.2794 59.3061 55.2794C60.2041 55.2794 60.2056 53.8823 59.3061 53.8823Z" fill="white"></path><path d="M59.3061 58.7993C56.5133 58.7993 53.7205 58.7993 50.9276 58.7993C46.496 58.7993 42.0644 58.7993 37.6327 58.7993C36.6079 58.7993 35.5831 58.7993 34.5583 58.7993C33.6604 58.7993 33.6589 60.1964 34.5583 60.1964C37.3511 60.1964 40.1439 60.1964 42.9368 60.1964C47.3684 60.1964 51.8001 60.1964 56.2317 60.1964C57.2565 60.1964 58.2813 60.1964 59.3061 60.1964C60.2041 60.1964 60.2056 58.7993 59.3061 58.7993Z" fill="white"></path><path d="M59.3061 63.7163C56.5133 63.7163 53.7205 63.7163 50.9276 63.7163C46.496 63.7163 42.0644 63.7163 37.6327 63.7163C36.6079 63.7163 35.5831 63.7163 34.5583 63.7163C33.6604 63.7163 33.6589 65.1133 34.5583 65.1133C37.3511 65.1133 40.1439 65.1133 42.9368 65.1133C47.3684 65.1133 51.8001 65.1133 56.2317 65.1133C57.2565 65.1133 58.2813 65.1133 59.3061 65.1133C60.2041 65.1133 60.2056 63.7163 59.3061 63.7163Z" fill="white"></path><path d="M59.3061 68.6333C56.5133 68.6333 53.7205 68.6333 50.9276 68.6333C46.496 68.6333 42.0644 68.6333 37.6327 68.6333C36.6079 68.6333 35.5831 68.6333 34.5583 68.6333C33.6604 68.6333 33.6589 70.0303 34.5583 70.0303C37.3511 70.0303 40.1439 70.0303 42.9368 70.0303C47.3684 70.0303 51.8001 70.0303 56.2317 70.0303C57.2565 70.0303 58.2813 70.0303 59.3061 70.0303C60.2041 70.0303 60.2056 68.6333 59.3061 68.6333Z" fill="white"></path><path d="M55.1159 73.5498C50.3457 73.5498 45.5754 73.5498 40.8052 73.5498C40.1196 73.5498 39.434 73.5498 38.7485 73.5498C37.8505 73.5498 37.8491 74.9468 38.7485 74.9468C43.5187 74.9468 48.289 74.9468 53.0592 74.9468C53.7448 74.9468 54.4304 74.9468 55.1159 74.9468C56.0139 74.9468 56.0153 73.5498 55.1159 73.5498Z" fill="white"></path><path d="M19.203 79.171C20.0991 79.171 20.8256 78.4434 20.8256 77.5459C20.8256 76.6485 20.0991 75.9209 19.203 75.9209C18.3068 75.9209 17.5803 76.6485 17.5803 77.5459C17.5803 78.4434 18.3068 79.171 19.203 79.171Z" fill="#7CBF99"></path><path d="M20.128 77.546C20.1274 77.5914 20.1241 77.6363 20.1225 77.6816C20.118 77.8071 20.1204 77.6373 20.131 77.6282C20.1041 77.6514 20.0941 77.7975 20.0808 77.8409C20.0731 77.8661 20.0333 77.9387 20.0377 77.963C20.0348 77.9469 20.1134 77.8113 20.0557 77.9135C20.0134 77.9883 19.9719 78.0604 19.9251 78.1325C19.8479 78.2512 20.0131 78.0508 19.9431 78.1078C19.917 78.129 19.8955 78.1618 19.872 78.186C19.8523 78.2061 19.8321 78.2259 19.8115 78.245C19.801 78.2544 19.7906 78.2639 19.7801 78.2733C19.7237 78.3206 19.7379 78.3108 19.8229 78.2441C19.7687 78.2569 19.6942 78.3325 19.6454 78.36C19.6206 78.3739 19.5946 78.3857 19.57 78.3999C19.4544 78.4662 19.7231 78.3553 19.559 78.4045C19.4893 78.4254 19.4214 78.4481 19.35 78.463C19.234 78.4872 19.3194 78.4301 19.3829 78.4625C19.3631 78.4524 19.2959 78.4697 19.2711 78.4708C19.1953 78.4739 19.1211 78.4683 19.0456 78.4646C18.9454 78.4598 19.225 78.5008 19.0777 78.4675C19.035 78.4578 18.9925 78.4491 18.9503 78.4373C18.9085 78.4256 18.8681 78.4105 18.8269 78.3973C18.7381 78.3688 18.8512 78.3727 18.8747 78.4183C18.8577 78.3854 18.7267 78.341 18.6879 78.3164C18.6584 78.2976 18.6307 78.274 18.6005 78.2566C18.5206 78.2105 18.7274 78.3735 18.6261 78.2733C18.5972 78.2447 18.4801 78.0967 18.4494 78.0917C18.4928 78.0988 18.5326 78.2114 18.4812 78.1325C18.4579 78.0968 18.4335 78.0623 18.4117 78.0258C18.3972 78.0014 18.3832 77.9766 18.37 77.9515C18.3635 77.9388 18.357 77.9262 18.3506 77.9135C18.3191 77.8459 18.3251 77.8624 18.3686 77.963C18.375 77.9115 18.3152 77.8099 18.302 77.7572C18.2949 77.7288 18.2895 77.7002 18.283 77.6716C18.2519 77.5339 18.2946 77.8396 18.2822 77.6591C18.2776 77.5913 18.277 77.5233 18.2807 77.4554C18.2846 77.3841 18.3307 77.2981 18.2752 77.4639C18.2839 77.4379 18.2859 77.4048 18.292 77.3775C18.3078 77.3063 18.3313 77.2386 18.3531 77.1693C18.3986 77.0251 18.2759 77.3091 18.3506 77.1786C18.3717 77.1416 18.3898 77.103 18.4117 77.0663C18.4299 77.0359 18.4504 77.0071 18.4691 76.9771C18.5331 76.8746 18.507 76.9911 18.4494 77.0004C18.4758 76.9961 18.5716 76.8685 18.5948 76.8471C18.6183 76.8253 18.716 76.7723 18.6208 76.8196C18.5184 76.8706 18.6332 76.8119 18.6524 76.7989C18.6951 76.7703 18.8605 76.7096 18.8747 76.6738C18.8704 76.6847 18.7106 76.7323 18.8269 76.6948C18.8681 76.6815 18.9085 76.6665 18.9503 76.6548C18.9782 76.647 19.0065 76.6399 19.0348 76.6335C19.0561 76.6288 19.1952 76.6144 19.0722 76.6232C18.9449 76.6323 19.095 76.6232 19.1126 76.6223C19.1503 76.6202 19.1881 76.6196 19.2258 76.6201C19.2635 76.6206 19.3009 76.6241 19.3384 76.6253C19.4863 76.6302 19.1965 76.5916 19.3285 76.6246C19.4135 76.6458 19.496 76.6682 19.5794 76.6948C19.7162 76.7384 19.4762 76.63 19.5508 76.683C19.59 76.7108 19.6405 76.7285 19.6821 76.7535C19.7064 76.768 19.7303 76.7832 19.7538 76.7989C19.7773 76.8147 19.8003 76.831 19.8229 76.848C19.738 76.7813 19.7237 76.7715 19.7801 76.8188C19.8299 76.8685 19.8797 76.9184 19.9293 76.9682C20.0344 77.0737 19.8439 76.8345 19.9251 76.9596C19.9483 76.9954 19.9727 77.0297 19.9945 77.0663C20.0164 77.103 20.0347 77.1415 20.0557 77.1786C20.1206 77.2935 20.0097 77.0331 20.0531 77.1693C20.0798 77.2531 20.1019 77.3351 20.1232 77.4205C20.1453 77.5092 20.0881 77.4252 20.1182 77.366C20.1023 77.3972 20.1275 77.5082 20.128 77.546C20.133 77.9114 20.4454 78.2619 20.8258 78.2448C21.1995 78.2281 21.5289 77.9377 21.5235 77.546C21.5099 76.5513 20.8936 75.7028 19.9704 75.3549C19.1068 75.0295 18.0357 75.3148 17.4494 76.0286C16.8236 76.7904 16.692 77.8684 17.2067 78.7311C17.721 79.593 18.7064 79.9941 19.6778 79.819C20.7508 79.6257 21.5089 78.6105 21.5235 77.546C21.5285 77.1804 21.199 76.8305 20.8258 76.8473C20.4434 76.8644 20.1334 77.1542 20.128 77.546Z" fill="#7CBF99"></path><path d="M27.2967 5.71993L30.1175 11.4441C30.2983 11.8108 30.6476 12.065 31.0517 12.1238L37.3594 13.0417C38.377 13.1898 38.7833 14.4422 38.047 15.161L33.4826 19.6166C33.1903 19.9021 33.0568 20.3133 33.1259 20.7164L34.2033 27.0079C34.3772 28.0229 33.3134 28.7969 32.4033 28.3177L26.7615 25.3472C26.4 25.1569 25.9683 25.1569 25.6068 25.3472L19.965 28.3177C19.0549 28.7969 17.9911 28.0229 18.1649 27.0079L19.2424 20.7164C19.3115 20.3133 19.178 19.9021 18.8856 19.6166L14.3213 15.161C13.585 14.4422 13.9913 13.1898 15.0089 13.0417L21.3166 12.1238C21.7207 12.065 22.07 11.8108 22.2507 11.4441L25.0716 5.71993C25.5267 4.79648 26.8416 4.79648 27.2967 5.71993Z" fill="#FFD483"></path><path d="M26.6941 6.07255C27.2488 7.19814 27.8035 8.32373 28.3582 9.44932C28.6772 10.0966 28.9962 10.744 29.3152 11.3913C29.612 11.9936 29.9569 12.5235 30.6462 12.7423C31.0618 12.8742 31.5319 12.8944 31.9607 12.9568C32.7798 13.076 33.5989 13.1952 34.418 13.3144C35.1554 13.4217 35.8928 13.529 36.6302 13.6364C37.0275 13.6942 37.6497 13.6846 37.7226 14.1977C37.7796 14.5993 37.2535 14.9596 37.0026 15.2046C36.4393 15.7545 35.8759 16.3044 35.3126 16.8544C34.7408 17.4126 34.169 17.9707 33.5972 18.5289C33.2348 18.8827 32.8146 19.2233 32.5952 19.6897C32.3137 20.2879 32.4521 20.8974 32.5576 21.5133C32.6861 22.2635 32.8146 23.0137 32.9431 23.7639C33.0815 24.5723 33.22 25.3807 33.3584 26.1891C33.4224 26.5626 33.6087 27.1213 33.4886 27.4216C33.2452 28.0306 32.643 27.6551 32.2691 27.4582C31.6096 27.111 30.95 26.7637 30.2904 26.4164C29.1908 25.8375 28.1004 25.1579 26.9547 24.6739C26.2085 24.3586 25.5488 24.5888 24.8827 24.9396C24.2522 25.2715 23.6217 25.6035 22.9912 25.9355C22.2458 26.3279 21.5005 26.7203 20.7551 27.1128C20.3871 27.3065 20.0066 27.5706 19.6152 27.7129C18.9322 27.9613 18.8193 27.3011 18.8987 26.8371C19.0161 26.1517 19.1335 25.4663 19.2509 24.7809C19.4715 23.4925 19.7196 22.2056 19.9133 20.9129C20.1362 19.4252 18.7323 18.4913 17.7881 17.5695C16.8161 16.6206 15.7456 15.7148 14.8454 14.6969C14.4327 14.2302 14.7404 13.7914 15.2884 13.7018C15.8459 13.6106 16.4073 13.5389 16.9663 13.4576C18.423 13.2456 19.8834 13.0508 21.3375 12.8215C22.6595 12.613 23.0365 11.4246 23.5544 10.3736C24.2233 9.01635 24.8922 7.65908 25.561 6.3018C25.7977 5.82149 26.3252 5.4168 26.6941 6.07255C27.1349 6.85618 28.3408 6.15254 27.899 5.36718C27.2779 4.2629 25.7486 3.96244 24.8208 4.88653C24.4658 5.24017 24.2743 5.76244 24.0566 6.20411C23.3348 7.66877 22.613 9.13343 21.8913 10.5981C21.6912 11.004 21.5853 11.3572 21.0885 11.4561C20.5197 11.5694 19.9327 11.6243 19.359 11.7078C17.8792 11.9231 16.3932 12.1129 14.9174 12.3542C14.0027 12.5037 13.2847 13.25 13.2501 14.1977C13.2228 14.9451 13.6313 15.4631 14.1287 15.9487C15.3069 17.0989 16.4852 18.2491 17.6635 19.3993C17.9605 19.6893 18.5488 20.0886 18.5619 20.5435C18.572 20.8924 18.4164 21.4244 18.3514 21.8045C18.0793 23.393 17.8072 24.9815 17.5352 26.5701C17.3899 27.4187 17.503 28.2393 18.2509 28.7837C18.9839 29.3174 19.7921 29.1974 20.5431 28.802C21.9393 28.0669 23.3355 27.3318 24.7317 26.5966C25.1242 26.39 25.5382 26.0956 25.9589 25.9505C26.4047 25.7968 26.9341 26.2269 27.3099 26.4248C28.7478 27.1818 30.1857 27.9389 31.6236 28.6959C32.2491 29.0252 32.8638 29.2981 33.5876 29.0614C34.6292 28.7207 35.0182 27.7027 34.8544 26.6954C34.6101 25.1935 34.3406 23.6953 34.0837 22.1955C33.995 21.6773 33.8162 21.1009 33.8058 20.573C33.7981 20.1805 34.1931 19.8987 34.4719 19.6265C35.6627 18.4641 36.8535 17.3016 38.0443 16.1392C38.4605 15.7329 38.902 15.3556 39.0585 14.7646C39.346 13.6788 38.6161 12.5774 37.534 12.3663C36.1662 12.0994 34.76 11.9626 33.3812 11.762C32.7215 11.666 32.0601 11.5776 31.4016 11.4739C30.9605 11.4044 30.7727 11.1985 30.5844 10.8164C29.8797 9.38636 29.175 7.95629 28.4702 6.52623C28.2798 6.13989 28.0894 5.75354 27.899 5.36719C27.5016 4.56069 26.2976 5.268 26.6941 6.07255Z" fill="#FFD483"></path><path d="M19.5978 27.6993C19.0054 27.9669 18.7959 27.3349 18.8658 26.9267C18.9523 26.4215 19.0388 25.9164 19.1253 25.4112C19.3527 24.0839 19.58 22.7566 19.8073 21.4294C19.8834 20.9849 19.9916 20.538 19.8957 20.0874C19.7797 19.5422 19.4408 19.1827 19.0631 18.8139C18.1201 17.8934 17.1771 16.9728 16.2341 16.0523C15.8058 15.6341 15.3739 15.2193 14.9489 14.7977C14.5503 14.4022 14.5014 13.8374 15.1793 13.7006C16.0589 13.523 15.6866 12.1757 14.8083 12.3529C13.7322 12.5701 13.0086 13.6692 13.2946 14.7497C13.4395 15.2972 13.8214 15.6484 14.2062 16.0241C15.2884 17.0806 16.3707 18.1371 17.453 19.1936C17.7508 19.4843 18.1066 19.7641 18.3693 20.0881C18.6525 20.4374 18.5098 20.7764 18.4374 21.1993C18.1796 22.7047 17.9218 24.2101 17.664 25.7154C17.5774 26.2209 17.4162 26.7874 17.4367 27.3042C17.4956 28.7897 19.0625 29.466 20.3021 28.9061C21.1194 28.5369 20.4107 27.3321 19.5978 27.6993Z" fill="#FFC17F"></path><path d="M33.5054 27.0077C33.579 27.5908 33.1424 27.9097 32.6283 27.6473C32.1764 27.4166 31.7301 27.1744 31.2812 26.938C30.029 26.2787 28.7768 25.6194 27.5246 24.9601C27.3917 24.8902 27.2601 24.8163 27.1253 24.7499C26.4981 24.4411 25.8851 24.4543 25.2544 24.7437C24.9118 24.9008 24.8274 25.3971 25.0041 25.6997C25.2099 26.0521 25.6149 26.1082 25.9588 25.9504C26.3242 25.7827 26.7933 26.1527 27.1011 26.3147C27.7603 26.6618 28.4196 27.009 29.0789 27.3561C30.0843 27.8854 31.078 28.4564 32.1037 28.9457C33.4424 29.5844 35.095 28.5456 34.9009 27.0077C34.8536 26.6334 34.614 26.3089 34.2031 26.3089C33.8628 26.3089 33.4578 26.6307 33.5054 27.0077Z" fill="#FFC17F"></path><path d="M30.851 12.7823C32.8345 13.0709 34.8179 13.3596 36.8013 13.6482C36.9126 13.6644 37.0248 13.6779 37.1356 13.6969C37.3454 13.7327 37.497 13.7878 37.5838 13.8999C37.7383 14.0994 37.7724 14.3295 37.625 14.548C37.5729 14.6252 37.501 14.6877 37.4344 14.7532C36.6752 15.4993 35.911 16.2403 35.1493 16.9838C34.4243 17.6916 33.6992 18.3994 32.9741 19.1072C32.3299 19.7361 33.3171 20.7239 33.9609 20.0954C35.4447 18.6469 36.9285 17.1984 38.4124 15.7499C38.873 15.3003 39.1637 14.7281 39.0903 14.0678C38.9949 13.2093 38.3625 12.4942 37.5016 12.3485C36.5012 12.1792 35.4907 12.0559 34.4867 11.9098C33.3985 11.7514 32.3102 11.593 31.222 11.4347C30.8496 11.3805 30.4723 11.527 30.3637 11.9227C30.2736 12.2512 30.4758 12.7277 30.851 12.7823Z" fill="#FFC17F"></path><path d="M21.4868 12.7824C22.2557 12.6406 22.6889 12.084 23.0094 11.4337C23.2877 10.8688 23.5661 10.304 23.8445 9.7391C24.4293 8.55236 25.0141 7.36563 25.5989 6.1789C25.6181 6.14007 25.6363 6.10058 25.6564 6.06227C25.7449 5.89402 25.7616 5.85855 25.9151 5.77086C26.0973 5.66679 25.8612 5.77999 25.9754 5.74441C26.0038 5.73558 26.1788 5.70281 26.1223 5.70797C26.0271 5.71668 26.2517 5.71346 26.2387 5.71278C26.1215 5.7066 26.2996 5.72592 26.3288 5.73386C26.3442 5.73806 26.4521 5.77918 26.3596 5.73824C26.4224 5.76605 26.4898 5.80374 26.5435 5.8476C26.466 5.78432 26.58 5.89204 26.5927 5.91005C26.6236 5.94402 26.6261 5.94708 26.6002 5.91923C26.6292 5.96367 26.6555 6.00971 26.6789 6.05736C27.1006 6.8518 28.3057 6.14655 27.8839 5.35199C27.2839 4.22177 25.6836 3.95447 24.7834 4.89402C24.4586 5.23292 24.2795 5.70589 24.0748 6.12124C23.3906 7.50972 22.7063 8.8982 22.0221 10.2867C21.9123 10.5093 21.8026 10.732 21.6929 10.9547C21.561 11.2223 21.4293 11.377 21.1159 11.4347C20.745 11.5031 20.5349 11.9531 20.6285 12.2943C20.7356 12.6846 21.1149 12.8509 21.4868 12.7824Z" fill="#FFC17F"></path></g><defs><clipPath id="clip0_1067_32700"><rect width="116" height="120" fill="white" transform="translate(2)"></rect></clipPath></defs></svg> 