<?xml version="1.0" encoding="UTF-8"?> <svg xmlns="http://www.w3.org/2000/svg" width="120" height="120" viewBox="0 0 120 120" fill="none"><rect width="120" height="120" fill="white"></rect><g clip-path="url(#clip0_1067_32699)"><path d="M35.258 92.2613C46.5352 92.2613 55.6772 83.098 55.6772 71.7945C55.6772 60.4909 46.5352 51.3276 35.258 51.3276C23.9807 51.3276 14.8387 60.4909 14.8387 71.7945C14.8387 83.098 23.9807 92.2613 35.258 92.2613Z" fill="#FFF0E9"></path><path d="M14.1447 71.7939C14.1791 80.6114 19.759 88.6301 28.021 91.678C36.3168 94.7382 45.9656 92.0905 51.5595 85.2387C57.1631 78.3749 57.9322 68.4576 53.3328 60.8504C48.7541 53.2774 39.7521 49.33 31.0933 51.0448C22.5687 52.733 15.7266 59.8639 14.4071 68.4774C14.2388 69.5764 14.149 70.682 14.1447 71.7939C14.1412 72.6895 15.5295 72.6907 15.533 71.7939C15.565 63.5998 20.7487 56.0405 28.4626 53.225C36.2734 50.3742 45.1773 52.8162 50.4813 59.2159C55.7734 65.6012 56.4179 74.9498 52.134 82.0352C47.8632 89.099 39.3909 92.8361 31.3081 91.1701C23.301 89.5197 17.0292 82.908 15.7579 74.8191C15.6007 73.819 15.5369 72.8058 15.533 71.7939C15.5295 70.8987 14.1412 70.8969 14.1447 71.7939Z" fill="#FFF0E9"></path><path d="M58.0187 47.3785C69.2959 47.3785 78.4379 38.2152 78.4379 26.9116C78.4379 15.6081 69.2959 6.44482 58.0187 6.44482C46.7415 6.44482 37.5995 15.6081 37.5995 26.9116C37.5995 38.2152 46.7415 47.3785 58.0187 47.3785Z" fill="#FFF0E9"></path><path d="M36.9054 26.9116C36.9398 35.7291 42.5197 43.7478 50.7818 46.7956C59.0775 49.8559 68.7263 47.2082 74.3202 40.3564C79.9238 33.4926 80.6929 23.5753 76.0935 15.9681C71.5149 8.3951 62.5128 4.44772 53.8541 6.16249C45.3294 7.85069 38.4873 14.9816 37.1679 23.5951C36.9995 24.6941 36.9097 25.7997 36.9054 26.9116C36.9019 27.8071 38.2902 27.8083 38.2937 26.9116C38.3257 18.7175 43.5094 11.1582 51.2233 8.34271C59.0341 5.49184 67.938 7.93385 73.2421 14.3336C78.5341 20.7189 79.1787 30.0675 74.8948 37.1529C70.6239 44.2167 62.1516 47.9538 54.0689 46.2878C46.0617 44.6373 39.7899 38.0257 38.5186 29.9368C38.3614 28.9367 38.2977 27.9234 38.2937 26.9116C38.2902 26.0164 36.9019 26.0146 36.9054 26.9116Z" fill="#FFF0E9"></path><path d="M80.734 95.417C92.0112 95.417 101.153 86.2537 101.153 74.9502C101.153 63.6467 92.0112 54.4834 80.734 54.4834C69.4568 54.4834 60.3148 63.6467 60.3148 74.9502C60.3148 86.2537 69.4568 95.417 80.734 95.417Z" fill="#FFF0E9"></path><path d="M59.6206 74.9502C59.6551 83.7676 65.2349 91.7864 73.497 94.8342C81.7927 97.8945 91.4415 95.2468 97.0354 88.3949C102.639 81.5312 103.408 71.6138 98.8088 64.0066C94.2301 56.4337 85.228 52.4863 76.5693 54.2011C68.0446 55.8893 61.2025 63.0202 59.8831 71.6337C59.7147 72.7327 59.625 73.8382 59.6206 74.9502C59.6171 75.8457 61.0054 75.8469 61.0089 74.9502C61.0409 66.756 66.2246 59.1968 73.9385 56.3813C81.7493 53.5304 90.6533 55.9724 95.9573 62.3722C101.249 68.7575 101.894 78.106 97.61 85.1914C93.3391 92.2553 84.8669 95.9924 76.7841 94.3263C68.7769 92.6759 62.5051 86.0643 61.2338 77.9753C61.0766 76.9753 61.0129 75.962 61.0089 74.9502C61.0054 74.055 59.6171 74.0532 59.6206 74.9502Z" fill="#FFF0E9"></path><path d="M100.628 87.9852V69.9033H87.8487V87.9852H82.4771L94.2385 99.7741L106 87.9852H100.628Z" fill="#A3D2A9"></path><path d="M101.323 87.9852C101.323 82.7053 101.323 77.4253 101.323 72.1454C101.323 71.3981 101.323 70.6507 101.323 69.9033C101.323 69.5272 101.005 69.2075 100.629 69.2075C96.896 69.2075 93.1634 69.2075 89.4309 69.2075C88.9035 69.2075 88.3762 69.2075 87.8488 69.2075C87.4736 69.2075 87.1547 69.5263 87.1547 69.9033C87.1547 75.1832 87.1547 80.4631 87.1547 85.743C87.1547 86.4904 87.1547 87.2378 87.1547 87.9852C87.3861 87.7532 87.6175 87.5213 87.8488 87.2894C86.0583 87.2894 84.2677 87.2894 82.4772 87.2894C81.8761 87.2894 81.5609 88.0507 81.9863 88.4771C85.4214 91.9202 88.8564 95.3633 92.2915 98.8064C92.7769 99.2929 93.2624 99.7795 93.7478 100.266C94.0129 100.532 94.4638 100.532 94.7295 100.266C98.1645 96.823 101.6 93.3799 105.035 89.9368C105.52 89.4503 106.006 88.9637 106.491 88.4771C106.916 88.051 106.602 87.2894 106 87.2894C104.21 87.2894 102.419 87.2894 100.629 87.2894C99.7352 87.2894 99.7337 88.6809 100.629 88.6809C102.419 88.6809 104.21 88.6809 106 88.6809C105.837 88.285 105.673 87.8891 105.509 87.4932C102.074 90.9363 98.6392 94.3793 95.2041 97.8224C94.7186 98.309 94.2332 98.7955 93.7478 99.2821C94.075 99.2821 94.4022 99.2821 94.7295 99.2821C91.2944 95.839 87.8593 92.3959 84.4243 88.9529C83.9388 88.4663 83.4534 87.9797 82.968 87.4932C82.8044 87.8891 82.6408 88.285 82.4772 88.6809C84.2677 88.6809 86.0583 88.6809 87.8488 88.6809C88.2241 88.6809 88.543 88.3622 88.543 87.9852C88.543 82.7053 88.543 77.4253 88.543 72.1454C88.543 71.3981 88.543 70.6507 88.543 69.9033C88.3116 70.1352 88.0802 70.3671 87.8488 70.5991C91.5814 70.5991 95.3139 70.5991 99.0465 70.5991C99.5738 70.5991 100.101 70.5991 100.629 70.5991C100.397 70.3671 100.166 70.1352 99.9344 69.9033C99.9344 75.1832 99.9344 80.4631 99.9344 85.743C99.9344 86.4904 99.9344 87.2378 99.9344 87.9852C99.9344 88.8805 101.323 88.882 101.323 87.9852Z" fill="#A3D2A9"></path><path d="M81.9862 88.4773C85.4212 91.9204 88.8563 95.3635 92.2914 98.8066C92.7768 99.2931 93.2622 99.7797 93.7476 100.266C94.0127 100.532 94.4636 100.533 94.7293 100.266C98.1644 96.8232 101.599 93.3801 105.035 89.937C105.52 89.4504 106.005 88.9639 106.491 88.4773C107.123 87.8433 106.142 86.8591 105.509 87.4934C102.074 90.9364 98.639 94.3795 95.2039 97.8226C94.7185 98.3092 94.2331 98.7957 93.7476 99.2823C94.0749 99.2823 94.4021 99.2823 94.7293 99.2823C91.2942 95.8392 87.8592 92.3961 84.4241 88.953C83.9387 88.4665 83.4533 87.9799 82.9678 87.4934C82.3353 86.8593 81.3533 87.843 81.9862 88.4773Z" fill="#025749"></path><path d="M45.9361 0.72998H3.73523V64.0939H45.9361V0.72998Z" fill="#C1E2EC"></path><g clip-path="url(#clip1_1067_32699)"><path d="M40 45.9997H10V16.0273C10.1223 15.9921 39.8533 15.989 40 16.0258V45.9997ZM37.7504 25.4979C37.7045 25.4963 37.6556 25.4917 37.6052 25.4917C37.35 25.4917 37.0963 25.4902 36.8411 25.4917C36.5843 25.4948 36.6393 25.4549 36.5186 25.6849C34.6144 29.3247 32.7117 32.9645 30.8074 36.6043C30.1503 37.8615 29.4916 39.1172 28.836 40.376C28.7932 40.4588 28.7504 40.5094 28.6434 40.5094C27.1977 40.5048 25.7519 40.5063 24.3046 40.5048C24.2511 40.5048 24.1977 40.4956 24.1564 40.4925C24.1426 40.471 24.1381 40.468 24.1365 40.4634C24.135 40.4588 24.135 40.4526 24.1335 40.448C24.1335 40.4434 24.1319 40.4373 24.1319 40.4327C24.1319 38.0961 24.1319 35.7611 24.1304 33.4245C24.1304 33.4137 24.1304 33.4045 24.1304 33.3938C24.1304 33.3831 24.1274 33.3739 24.1243 33.3647C24.1243 33.3601 24.1197 33.3555 24.1151 33.3539C24.1105 33.3509 24.106 33.3509 24.0891 33.3478C24.0601 33.3969 24.028 33.4475 23.9975 33.4996C22.6786 35.7841 21.3597 38.0701 20.0453 40.356C19.9796 40.4695 19.9078 40.5078 19.7809 40.5078C18.569 40.5032 17.3571 40.5048 16.1452 40.5048C16.1009 40.5048 16.0565 40.4986 15.9985 40.494V27.6229C15.9985 27.2656 15.9985 26.9069 15.9985 26.5496C15.9985 26.1939 16.0015 25.8382 15.9954 25.4626H15.7937C15.2496 25.4626 14.704 25.4626 14.16 25.4626C14.1065 25.4626 14.053 25.4565 14.001 25.4534V22.5327C14.0194 22.5235 14.027 22.5158 14.0377 22.5143C14.0576 22.5097 14.0774 22.5066 14.0973 22.5066C17.0255 22.5066 19.9521 22.5066 22.8803 22.5066C22.9047 22.5066 22.9307 22.5127 22.9552 22.5173C22.9598 22.5173 22.9643 22.5219 22.9674 22.525C22.9705 22.5281 22.975 22.5311 22.9796 22.5357V25.4611H22.2277C21.9832 25.4611 21.7387 25.4611 21.4941 25.4611C21.2466 25.4611 20.999 25.4595 20.7422 25.4626V30.8226C20.7514 30.8272 20.7606 30.8303 20.7713 30.8349C20.8003 30.7797 20.8309 30.7245 20.8584 30.6678C22.1651 27.9893 23.4717 25.3123 24.7753 22.6323C24.8227 22.5342 24.8808 22.502 24.9862 22.502C26.27 22.5051 27.5522 22.5035 28.836 22.5051C28.8849 22.5051 28.9338 22.5127 28.9995 22.5173V23.8313C28.9995 24.0459 28.9995 24.2606 28.9995 24.4752C28.9995 24.6899 29.001 24.9045 29.0025 25.1192C29.0025 25.3338 29.0025 25.5485 29.0025 25.7631C29.0025 25.9824 29.0025 26.2031 29.0025 26.4224V28.3695C29.0025 28.5842 29.0025 28.7988 29.0025 29.0135C29.0025 29.2281 29.0025 29.4428 29.0041 29.6574C29.0041 29.8721 29.0041 30.0867 29.0041 30.3014C29.0041 30.5206 29.0041 30.7414 29.0041 30.9606C29.0056 31.1707 28.9964 31.3823 29.0117 31.6153C29.1386 31.4467 32.1538 25.5899 32.1798 25.4641C31.6266 25.4549 31.0749 25.4672 30.5232 25.4565V22.5143C30.5843 22.5112 30.6393 22.5051 30.6943 22.5051C30.9648 22.5051 31.2338 22.5051 31.5043 22.5051C33.5262 22.5051 35.5466 22.5051 37.5685 22.5051C37.6327 22.5051 37.6969 22.4989 37.7565 22.4959C37.7901 22.315 37.784 18.3746 37.7534 18.2566C37.6113 18.2229 12.3658 18.2244 12.2191 18.2643C12.2191 26.7214 12.2191 35.1846 12.2191 43.6478C12.2191 43.6877 12.2298 43.726 12.2359 43.7705H37.7489C37.7871 43.6417 37.7901 25.6512 37.7519 25.4979H37.7504Z" fill="white"></path></g><path d="M45.9361 63.3983C44.5367 63.3983 43.1372 63.3983 41.7378 63.3983C38.3771 63.3983 35.0164 63.3983 31.6557 63.3983C27.5904 63.3983 23.5251 63.3983 19.4598 63.3983C15.9465 63.3983 12.4332 63.3983 8.91982 63.3983C7.77106 63.3983 6.62229 63.3983 5.47352 63.3983C4.9423 63.3983 4.33768 63.3168 3.81097 63.3983C3.78707 63.402 3.75967 63.3983 3.7353 63.3983C3.96668 63.6302 4.19806 63.8621 4.42945 64.0941C4.42945 61.9954 4.42945 59.8968 4.42945 57.7982C4.42945 52.7576 4.42945 47.717 4.42945 42.6764C4.42945 36.5767 4.42945 30.477 4.42945 24.3773C4.42945 19.1013 4.42945 13.8254 4.42945 8.5494C4.42945 6.80873 4.42945 5.06805 4.42945 3.32738C4.42945 2.52052 4.5268 1.64406 4.42945 0.841402C4.42509 0.805473 4.42945 0.766514 4.42945 0.730158C4.19806 0.962081 3.96668 1.194 3.7353 1.42593C5.13476 1.42593 6.53423 1.42593 7.93369 1.42593C11.2944 1.42593 14.655 1.42593 18.0157 1.42593C22.081 1.42593 26.1463 1.42593 30.2116 1.42593C33.7249 1.42593 37.2383 1.42593 40.7516 1.42593C41.9004 1.42593 43.0492 1.42593 44.1979 1.42593C44.7292 1.42593 45.3338 1.50743 45.8605 1.42593C45.8844 1.42223 45.9118 1.42593 45.9362 1.42593C45.7048 1.194 45.4734 0.962081 45.242 0.730158C45.242 2.82877 45.242 4.92739 45.242 7.026C45.242 12.0666 45.242 17.1072 45.242 22.1478C45.242 28.2475 45.242 34.3472 45.242 40.4469C45.242 45.7229 45.242 50.9989 45.242 56.2748C45.242 58.838 45.1494 61.4208 45.242 63.9828C45.2433 64.0198 45.242 64.057 45.242 64.0941C45.242 64.9894 46.6303 64.9909 46.6303 64.0941C46.6303 61.9954 46.6303 59.8968 46.6303 57.7982C46.6303 52.7576 46.6303 47.717 46.6303 42.6764C46.6303 36.5767 46.6303 30.477 46.6303 24.3773C46.6303 19.1013 46.6303 13.8254 46.6303 8.5494C46.6303 5.98619 46.7229 3.40343 46.6303 0.841402C46.629 0.804425 46.6303 0.767173 46.6303 0.730158C46.6303 0.35404 46.3123 0.0343905 45.9362 0.0343905C44.5367 0.0343905 43.1372 0.0343905 41.7378 0.0343905C38.3771 0.0343905 35.0164 0.0343905 31.6557 0.0343905C27.5904 0.0343905 23.5251 0.0343905 19.4598 0.0343905C15.9465 0.0343905 12.4332 0.0343905 8.91983 0.0343905C7.22328 0.0343905 5.50629 -0.0429881 3.81097 0.0343905C3.78587 0.0355362 3.76045 0.0343905 3.7353 0.0343905C3.36006 0.0343905 3.04115 0.353168 3.04115 0.730158C3.04115 2.82877 3.04115 4.92739 3.04115 7.026C3.04115 12.0666 3.04115 17.1072 3.04115 22.1478C3.04115 28.2475 3.04115 34.3472 3.04115 40.4469C3.04115 45.7229 3.04115 50.9989 3.04115 56.2748C3.04115 58.838 2.94856 61.4208 3.04115 63.9828C3.04249 64.0198 3.04115 64.057 3.04115 64.0941C3.04115 64.4702 3.35919 64.7898 3.7353 64.7898C5.13477 64.7898 6.53423 64.7898 7.9337 64.7898C11.2944 64.7898 14.655 64.7898 18.0157 64.7898C22.081 64.7898 26.1463 64.7898 30.2116 64.7898C33.7249 64.7898 37.2383 64.7898 40.7516 64.7898C42.4482 64.7898 44.1652 64.8672 45.8605 64.7898C45.8856 64.7887 45.911 64.7898 45.9362 64.7898C46.8294 64.7898 46.8309 63.3983 45.9361 63.3983Z" fill="#C1E2EC"></path><path d="M45.9364 63.3983C44.5369 63.3983 43.1375 63.3983 41.738 63.3983C38.3773 63.3983 35.0167 63.3983 31.656 63.3983C27.5907 63.3983 23.5254 63.3983 19.4601 63.3983C15.9468 63.3983 12.4334 63.3983 8.92007 63.3983C7.77131 63.3983 6.62253 63.3983 5.47377 63.3983C4.94255 63.3983 4.33793 63.3168 3.81122 63.3983C3.78732 63.402 3.75992 63.3983 3.73554 63.3983C3.96693 63.6303 4.19831 63.8622 4.42969 64.0941C4.42969 61.9955 4.42969 59.8969 4.42969 57.7983C4.42969 52.7577 4.42969 47.7171 4.42969 42.6765C4.42969 36.5767 4.42969 30.477 4.42969 24.3773C4.42969 19.1014 4.42969 13.8254 4.42969 8.54944C4.42969 5.98624 4.52228 3.40348 4.42969 0.841446C4.42836 0.804468 4.42969 0.767217 4.42969 0.730202C4.42969 -0.165187 3.0414 -0.166666 3.0414 0.730202C3.0414 2.82882 3.0414 4.92743 3.0414 7.02605C3.0414 12.0666 3.0414 17.1072 3.0414 22.1478C3.0414 28.2476 3.0414 34.3473 3.0414 40.447C3.0414 45.7229 3.0414 50.9989 3.0414 56.2749C3.0414 58.8381 2.94881 61.4208 3.0414 63.9829C3.04273 64.0198 3.0414 64.0571 3.0414 64.0941C3.0414 64.4702 3.35943 64.7899 3.73554 64.7899C5.13501 64.7899 6.53447 64.7899 7.93394 64.7899C11.2946 64.7899 14.6553 64.7899 18.016 64.7899C22.0813 64.7899 26.1466 64.7899 30.2118 64.7899C33.7252 64.7899 37.2385 64.7899 40.7519 64.7899C42.4484 64.7899 44.1654 64.8672 45.8607 64.7899C45.8858 64.7887 45.9113 64.7899 45.9364 64.7899C46.8297 64.7899 46.8312 63.3983 45.9364 63.3983Z" fill="#ACD3E1"></path><path d="M116.264 7.89648H74.0636V71.2604H116.264V7.89648Z" fill="#FF9180"></path><path d="M112.476 45.1495C111.47 44.0998 109.407 43.501 106.492 43.501C104.933 43.501 103.124 43.6504 101.164 43.9998C99.9625 42.851 98.8687 41.5961 97.8955 40.2506C97.1419 39.2503 96.4874 38.1513 95.8839 37.1002C97.0413 33.6005 97.5938 30.7502 97.5938 28.7002C97.5938 26.4008 96.7396 24 94.276 24C93.5224 24 92.7673 24.4509 92.365 25.1004C91.26 27.0503 91.7629 31.2997 93.6725 35.4997C92.9538 37.6475 92.1489 39.7659 91.26 41.8498C90.4553 43.7504 89.5501 45.7004 88.5443 47.4996C83.0151 49.7003 79.4452 52.2505 79.0428 54.2484C78.8927 54.9993 79.1434 55.6996 79.6973 56.249C79.8985 56.3998 80.6026 57 81.8081 57C85.4772 57 89.3489 51.0994 91.3096 47.5503C92.8183 47.0501 94.327 46.55 95.8343 46.1498C97.4246 45.7203 99.0354 45.37 100.661 45.1002C104.531 48.5492 107.949 49.1001 109.659 49.1001C111.77 49.1001 112.525 48.2491 112.776 47.5503C113.229 46.6486 112.926 45.6496 112.474 45.1495H112.476ZM110.464 46.6007C110.312 47.3502 109.557 47.8504 108.503 47.8504C108.202 47.8504 107.951 47.7997 107.648 47.7504C105.738 47.2995 103.928 46.3499 102.119 44.8494C103.513 44.6148 104.926 44.4979 106.34 44.5C107.397 44.5 108.302 44.5493 108.904 44.7C109.608 44.8494 110.715 45.3002 110.463 46.5993L110.464 46.6007ZM99.8052 44.2506C98.4024 44.512 97.0106 44.8288 95.6332 45.2002C94.4319 45.5108 93.2412 45.8609 92.0632 46.2498C92.6756 45.0703 93.2459 43.8696 93.7731 42.65C94.3766 41.2496 94.8781 39.7998 95.3824 38.45C95.8839 39.2996 96.4378 40.1506 96.9903 40.9001C97.8937 42.0455 98.8324 43.1629 99.8052 44.2506ZM93.2206 25.6499C93.3095 25.4727 93.4455 25.3233 93.6138 25.2177C93.7822 25.1121 93.9764 25.0545 94.1754 25.0511C95.2308 25.0511 95.432 26.2501 95.432 27.2011C95.432 28.8002 94.9291 31.2504 94.0749 34.0499C92.6157 30.15 92.5165 26.901 93.2206 25.6499ZM87.69 48.9494C85.1259 53.1494 82.6624 55.7489 81.1551 55.7489C80.8831 55.7505 80.6182 55.6629 80.4014 55.4995C80.0997 55.1994 79.9481 54.85 80.0487 54.4498C80.3504 52.9493 83.2659 50.85 87.69 48.9494Z" fill="white"></path><path d="M116.265 70.5648C114.865 70.5648 113.466 70.5648 112.066 70.5648C108.706 70.5648 105.345 70.5648 101.984 70.5648C97.9189 70.5648 93.8536 70.5648 89.7883 70.5648C86.275 70.5648 82.7617 70.5648 79.2483 70.5648C78.0996 70.5648 76.9508 70.5648 75.802 70.5648C75.2708 70.5648 74.6662 70.4833 74.1395 70.5648C74.1156 70.5685 74.0882 70.5648 74.0638 70.5648C74.2952 70.7967 74.5266 71.0286 74.7579 71.2606C74.7579 69.1619 74.7579 67.0633 74.7579 64.9647C74.7579 59.9241 74.7579 54.8835 74.7579 49.8429C74.7579 43.7432 74.7579 37.6435 74.7579 31.5438C74.7579 26.2678 74.7579 20.9919 74.7579 15.7159C74.7579 13.9752 74.7579 12.2346 74.7579 10.4939C74.7579 9.68702 74.8553 8.81056 74.7579 8.00791C74.7536 7.97198 74.7579 7.93302 74.7579 7.89666C74.5266 8.12858 74.2952 8.36051 74.0638 8.59243C75.4633 8.59243 76.8627 8.59243 78.2622 8.59243C81.6229 8.59243 84.9835 8.59243 88.3442 8.59243C92.4095 8.59243 96.4748 8.59243 100.54 8.59243C104.053 8.59243 107.567 8.59243 111.08 8.59243C112.229 8.59243 113.378 8.59243 114.526 8.59243C115.058 8.59243 115.662 8.67393 116.189 8.59243C116.213 8.58873 116.24 8.59243 116.265 8.59243C116.033 8.36051 115.802 8.12858 115.57 7.89666C115.57 9.99528 115.57 12.0939 115.57 14.1925C115.57 19.2331 115.57 24.2737 115.57 29.3143C115.57 35.414 115.57 41.5137 115.57 47.6134C115.57 52.8894 115.57 58.1654 115.57 63.4413C115.57 66.0045 115.478 68.5873 115.57 71.1493C115.572 71.1863 115.57 71.2235 115.57 71.2606C115.57 72.1559 116.959 72.1574 116.959 71.2606C116.959 69.1619 116.959 67.0633 116.959 64.9647C116.959 59.9241 116.959 54.8835 116.959 49.8429C116.959 43.7432 116.959 37.6435 116.959 31.5438C116.959 26.2678 116.959 20.9919 116.959 15.7159C116.959 13.1527 117.051 10.5699 116.959 8.00791C116.957 7.97093 116.959 7.93368 116.959 7.89666C116.959 7.52054 116.641 7.20089 116.265 7.20089C114.865 7.20089 113.466 7.20089 112.066 7.20089C108.706 7.20089 105.345 7.20089 101.984 7.20089C97.9189 7.20089 93.8536 7.20089 89.7883 7.20089C86.275 7.20089 82.7617 7.20089 79.2483 7.20089C77.5518 7.20089 75.8348 7.12352 74.1395 7.20089C74.1144 7.20204 74.0889 7.20089 74.0638 7.20089C73.6885 7.20089 73.3696 7.51967 73.3696 7.89666C73.3696 9.99528 73.3696 12.0939 73.3696 14.1925C73.3696 19.2331 73.3696 24.2737 73.3696 29.3143C73.3696 35.414 73.3696 41.5137 73.3696 47.6134C73.3696 52.8894 73.3696 58.1654 73.3696 63.4413C73.3696 66.0045 73.277 68.5873 73.3696 71.1493C73.371 71.1863 73.3696 71.2235 73.3696 71.2606C73.3696 71.6367 73.6877 71.9563 74.0638 71.9563C75.4633 71.9563 76.8627 71.9563 78.2622 71.9563C81.6229 71.9563 84.9835 71.9563 88.3442 71.9563C92.4095 71.9563 96.4748 71.9563 100.54 71.9563C104.053 71.9563 107.567 71.9563 111.08 71.9563C112.777 71.9563 114.494 72.0337 116.189 71.9563C116.214 71.9552 116.239 71.9563 116.265 71.9563C117.158 71.9563 117.159 70.5648 116.265 70.5648Z" fill="#FF9180"></path><path d="M116.265 70.5648C114.866 70.5648 113.466 70.5648 112.067 70.5648C108.706 70.5648 105.345 70.5648 101.985 70.5648C97.9193 70.5648 93.854 70.5648 89.7887 70.5648C86.2754 70.5648 82.762 70.5648 79.2487 70.5648C78.0999 70.5648 76.9511 70.5648 75.8024 70.5648C75.2712 70.5648 74.6666 70.4833 74.1398 70.5648C74.1159 70.5685 74.0885 70.5648 74.0642 70.5648C74.2955 70.7968 74.5269 71.0287 74.7583 71.2606C74.7583 69.162 74.7583 67.0634 74.7583 64.9648C74.7583 59.9242 74.7583 54.8836 74.7583 49.843C74.7583 43.7433 74.7583 37.6435 74.7583 31.5438C74.7583 26.2679 74.7583 20.9919 74.7583 15.7159C74.7583 13.1527 74.8509 10.57 74.7583 8.00795C74.757 7.97097 74.7583 7.93372 74.7583 7.89671C74.7583 7.00132 73.37 6.99984 73.37 7.89671C73.37 9.99532 73.37 12.0939 73.37 14.1926C73.37 19.2332 73.37 24.2737 73.37 29.3144C73.37 35.4141 73.37 41.5138 73.37 47.6135C73.37 52.8895 73.37 58.1654 73.37 63.4414C73.37 66.0046 73.2774 68.5873 73.37 71.1494C73.3713 71.1863 73.37 71.2236 73.37 71.2606C73.37 71.6367 73.688 71.9564 74.0642 71.9564C75.4636 71.9564 76.8631 71.9564 78.2625 71.9564C81.6232 71.9564 84.9839 71.9564 88.3446 71.9564C92.4099 71.9564 96.4752 71.9564 100.54 71.9564C104.054 71.9564 107.567 71.9564 111.08 71.9564C112.777 71.9564 114.494 72.0338 116.189 71.9564C116.214 71.9552 116.24 71.9564 116.265 71.9564C117.158 71.9564 117.16 70.5648 116.265 70.5648Z" fill="#FF765C"></path><path d="M82.4892 15.6968H37.51V79.0607H82.4892V15.6968Z" fill="#A3D2A9"></path><path d="M82.4894 78.3645C80.9985 78.3645 79.5076 78.3645 78.0167 78.3645C74.4362 78.3645 70.8557 78.3645 67.2752 78.3645C62.9434 78.3645 58.6116 78.3645 54.2798 78.3645C50.535 78.3645 46.7901 78.3645 43.0453 78.3645C41.8112 78.3645 40.5771 78.3645 39.343 78.3645C38.7793 78.3645 38.1461 78.2829 37.5865 78.3645C37.5621 78.3681 37.535 78.3645 37.5102 78.3645C37.7416 78.5964 37.973 78.8284 38.2043 79.0603C38.2043 76.9617 38.2043 74.863 38.2043 72.7644C38.2043 67.7238 38.2043 62.6832 38.2043 57.6426C38.2043 51.5429 38.2043 45.4432 38.2043 39.3435C38.2043 34.0675 38.2043 28.7916 38.2043 23.5156C38.2043 21.7749 38.2043 20.0343 38.2043 18.2936C38.2043 17.4867 38.3017 16.6103 38.2043 15.8076C38.2 15.7717 38.2043 15.7327 38.2043 15.6964C37.973 15.9283 37.7416 16.1602 37.5102 16.3921C39.0011 16.3921 40.492 16.3921 41.9829 16.3921C45.5634 16.3921 49.1439 16.3921 52.7244 16.3921C57.0562 16.3921 61.388 16.3921 65.7198 16.3921C69.4646 16.3921 73.2095 16.3921 76.9543 16.3921C78.1884 16.3921 79.4225 16.3921 80.6566 16.3921C81.2203 16.3921 81.8535 16.4738 82.4131 16.3921C82.4374 16.3886 82.4646 16.3921 82.4894 16.3921C82.258 16.1602 82.0266 15.9283 81.7952 15.6964C81.7952 17.795 81.7952 19.8936 81.7952 21.9922C81.7952 27.0328 81.7952 32.0734 81.7952 37.114C81.7952 43.2137 81.7952 49.3134 81.7952 55.4132C81.7952 60.6891 81.7952 65.9651 81.7952 71.241C81.7952 73.8042 81.7027 76.387 81.7952 78.949C81.7966 78.986 81.7952 79.0233 81.7952 79.0603C81.7952 79.9557 83.1835 79.9571 83.1835 79.0603C83.1835 76.9617 83.1835 74.863 83.1835 72.7644C83.1835 67.7238 83.1835 62.6832 83.1835 57.6426C83.1835 51.5429 83.1835 45.4432 83.1835 39.3435C83.1835 34.0675 83.1835 28.7916 83.1835 23.5156C83.1835 20.9524 83.2761 18.3696 83.1835 15.8076C83.1822 15.7706 83.1835 15.7334 83.1835 15.6964C83.1835 15.3203 82.8655 15.0006 82.4894 15.0006C80.9985 15.0006 79.5076 15.0006 78.0167 15.0006C74.4362 15.0006 70.8557 15.0006 67.2752 15.0006C62.9434 15.0006 58.6116 15.0006 54.2798 15.0006C50.535 15.0006 46.7901 15.0006 43.0453 15.0006C41.2322 15.0006 39.3984 14.9201 37.5865 15.0006C37.5612 15.0017 37.5356 15.0006 37.5102 15.0006C37.135 15.0006 36.8161 15.3194 36.8161 15.6964C36.8161 17.795 36.8161 19.8936 36.8161 21.9922C36.8161 27.0328 36.8161 32.0734 36.8161 37.114C36.8161 43.2137 36.8161 49.3134 36.8161 55.4132C36.8161 60.6891 36.8161 65.9651 36.8161 71.241C36.8161 73.8042 36.7235 76.387 36.8161 78.949C36.8174 78.986 36.8161 79.0233 36.8161 79.0603C36.8161 79.4364 37.1341 79.7561 37.5102 79.7561C39.0011 79.7561 40.492 79.7561 41.9829 79.7561C45.5634 79.7561 49.1439 79.7561 52.7244 79.7561C57.0562 79.7561 61.388 79.7561 65.7198 79.7561C69.4646 79.7561 73.2095 79.7561 76.9543 79.7561C78.7674 79.7561 80.6012 79.8365 82.4131 79.7561C82.4384 79.7549 82.464 79.7561 82.4894 79.7561C83.3827 79.756 83.3842 78.3645 82.4894 78.3645Z" fill="#A3D2A9"></path><path d="M82.4898 78.3647C80.9989 78.3647 79.508 78.3647 78.0171 78.3647C74.4366 78.3647 70.8561 78.3647 67.2756 78.3647C62.9438 78.3647 58.612 78.3647 54.2802 78.3647C50.5353 78.3647 46.7905 78.3647 43.0457 78.3647C41.8116 78.3647 40.5775 78.3647 39.3434 78.3647C38.7796 78.3647 38.1464 78.283 37.5869 78.3647C37.5625 78.3682 37.5353 78.3647 37.5106 78.3647C37.7419 78.5966 37.9733 78.8285 38.2047 79.0604C38.2047 76.9618 38.2047 74.8632 38.2047 72.7646C38.2047 67.724 38.2047 62.6834 38.2047 57.6428C38.2047 51.5431 38.2047 45.4433 38.2047 39.3436C38.2047 34.0677 38.2047 28.7917 38.2047 23.5158C38.2047 20.9525 38.2973 18.3698 38.2047 15.8078C38.2034 15.7708 38.2047 15.7335 38.2047 15.6965C38.2047 14.8011 36.8164 14.7996 36.8164 15.6965C36.8164 17.7951 36.8164 19.8937 36.8164 21.9924C36.8164 27.033 36.8164 32.0736 36.8164 37.1142C36.8164 43.2139 36.8164 49.3136 36.8164 55.4133C36.8164 60.6893 36.8164 65.9652 36.8164 71.2412C36.8164 73.8044 36.7238 76.3871 36.8164 78.9492C36.8178 78.9862 36.8164 79.0234 36.8164 79.0604C36.8164 79.4365 37.1345 79.7562 37.5106 79.7562C39.0015 79.7562 40.4924 79.7562 41.9832 79.7562C45.5637 79.7562 49.1442 79.7562 52.7247 79.7562C57.0565 79.7562 61.3883 79.7562 65.7202 79.7562C69.465 79.7562 73.2098 79.7562 76.9547 79.7562C78.7678 79.7562 80.6016 79.8366 82.4135 79.7562C82.4388 79.7551 82.4644 79.7562 82.4898 79.7562C83.3831 79.7562 83.3845 78.3647 82.4898 78.3647Z" fill="#7CBF99"></path><path d="M69.4888 101.802V74.9502H50.5109V101.802H42.5339L59.9998 119.308L77.4657 101.802H69.4888Z" fill="#FFD483"></path><path d="M70.183 101.802C70.183 98.7693 70.183 95.7367 70.183 92.7042C70.183 87.8936 70.183 83.0831 70.183 78.2725C70.183 77.1651 70.183 76.0576 70.183 74.9502C70.183 74.574 69.865 74.2544 69.4889 74.2544C63.9378 74.2544 58.3867 74.2544 52.8356 74.2544C52.0607 74.2544 51.2859 74.2544 50.511 74.2544C50.1358 74.2544 49.8169 74.5732 49.8169 74.9502C49.8169 77.9827 49.8169 81.0152 49.8169 84.0478C49.8169 88.8584 49.8169 93.6689 49.8169 98.4795C49.8169 99.5869 49.8169 100.694 49.8169 101.802C50.0483 101.57 50.2796 101.338 50.511 101.106C47.852 101.106 45.193 101.106 42.534 101.106C41.9329 101.106 41.6178 101.867 42.0432 102.294C44.0041 104.259 45.9651 106.225 47.926 108.19C51.0679 111.34 54.2097 114.489 57.3516 117.638C58.0707 118.359 58.7899 119.08 59.509 119.8C59.7741 120.066 60.225 120.067 60.4907 119.8C62.4516 117.835 64.4126 115.869 66.3735 113.904C69.5154 110.755 72.6573 107.605 75.7992 104.456C76.5183 103.735 77.2375 103.015 77.9566 102.294C78.3817 101.868 78.0674 101.106 77.4658 101.106C74.8068 101.106 72.1479 101.106 69.4889 101.106C68.5956 101.106 68.5941 102.498 69.4889 102.498C72.1479 102.498 74.8068 102.498 77.4658 102.498C77.3022 102.102 77.1386 101.706 76.9749 101.31C75.014 103.275 73.053 105.241 71.0921 107.206C67.9502 110.356 64.8084 113.505 61.6665 116.654C60.9473 117.375 60.2282 118.096 59.509 118.816C59.8363 118.816 60.1635 118.816 60.4907 118.816C58.5298 116.851 56.5688 114.885 54.6079 112.92C51.4661 109.771 48.3242 106.622 45.1823 103.472C44.4632 102.751 43.744 102.031 43.0249 101.31C42.8613 101.706 42.6977 102.102 42.534 102.498C45.193 102.498 47.852 102.498 50.511 102.498C50.8863 102.498 51.2052 102.179 51.2052 101.802C51.2052 98.7693 51.2052 95.7367 51.2052 92.7042C51.2052 87.8936 51.2052 83.0831 51.2052 78.2725C51.2052 77.1651 51.2052 76.0576 51.2052 74.9502C50.9738 75.1821 50.7424 75.414 50.511 75.6459C56.0621 75.6459 61.6132 75.6459 67.1643 75.6459C67.9392 75.6459 68.714 75.6459 69.4889 75.6459C69.2575 75.414 69.0261 75.1821 68.7947 74.9502C68.7947 77.9827 68.7947 81.0152 68.7947 84.0478C68.7947 88.8583 68.7947 93.6689 68.7947 98.4795C68.7947 99.5869 68.7947 100.694 68.7947 101.802C68.7947 102.697 70.183 102.699 70.183 101.802Z" fill="#FFD483"></path><path d="M42.0432 102.294C44.0041 104.259 45.965 106.225 47.926 108.19C51.0678 111.339 54.2097 114.489 57.3516 117.638C58.0707 118.359 58.7898 119.079 59.509 119.8C59.7741 120.066 60.225 120.067 60.4907 119.8C62.4516 117.835 64.4126 115.869 66.3735 113.904C69.5154 110.755 72.6573 107.605 75.7991 104.456C76.5183 103.735 77.2374 103.015 77.9566 102.294C78.5891 101.66 77.6077 100.675 76.9749 101.31C75.014 103.275 73.053 105.241 71.0921 107.206C67.9502 110.355 64.8083 113.505 61.6665 116.654C60.9473 117.375 60.2281 118.096 59.509 118.816C59.8362 118.816 60.1635 118.816 60.4907 118.816C58.5297 116.851 56.5688 114.885 54.6079 112.92C51.466 109.771 48.3242 106.621 45.1823 103.472C44.4632 102.751 43.744 102.031 43.0249 101.31C42.3923 100.676 41.4103 101.659 42.0432 102.294Z" fill="#025749"></path><path d="M32.1522 87.9852V69.9033H19.3725V87.9852H14.0009L25.7623 99.7741L37.5238 87.9852H32.1522Z" fill="#FF9180"></path><path d="M32.8463 87.9852C32.8463 82.7053 32.8463 77.4253 32.8463 72.1454C32.8463 71.3981 32.8463 70.6507 32.8463 69.9033C32.8463 69.5272 32.5283 69.2075 32.1522 69.2075C28.4197 69.2075 24.6871 69.2075 20.9546 69.2075C20.4272 69.2075 19.8999 69.2075 19.3725 69.2075C18.9973 69.2075 18.6784 69.5263 18.6784 69.9033C18.6784 75.1832 18.6784 80.4631 18.6784 85.743C18.6784 86.4904 18.6784 87.2378 18.6784 87.9852C18.9098 87.7532 19.1411 87.5213 19.3725 87.2894C17.582 87.2894 15.7914 87.2894 14.0008 87.2894C13.3997 87.2894 13.0846 88.0507 13.51 88.4771C16.9451 91.9202 20.3801 95.3633 23.8152 98.8064C24.3006 99.2929 24.786 99.7795 25.2715 100.266C25.5366 100.532 25.9875 100.532 26.2531 100.266C29.6882 96.823 33.1233 93.3799 36.5584 89.9368C37.0438 89.4503 37.5292 88.9637 38.0147 88.4771C38.4398 88.051 38.1255 87.2894 37.5238 87.2894C35.7333 87.2894 33.9427 87.2894 32.1522 87.2894C31.2589 87.2894 31.2574 88.6809 32.1522 88.6809C33.9427 88.6809 35.7333 88.6809 37.5238 88.6809C37.3602 88.285 37.1966 87.8891 37.033 87.4932C33.5979 90.9363 30.1628 94.3793 26.7277 97.8224C26.2423 98.309 25.7569 98.7955 25.2715 99.2821C25.5987 99.2821 25.9259 99.2821 26.2531 99.2821C22.8181 95.839 19.383 92.3959 15.948 88.9529C15.4625 88.4663 14.9771 87.9797 14.4917 87.4932C14.3281 87.8891 14.1645 88.285 14.0008 88.6809C15.7914 88.6809 17.582 88.6809 19.3725 88.6809C19.7478 88.6809 20.0667 88.3622 20.0667 87.9852C20.0667 82.7053 20.0667 77.4253 20.0667 72.1454C20.0667 71.3981 20.0667 70.6507 20.0667 69.9033C19.8353 70.1352 19.6039 70.3671 19.3725 70.5991C23.1051 70.5991 26.8376 70.5991 30.5701 70.5991C31.0975 70.5991 31.6248 70.5991 32.1522 70.5991C31.9208 70.3671 31.6894 70.1352 31.4581 69.9033C31.4581 75.1832 31.4581 80.4631 31.4581 85.743C31.4581 86.4904 31.4581 87.2378 31.4581 87.9852C31.458 88.8805 32.8463 88.882 32.8463 87.9852Z" fill="#FF9180"></path><path d="M13.5099 88.4773C16.9449 91.9204 20.38 95.3635 23.815 98.8066C24.3005 99.2931 24.7859 99.7797 25.2713 100.266C25.5364 100.532 25.9873 100.533 26.253 100.266C29.6881 96.8232 33.1231 93.3801 36.5582 89.937C37.0437 89.4504 37.5291 88.9639 38.0145 88.4773C38.6471 87.8433 37.6657 86.8591 37.0328 87.4934C33.5978 90.9364 30.1627 94.3795 26.7276 97.8226C26.2422 98.3092 25.7567 98.7957 25.2713 99.2823C25.5985 99.2823 25.9258 99.2823 26.253 99.2823C22.8179 95.8392 19.3829 92.3961 15.9478 88.953C15.4624 88.4665 14.977 87.9799 14.4915 87.4934C13.859 86.8593 12.877 87.843 13.5099 88.4773Z" fill="#025749"></path><path fill-rule="evenodd" clip-rule="evenodd" d="M60 31C52.2673 31 46 37.2685 46 45C46 52.7315 52.2673 59 60 59C67.7315 59 74 52.7315 74 45C74 37.2685 67.7315 31 60 31ZM60.1633 53.1877C55.6507 53.1877 51.9967 49.5243 51.9967 45C51.9967 40.4757 55.6507 36.8123 60.1633 36.8123C62.3683 36.8123 64.2117 37.6255 65.6257 38.9462L63.3227 41.2538V41.2492C62.4652 40.4302 61.3778 40.0102 60.1633 40.0102C57.4683 40.0102 55.2785 42.2922 55.2785 44.9953C55.2785 47.6962 57.4683 49.9852 60.1633 49.9852C62.6087 49.9852 64.2723 48.5828 64.6153 46.6578H60.1633V43.4647H67.8458C67.9485 44.013 68.0033 44.5847 68.0033 45.1843C68.0033 49.8627 64.8802 53.1877 60.1633 53.1877Z" fill="white"></path></g><defs><clipPath id="clip0_1067_32699"><rect width="114" height="120" fill="white" transform="translate(3)"></rect></clipPath><clipPath id="clip1_1067_32699"><rect width="30" height="30" fill="white" transform="translate(10 16)"></rect></clipPath></defs></svg> 