<?xml version="1.0" encoding="UTF-8"?> <svg xmlns="http://www.w3.org/2000/svg" width="120" height="120" viewBox="0 0 120 120" fill="none"><rect width="120" height="120" fill="white"></rect><path d="M31.341 66.8177C42.6357 66.8177 51.792 57.668 51.792 46.3813C51.792 35.0945 42.6357 25.9448 31.341 25.9448C20.0462 25.9448 10.89 35.0945 10.89 46.3813C10.89 57.668 20.0462 66.8177 31.341 66.8177Z" fill="#FFF0E9"></path><path d="M10.1947 46.3812C10.2292 55.1856 15.8177 63.1924 24.0927 66.2357C32.4013 69.2914 42.0651 66.6477 47.6677 59.806C53.28 52.9524 54.0503 43.0498 49.4438 35.4539C44.858 27.8922 35.842 23.9507 27.1697 25.6629C18.6318 27.3486 11.7791 34.4689 10.4576 43.0696C10.289 44.167 10.1991 45.2709 10.1947 46.3812C10.1912 47.2754 11.5817 47.2766 11.5852 46.3812C11.6172 38.1992 16.809 30.6512 24.5349 27.8399C32.3578 24.9932 41.2756 27.4316 46.5879 33.8219C51.8882 40.1977 52.5337 49.5324 48.2432 56.6072C43.9657 63.6606 35.4802 67.3921 27.3848 65.7286C19.3653 64.0806 13.0837 57.4788 11.8104 49.4019C11.653 48.4033 11.5891 47.3915 11.5852 46.3812C11.5817 45.4873 10.1912 45.4855 10.1947 46.3812Z" fill="#FFF0E9"></path><path d="M72.3571 104.198C83.6518 104.198 92.8081 95.0484 92.8081 83.7616C92.8081 72.4749 83.6518 63.3252 72.3571 63.3252C61.0623 63.3252 51.9061 72.4749 51.9061 83.7616C51.9061 95.0484 61.0623 104.198 72.3571 104.198Z" fill="#FFF0E9"></path><path d="M51.2108 83.7616C51.2453 92.5659 56.8339 100.573 65.1088 103.616C73.4174 106.672 83.0812 104.028 88.6838 97.1863C94.2962 90.3328 95.0664 80.4301 90.4599 72.8343C85.8741 65.2725 76.8581 61.331 68.1858 63.0432C59.6479 64.7289 52.7952 71.8493 51.4737 80.45C51.3051 81.5474 51.2152 82.6513 51.2108 83.7616C51.2073 84.6558 52.5978 84.6569 52.6013 83.7616C52.6333 75.5796 57.8251 68.0315 65.551 65.2202C73.3739 62.3736 82.2917 64.812 87.604 71.2022C92.9043 77.578 93.5498 86.9127 89.2593 93.9876C84.9818 101.041 76.4963 104.772 68.401 103.109C60.3814 101.461 54.0998 94.8592 52.8265 86.7822C52.6691 85.7836 52.6052 84.7719 52.6013 83.7616C52.5978 82.8677 51.2073 82.8659 51.2108 83.7616Z" fill="#FFF0E9"></path><path d="M89.6173 37.8169C94.3496 37.8169 98.1859 33.9833 98.1859 29.2544C98.1859 24.5255 94.3496 20.6919 89.6173 20.6919C84.885 20.6919 81.0487 24.5255 81.0487 29.2544C81.0487 33.9833 84.885 37.8169 89.6173 37.8169Z" fill="#FFF0E9"></path><path d="M80.3536 29.2542C80.3898 33.1422 82.8301 36.6316 86.4909 37.9687C90.0809 39.2799 94.2984 38.132 96.7269 35.1847C99.2129 32.1678 99.587 27.808 97.5384 24.4514C95.5275 21.1566 91.6257 19.4586 87.8407 20.1692C83.5139 20.9816 80.3941 24.9009 80.3536 29.2542C80.3452 30.1485 81.7357 30.1493 81.744 29.2542C81.7742 26.0186 83.788 23.0017 86.8606 21.8795C90.0021 20.7321 93.5517 21.6844 95.6951 24.2482C97.8036 26.7702 98.0591 30.4813 96.3768 33.2904C94.6859 36.1137 91.2923 37.6384 88.0561 36.9688C84.4007 36.2126 81.7786 32.9707 81.744 29.2542C81.7357 28.3605 80.3452 28.3583 80.3536 29.2542Z" fill="#FFF0E9"></path><path d="M107.401 30.7149C110.037 30.7149 112.174 28.5793 112.174 25.9448C112.174 23.3104 110.037 21.1748 107.401 21.1748C104.764 21.1748 102.627 23.3104 102.627 25.9448C102.627 28.5793 104.764 30.7149 107.401 30.7149Z" fill="#FFF0E9"></path><path d="M101.932 25.9449C101.963 28.2281 103.366 30.2556 105.504 31.0686C107.63 31.8765 110.162 31.1976 111.6 29.44C113.049 27.6695 113.285 25.1298 112.102 23.1509C110.921 21.1763 108.615 20.1763 106.365 20.5809C103.798 21.0426 101.967 23.3796 101.932 25.9449C101.92 26.8393 103.31 26.8397 103.323 25.9449C103.346 24.2579 104.385 22.6962 105.993 22.1172C107.627 21.529 109.48 22.0365 110.578 23.384C111.645 24.6952 111.765 26.5922 110.901 28.0376C110.045 29.4694 108.321 30.2738 106.671 29.9575C104.734 29.5863 103.35 27.9077 103.323 25.9449C103.31 25.0515 101.92 25.049 101.932 25.9449Z" fill="#FFF0E9"></path><path d="M119.328 34.2217H89.7522C84.6643 34.2217 80.5397 38.3433 80.5397 43.4277V76.6853H110.116V43.4277C110.116 38.3434 114.24 34.2217 119.328 34.2217Z" fill="#C1E2EC"></path><path d="M119.328 33.5269C114.881 33.5269 110.434 33.5269 105.986 33.5269C100.705 33.5269 95.4238 33.5269 90.1426 33.5269C86.6667 33.5269 83.4539 35.0329 81.4917 37.9611C80.4034 39.5852 79.8567 41.5137 79.8445 43.4616C79.8417 43.8954 79.8445 44.3293 79.8445 44.7631C79.8445 50.4579 79.8445 56.1526 79.8445 61.8474C79.8445 66.7096 79.8445 71.5719 79.8445 76.4341C79.8445 76.5178 79.8445 76.6015 79.8445 76.6852C79.8445 77.0608 80.163 77.38 80.5397 77.38C83.8734 77.38 87.2071 77.38 90.5408 77.38C95.8512 77.38 101.162 77.38 106.472 77.38C107.687 77.38 108.901 77.38 110.116 77.38C110.492 77.38 110.811 77.0617 110.811 76.6852C110.811 75.1303 110.811 73.5754 110.811 72.0205C110.811 68.5335 110.811 65.0464 110.811 61.5593C110.811 57.8358 110.811 54.1123 110.811 50.3888C110.811 48.1846 110.811 45.9803 110.811 43.7761C110.811 42.3925 111.021 41.0372 111.629 39.7787C112.753 37.4531 114.871 35.7314 117.39 35.1375C118.029 34.987 118.673 34.922 119.328 34.9164C120.223 34.9087 120.225 33.5192 119.328 33.5269C113.9 33.5736 109.458 38.005 109.421 43.4343C109.409 45.1424 109.421 46.851 109.421 48.5592C109.421 52.218 109.421 55.8768 109.421 59.5356C109.421 63.2601 109.421 66.9846 109.421 70.7091C109.421 72.0306 109.421 73.3521 109.421 74.6736C109.421 75.2947 109.338 75.9792 109.421 76.5963C109.424 76.6249 109.421 76.6563 109.421 76.6852C109.652 76.4537 109.884 76.2221 110.116 75.9905C106.782 75.9905 103.448 75.9905 100.115 75.9905C94.8044 75.9905 89.494 75.9905 84.1837 75.9905C82.969 75.9905 81.7544 75.9905 80.5397 75.9905C80.7715 76.2221 81.0032 76.4537 81.2349 76.6852C81.2349 72.6492 81.2349 68.6132 81.2349 64.5772C81.2349 58.5082 81.2349 52.4391 81.2349 46.3701C81.2349 44.9565 81.1044 43.4265 81.3463 42.0261C82.0559 37.9195 85.6498 34.9399 89.8005 34.9164C94.4626 34.8899 99.1255 34.9164 103.788 34.9164C108.874 34.9164 113.96 34.9164 119.047 34.9164C119.141 34.9164 119.235 34.9164 119.328 34.9164C120.223 34.9164 120.225 33.5269 119.328 33.5269Z" fill="#C1E2EC"></path><path d="M84.8078 59.1312C90.0069 59.1312 95.2061 59.1312 100.405 59.1312C101.146 59.1312 101.887 59.1312 102.627 59.1312C103.522 59.1312 103.524 57.7407 102.627 57.7407C97.4283 57.7407 92.2292 57.7407 87.03 57.7407C86.2893 57.7407 85.5486 57.7407 84.8078 57.7407C83.9131 57.7407 83.9116 59.1312 84.8078 59.1312Z" fill="white"></path><path d="M84.8077 63.4989C90.0068 63.4989 95.2059 63.4989 100.405 63.4989C101.146 63.4989 101.887 63.4989 102.627 63.4989C103.522 63.4989 103.523 62.1084 102.627 62.1084C97.4282 62.1084 92.229 62.1084 87.0299 62.1084C86.2892 62.1084 85.5484 62.1084 84.8077 62.1084C83.913 62.1084 83.9115 63.4989 84.8077 63.4989Z" fill="white"></path><path d="M84.8077 67.867C90.0068 67.867 95.2059 67.867 100.405 67.867C101.146 67.867 101.887 67.867 102.627 67.867C103.522 67.867 103.523 66.4766 102.627 66.4766C97.4282 66.4766 92.229 66.4766 87.0299 66.4766C86.2892 66.4766 85.5484 66.4766 84.8077 66.4766C83.913 66.4766 83.9115 67.867 84.8077 67.867Z" fill="white"></path><path d="M84.8077 72.2347C90.0068 72.2347 95.2059 72.2347 100.405 72.2347C101.146 72.2347 101.887 72.2347 102.627 72.2347C103.522 72.2347 103.523 70.8442 102.627 70.8442C97.4282 70.8442 92.229 70.8442 87.0299 70.8442C86.2892 70.8442 85.5484 70.8442 84.8077 70.8442C83.913 70.8442 83.9115 72.2347 84.8077 72.2347Z" fill="white"></path><path d="M84.8077 76.6029C87.6168 76.6029 90.4259 76.6029 93.235 76.6029C93.6322 76.6029 94.0295 76.6029 94.4268 76.6029C95.3215 76.6029 95.323 75.2124 94.4268 75.2124C91.6177 75.2124 88.8086 75.2124 85.9995 75.2124C85.6022 75.2124 85.205 75.2124 84.8077 75.2124C83.913 75.2124 83.9115 76.6029 84.8077 76.6029Z" fill="white"></path><path d="M101.693 53.7582H85.742C85.2261 53.7582 84.8079 53.3402 84.8079 52.8247V51.6767C84.8079 51.1611 85.2261 50.7432 85.742 50.7432H101.693C102.209 50.7432 102.627 51.1611 102.627 51.6767V52.8247C102.627 53.3402 102.209 53.7582 101.693 53.7582Z" fill="white"></path><path d="M101.693 53.0637C96.6239 53.0637 91.5546 53.0637 86.4853 53.0637C86.268 53.0637 85.9829 53.1133 85.7694 53.0637C85.5858 53.021 85.5316 52.9614 85.503 52.7692C85.46 52.4799 85.4277 51.9672 85.503 51.6915C85.6314 51.2216 86.851 51.4382 87.2272 51.4382C90.3533 51.4382 93.4794 51.4382 96.6055 51.4382C98.0358 51.4382 99.4662 51.4382 100.897 51.4382C101.127 51.4382 101.458 51.3772 101.683 51.4382C102.005 51.5253 101.932 51.8021 101.932 52.081C101.932 52.3305 102.066 53.0336 101.693 53.0637C100.807 53.1351 100.8 54.5252 101.693 54.4532C102.349 54.4003 102.91 54.0928 103.18 53.4706C103.37 53.0329 103.323 52.5476 103.323 52.081C103.323 51.0253 102.867 50.1042 101.683 50.0487C100.823 50.0084 99.9521 50.0487 99.0916 50.0487C95.5684 50.0487 92.0451 50.0487 88.5218 50.0487C87.611 50.0487 86.6916 50.0115 85.7814 50.0487C84.7742 50.0898 84.1355 50.8095 84.1125 51.7963C84.089 52.8048 84.0719 54.0237 85.2618 54.3808C86.0152 54.6068 86.9873 54.4532 87.755 54.4532C89.454 54.4532 91.1531 54.4532 92.8522 54.4532C95.7992 54.4532 98.7462 54.4532 101.693 54.4532C102.588 54.4532 102.589 53.0637 101.693 53.0637Z" fill="white"></path><path d="M71.3713 91.0056L100.947 91.0056C106.035 91.0056 110.16 86.8839 110.16 81.7996L110.16 48.542L80.5839 48.542L80.5839 81.7996C80.5839 86.884 76.4594 91.0056 71.3713 91.0056Z" fill="#C1E2EC"></path><path d="M71.3713 91.7003C75.8187 91.7003 80.2661 91.7003 84.7135 91.7003C89.9947 91.7003 95.2759 91.7003 100.557 91.7003C104.033 91.7003 107.246 90.1942 109.208 87.266C110.296 85.6419 110.843 83.7134 110.855 81.7656C110.858 81.3318 110.855 80.8978 110.855 80.464C110.855 74.7693 110.855 69.0745 110.855 63.3798C110.855 58.5175 110.855 53.6553 110.855 48.793C110.855 48.7093 110.855 48.6256 110.855 48.5419C110.855 48.1663 110.537 47.8472 110.16 47.8472C106.826 47.8472 103.493 47.8472 100.159 47.8472C94.8485 47.8472 89.5381 47.8472 84.2278 47.8472C83.0131 47.8472 81.7985 47.8472 80.5838 47.8472C80.208 47.8472 79.8886 48.1655 79.8886 48.5419C79.8886 50.0968 79.8886 51.6517 79.8886 53.2066C79.8886 56.6937 79.8886 60.1808 79.8886 63.6679C79.8886 67.3914 79.8886 71.1149 79.8886 74.8384C79.8886 77.0426 79.8886 79.2468 79.8886 81.4511C79.8886 82.8347 79.6791 84.19 79.0707 85.4485C77.9464 87.7741 75.8289 89.4958 73.3096 90.0896C72.6707 90.2402 72.0271 90.3052 71.3713 90.3108C70.477 90.3185 70.4748 91.708 71.3713 91.7003C76.8002 91.6535 81.2414 87.2222 81.2791 81.7929C81.2909 80.0848 81.279 78.3761 81.279 76.668C81.279 73.0092 81.279 69.3503 81.279 65.6915C81.279 61.967 81.279 58.2426 81.279 54.5181C81.279 53.1966 81.279 51.8751 81.279 50.5536C81.279 49.9325 81.3611 49.2479 81.279 48.6309C81.2752 48.6023 81.279 48.5709 81.279 48.5419C81.0473 48.7735 80.8155 49.0051 80.5838 49.2366C83.9175 49.2366 87.2512 49.2366 90.5849 49.2366C95.8953 49.2366 101.206 49.2366 106.516 49.2366C107.731 49.2366 108.945 49.2366 110.16 49.2366C109.928 49.0051 109.696 48.7735 109.465 48.5419C109.465 52.5779 109.465 56.6139 109.465 60.65C109.465 66.719 109.465 72.788 109.465 78.8571C109.465 80.2706 109.595 81.8007 109.353 83.201C108.644 87.3076 105.05 90.2872 100.899 90.3108C96.2371 90.3373 91.5741 90.3108 86.912 90.3108C81.8256 90.3108 76.7392 90.3108 71.6528 90.3108C71.559 90.3108 71.4651 90.3108 71.3713 90.3108C70.4766 90.3108 70.4751 91.7003 71.3713 91.7003Z" fill="#C1E2EC"></path><path d="M71.3713 91.6997C76.2041 91.6997 81.0369 91.6997 85.8698 91.6997C90.8881 91.6997 95.9076 91.7332 100.926 91.6997C106.365 91.6635 110.808 87.2352 110.855 81.799C110.863 80.9047 109.472 80.9038 109.465 81.799C109.424 86.473 105.616 90.2762 100.938 90.3103C99.3935 90.3215 97.8487 90.3103 96.3044 90.3103C89.7489 90.3103 83.1934 90.3103 76.6379 90.3103C74.8824 90.3103 73.1268 90.3103 71.3713 90.3103C70.4766 90.3103 70.4751 91.6997 71.3713 91.6997Z" fill="#ACD3E1"></path><path d="M84.8078 59.1307C90.0069 59.1307 95.2061 59.1307 100.405 59.1307C101.146 59.1307 101.887 59.1307 102.627 59.1307C103.522 59.1307 103.524 57.7402 102.627 57.7402C97.4283 57.7402 92.2292 57.7402 87.03 57.7402C86.2893 57.7402 85.5486 57.7402 84.8078 57.7402C83.9131 57.7402 83.9116 59.1307 84.8078 59.1307Z" fill="white"></path><path d="M84.8078 63.4984C90.0069 63.4984 95.2061 63.4984 100.405 63.4984C101.146 63.4984 101.887 63.4984 102.627 63.4984C103.522 63.4984 103.524 62.1079 102.627 62.1079C97.4283 62.1079 92.2292 62.1079 87.03 62.1079C86.2893 62.1079 85.5486 62.1079 84.8078 62.1079C83.9131 62.1079 83.9116 63.4984 84.8078 63.4984Z" fill="white"></path><path d="M84.8078 67.8665C90.0069 67.8665 95.2061 67.8665 100.405 67.8665C101.146 67.8665 101.887 67.8665 102.627 67.8665C103.522 67.8665 103.524 66.4761 102.627 66.4761C97.4283 66.4761 92.2292 66.4761 87.03 66.4761C86.2893 66.4761 85.5486 66.4761 84.8078 66.4761C83.9131 66.4761 83.9116 67.8665 84.8078 67.8665Z" fill="white"></path><path d="M84.8078 72.2342C90.0069 72.2342 95.2061 72.2342 100.405 72.2342C101.146 72.2342 101.887 72.2342 102.627 72.2342C103.522 72.2342 103.524 70.8438 102.627 70.8438C97.4283 70.8438 92.2292 70.8438 87.03 70.8438C86.2893 70.8438 85.5486 70.8438 84.8078 70.8438C83.9131 70.8438 83.9116 72.2342 84.8078 72.2342Z" fill="white"></path><path d="M84.8078 76.6024C87.6169 76.6024 90.426 76.6024 93.2351 76.6024C93.6324 76.6024 94.0296 76.6024 94.4269 76.6024C95.3216 76.6024 95.3231 75.2119 94.4269 75.2119C91.6178 75.2119 88.8088 75.2119 85.9997 75.2119C85.6024 75.2119 85.2051 75.2119 84.8078 75.2119C83.9131 75.2119 83.9116 76.6024 84.8078 76.6024Z" fill="white"></path><path d="M101.693 53.7577H85.742C85.2261 53.7577 84.8079 53.3398 84.8079 52.8242V51.6762C84.8079 51.1606 85.2261 50.7427 85.742 50.7427H101.693C102.209 50.7427 102.627 51.1606 102.627 51.6762V52.8242C102.627 53.3398 102.209 53.7577 101.693 53.7577Z" fill="white"></path><path d="M101.693 53.0632C96.624 53.0632 91.5547 53.0632 86.4854 53.0632C86.2681 53.0632 85.983 53.1128 85.7695 53.0632C85.5859 53.0205 85.5317 52.9609 85.5031 52.7687C85.4601 52.4794 85.4278 51.9667 85.5031 51.691C85.6316 51.2211 86.8512 51.4377 87.2274 51.4377C90.3534 51.4377 93.4795 51.4377 96.6056 51.4377C98.036 51.4377 99.4664 51.4377 100.897 51.4377C101.127 51.4377 101.458 51.3767 101.683 51.4377C102.006 51.5248 101.932 51.8017 101.932 52.0805C101.932 52.33 102.066 53.0331 101.693 53.0632C100.808 53.1346 100.8 54.5247 101.693 54.4527C102.349 54.3998 102.91 54.0923 103.18 53.4702C103.37 53.0324 103.323 52.5471 103.323 52.0805C103.323 51.0248 102.867 50.1037 101.683 50.0482C100.824 50.0079 99.9522 50.0482 99.0917 50.0482C95.5685 50.0482 92.0452 50.0482 88.522 50.0482C87.6111 50.0482 86.6917 50.011 85.7815 50.0482C84.7743 50.0893 84.1357 50.809 84.1127 51.7958C84.0892 52.8043 84.072 54.0232 85.262 54.3803C86.0153 54.6063 86.9875 54.4527 87.7551 54.4527C89.4542 54.4527 91.1532 54.4527 92.8523 54.4527C95.7993 54.4527 98.7463 54.4527 101.693 54.4527C102.588 54.4527 102.59 53.0632 101.693 53.0632Z" fill="white"></path><path d="M47.3928 8.72021H76.969C82.0569 8.72021 86.1815 12.8419 86.1815 17.9262V76.6853H56.6054V17.9262C56.6054 12.8419 52.4809 8.72021 47.3928 8.72021Z" fill="#ACD3E1"></path><path d="M47.3928 9.41501C49.7064 9.41501 52.02 9.41501 54.3335 9.41501C58.818 9.41501 63.3024 9.41501 67.7869 9.41501C70.7537 9.41501 73.7205 9.41501 76.6873 9.41501C78.762 9.41501 80.7665 10.0075 82.3806 11.35C84.3537 12.9912 85.4713 15.3998 85.4862 17.9595C85.4951 19.4859 85.4862 21.0126 85.4862 22.5391C85.4862 25.9769 85.4862 29.4147 85.4862 32.8526C85.4862 37.3041 85.4862 41.7557 85.4862 46.2072C85.4862 50.732 85.4862 55.2568 85.4862 59.7816C85.4862 63.4381 85.4862 67.0946 85.4862 70.751C85.4862 72.6433 85.4862 74.5356 85.4862 76.4279C85.4862 76.5137 85.4862 76.5995 85.4862 76.6853C85.7179 76.4538 85.9497 76.2222 86.1814 75.9906C82.8477 75.9906 79.514 75.9906 76.1803 75.9906C70.87 75.9906 65.5596 75.9906 60.2493 75.9906C59.0346 75.9906 57.82 75.9906 56.6053 75.9906C56.8371 76.2222 57.0688 76.4538 57.3005 76.6853C57.3005 74.2357 57.3005 71.7861 57.3005 69.3364C57.3005 63.6818 57.3005 58.0272 57.3005 52.3725C57.3005 46.0715 57.3005 39.7705 57.3005 33.4695C57.3005 29.0276 57.3005 24.5857 57.3005 20.1438C57.3005 19.4072 57.3059 18.6704 57.3005 17.9338C57.27 13.7496 54.6162 9.98359 50.664 8.57969C49.6165 8.20763 48.5026 8.0351 47.3928 8.02554C46.4978 8.01784 46.497 9.4073 47.3928 9.41501C51.7046 9.45215 55.4997 12.7762 55.8756 17.1236C55.9477 17.958 55.9101 18.8108 55.9101 19.6473C55.9101 23.8123 55.9101 27.9773 55.9101 32.1423C55.9101 38.3128 55.9101 44.4832 55.9101 50.6537C55.9101 56.3996 55.9101 62.1456 55.9101 67.8915C55.9101 70.777 55.8122 73.6817 55.9101 76.566C55.9114 76.6057 55.9101 76.6456 55.9101 76.6853C55.9101 77.0609 56.2286 77.3801 56.6053 77.3801C59.939 77.3801 63.2727 77.3801 66.6064 77.3801C71.9168 77.3801 77.2271 77.3801 82.5375 77.3801C83.7521 77.3801 84.9668 77.3801 86.1814 77.3801C86.5573 77.3801 86.8767 77.0618 86.8767 76.6853C86.8767 75.3502 86.8767 74.0151 86.8767 72.68C86.8767 69.31 86.8767 65.9399 86.8767 62.5699C86.8767 58.1176 86.8767 53.6654 86.8767 49.2131C86.8767 44.6315 86.8767 40.0498 86.8767 35.4682C86.8767 31.6975 86.8767 27.9268 86.8767 24.1561C86.8767 22.1865 86.8767 20.2169 86.8767 18.2473C86.8767 16.6465 86.5908 15.0999 85.902 13.6445C84.5665 10.8226 81.8206 8.72096 78.741 8.18649C77.6996 8.00576 76.6642 8.02554 75.6144 8.02554C74.0934 8.02554 72.5723 8.02554 71.0513 8.02554C66.554 8.02554 62.0568 8.02554 57.5595 8.02554C54.3371 8.02554 51.1147 8.02554 47.8923 8.02554C47.7258 8.02554 47.5593 8.02554 47.3928 8.02554C46.4981 8.02554 46.4966 9.41501 47.3928 9.41501Z" fill="#ACD3E1"></path><path d="M95.3499 91.0051H65.7738C60.6859 91.0051 56.5613 86.8834 56.5613 81.7991L56.5613 23.04L86.1374 23.04L86.1374 81.7991C86.1374 86.8834 90.2619 91.0051 95.3499 91.0051Z" fill="#ACD3E1"></path><path d="M95.3499 90.3103C93.0363 90.3103 90.7227 90.3103 88.4091 90.3103C83.9246 90.3103 79.4402 90.3103 74.9557 90.3103C71.9889 90.3103 69.0221 90.3103 66.0553 90.3103C63.9807 90.3103 61.9761 89.7178 60.3621 88.3753C58.389 86.7341 57.2713 84.3255 57.2564 81.7658C57.2476 80.2394 57.2564 78.7127 57.2564 77.1862C57.2564 73.7484 57.2564 70.3106 57.2564 66.8727C57.2564 62.4212 57.2564 57.9696 57.2564 53.5181C57.2564 48.9933 57.2564 44.4685 57.2564 39.9436C57.2564 36.2872 57.2564 32.6307 57.2564 28.9743C57.2565 27.082 57.2565 25.1897 57.2565 23.2974C57.2565 23.2116 57.2565 23.1258 57.2565 23.0399C57.0247 23.2715 56.793 23.5031 56.5612 23.7347C59.8949 23.7347 63.2286 23.7347 66.5623 23.7347C71.8727 23.7347 77.183 23.7347 82.4934 23.7347C83.7081 23.7347 84.9227 23.7347 86.1374 23.7347C85.9056 23.5031 85.6739 23.2715 85.4421 23.04C85.4421 25.4896 85.4421 27.9392 85.4421 30.3889C85.4421 36.0435 85.4421 41.6981 85.4421 47.3528C85.4421 53.6538 85.4421 59.9548 85.4421 66.2558C85.4421 70.6977 85.4421 75.1396 85.4421 79.5815C85.4421 80.3181 85.4367 81.0549 85.4421 81.7915C85.4726 85.9757 88.1264 89.7417 92.0787 91.1456C93.1261 91.5177 94.2401 91.6902 95.3499 91.6998C96.2448 91.7075 96.2456 90.318 95.3499 90.3103C91.038 90.2732 87.243 86.9491 86.8671 82.6017C86.7949 81.7673 86.8325 80.9145 86.8325 80.078C86.8325 75.913 86.8326 71.748 86.8326 67.583C86.8326 61.4125 86.8326 55.2421 86.8326 49.0716C86.8326 43.3257 86.8326 37.5797 86.8326 31.8338C86.8326 28.9483 86.9305 26.0436 86.8326 23.1593C86.8312 23.1196 86.8326 23.0797 86.8326 23.04C86.8326 22.6644 86.514 22.3452 86.1373 22.3452C82.8036 22.3452 79.4699 22.3452 76.1362 22.3452C70.8259 22.3452 65.5155 22.3452 60.2052 22.3452C58.9905 22.3452 57.7759 22.3452 56.5612 22.3452C56.1854 22.3452 55.866 22.6635 55.866 23.0399C55.866 24.3751 55.866 25.7102 55.866 27.0453C55.866 30.4153 55.866 33.7854 55.866 37.1554C55.866 41.6077 55.866 46.0599 55.866 50.5122C55.866 55.0938 55.866 59.6755 55.866 64.2571C55.866 68.0278 55.866 71.7985 55.866 75.5692C55.866 77.5388 55.866 79.5084 55.866 81.478C55.866 83.0788 56.1519 84.6254 56.8407 86.0808C58.1761 88.9027 60.922 91.0043 64.0016 91.5388C65.043 91.7195 66.0784 91.6998 67.1282 91.6998C68.6493 91.6998 70.1703 91.6998 71.6913 91.6998C76.1886 91.6998 80.6858 91.6998 85.1831 91.6998C88.4055 91.6998 91.6279 91.6998 94.8504 91.6998C95.0169 91.6998 95.1834 91.6998 95.3499 91.6998C96.2445 91.6998 96.246 90.3103 95.3499 90.3103Z" fill="#ACD3E1"></path><path d="M76.9689 9.4149C81.2807 9.45204 85.0758 12.7761 85.4517 17.1235C85.5238 17.9579 85.4862 18.8107 85.4862 19.6472C85.4862 23.8122 85.4862 27.9772 85.4862 32.1422C85.4862 38.3127 85.4862 44.4831 85.4862 50.6536C85.4862 56.3995 85.4862 62.1455 85.4862 67.8914C85.4862 70.7769 85.3883 73.6816 85.4862 76.5659C85.4876 76.6056 85.4862 76.6455 85.4862 76.6852C85.4862 77.5793 86.8767 77.5808 86.8767 76.6852C86.8767 74.2356 86.8767 71.7859 86.8767 69.3363C86.8767 63.6817 86.8767 58.0271 86.8767 52.3724C86.8767 46.0714 86.8767 39.7704 86.8767 33.4693C86.8767 29.0274 86.8767 24.5855 86.8767 20.1436C86.8767 19.4071 86.882 18.6703 86.8767 17.9337C86.8461 13.7495 84.1923 9.98348 80.2401 8.57957C79.1926 8.20751 78.0787 8.03498 76.9689 8.02542C76.0739 8.01772 76.0731 9.40719 76.9689 9.4149Z" fill="#025749"></path><path d="M72.3572 8.72021H33.5055C28.4176 8.72021 24.293 12.8419 24.293 17.9262V76.6853H63.1446V17.9262C63.1446 12.8419 67.2691 8.72021 72.3572 8.72021Z" fill="#C1E2EC"></path><path d="M72.3571 8.02548C70.1046 8.02548 67.852 8.02548 65.5995 8.02548C60.7981 8.02548 55.9968 8.02548 51.1954 8.02548C46.7055 8.02548 42.2155 8.02548 37.7256 8.02548C34.7608 8.02548 31.6757 7.73245 28.9478 9.13396C25.8351 10.7332 23.793 13.9616 23.6102 17.4425C23.5815 17.9873 23.5977 18.5371 23.5977 19.0824C23.5977 21.9327 23.5977 24.783 23.5977 27.6333C23.5977 32.2362 23.5977 36.839 23.5977 41.4419C23.5977 46.5093 23.5977 51.5767 23.5977 56.644C23.5977 60.9409 23.5977 65.2377 23.5977 69.5345C23.5977 71.8142 23.5977 74.094 23.5977 76.3737C23.5977 76.4775 23.5977 76.5814 23.5977 76.6853C23.5977 77.0608 23.9162 77.38 24.2929 77.38C28.6963 77.38 33.0998 77.38 37.5032 77.38C44.4632 77.38 51.4231 77.38 58.3831 77.38C59.9702 77.38 61.5574 77.38 63.1446 77.38C63.5204 77.38 63.8398 77.0617 63.8398 76.6853C63.8398 74.3017 63.8398 71.9181 63.8398 69.5345C63.8398 64.0038 63.8398 58.473 63.8398 52.9422C63.8398 46.6941 63.8398 40.4461 63.8398 34.198C63.8398 29.6627 63.8398 25.1273 63.8398 20.5919C63.8398 19.7258 63.8354 18.8597 63.8398 17.9936C63.8577 14.4922 65.9884 11.2145 69.3114 9.97204C70.2926 9.60514 71.3107 9.42396 72.3571 9.41495C73.2514 9.40724 73.2535 8.01776 72.3571 8.02548C67.8904 8.06394 63.864 11.1132 62.7573 15.4691C62.4372 16.729 62.4493 17.9842 62.4493 19.2654C62.4493 23.3245 62.4493 27.3836 62.4493 31.4427C62.4493 37.6545 62.4493 43.8663 62.4493 50.0781C62.4493 55.93 62.4493 61.782 62.4493 67.6339C62.4493 69.6379 62.4493 71.6418 62.4493 73.6457C62.4493 74.5943 62.3457 75.6093 62.4493 76.5538C62.454 76.5965 62.4493 76.6422 62.4493 76.6853C62.6811 76.4537 62.9128 76.2221 63.1446 75.9905C58.7411 75.9905 54.3377 75.9905 49.9343 75.9905C42.9743 75.9905 36.0143 75.9905 29.0544 75.9905C27.4672 75.9905 25.8801 75.9905 24.2929 75.9905C24.5246 76.2221 24.7564 76.4537 24.9881 76.6853C24.9881 75.1257 24.9881 73.566 24.9881 72.0064C24.9881 68.1421 24.9881 64.2778 24.9881 60.4134C24.9881 55.4469 24.9881 50.4804 24.9881 45.5139C24.9881 40.7083 24.9881 35.9027 24.9881 31.0972C24.9881 27.6568 24.9881 24.2165 24.9881 20.7762C24.9881 19.9498 24.9881 19.1234 24.9881 18.297C24.9881 16.5875 25.3391 14.9537 26.242 13.4792C27.7946 10.9433 30.5787 9.43336 33.5384 9.41494C34.2955 9.41022 35.0528 9.41494 35.8099 9.41494C39.8164 9.41494 43.8228 9.41494 47.8293 9.41494C52.7729 9.41494 57.7164 9.41494 62.66 9.41494C65.7418 9.41494 68.8236 9.41494 71.9054 9.41494C72.056 9.41494 72.2065 9.41494 72.3571 9.41494C73.2518 9.41495 73.2533 8.02548 72.3571 8.02548Z" fill="#C1E2EC"></path><path d="M63.8398 76.6852C63.8398 74.3016 63.8398 71.9181 63.8398 69.5345C63.8398 64.0037 63.8398 58.4729 63.8398 52.9421C63.8398 46.6941 63.8398 40.446 63.8398 34.198C63.8398 29.6626 63.8398 25.1272 63.8398 20.5918C63.8398 19.7258 63.8353 18.8596 63.8398 17.9936C63.8577 14.4921 65.9884 11.2145 69.3113 9.97199C70.2926 9.60509 71.3106 9.42391 72.3571 9.41489C73.2514 9.40719 73.2535 8.0177 72.3571 8.02542C67.8904 8.06389 63.864 11.1132 62.7573 15.469C62.4372 16.729 62.4493 17.9841 62.4493 19.2654C62.4493 23.3245 62.4493 27.3836 62.4493 31.4427C62.4493 37.6545 62.4493 43.8662 62.4493 50.078C62.4493 55.93 62.4493 61.7819 62.4493 67.6339C62.4493 70.6016 62.3535 73.5872 62.4493 76.5538C62.4507 76.5975 62.4493 76.6415 62.4493 76.6852C62.4493 77.5793 63.8398 77.5807 63.8398 76.6852Z" fill="#ACD3E1"></path><path d="M29.7115 32.8255C32.7652 32.8255 35.8189 32.8255 38.8726 32.8255C43.7374 32.8255 48.6022 32.8255 53.4669 32.8255C54.5802 32.8255 55.6934 32.8255 56.8067 32.8255C57.7014 32.8255 57.7028 31.4351 56.8067 31.4351C53.753 31.4351 50.6992 31.4351 47.6455 31.4351C42.7808 31.4351 37.916 31.4351 33.0512 31.4351C31.938 31.4351 30.8247 31.4351 29.7115 31.4351C28.8168 31.4351 28.8153 32.8255 29.7115 32.8255Z" fill="white"></path><path d="M29.7115 37.1937C32.7652 37.1937 35.8189 37.1937 38.8726 37.1937C43.7374 37.1937 48.6022 37.1937 53.4669 37.1937C54.5802 37.1937 55.6934 37.1937 56.8067 37.1937C57.7014 37.1937 57.7028 35.8032 56.8067 35.8032C53.753 35.8032 50.6992 35.8032 47.6455 35.8032C42.7808 35.8032 37.916 35.8032 33.0512 35.8032C31.938 35.8032 30.8247 35.8032 29.7115 35.8032C28.8168 35.8032 28.8153 37.1937 29.7115 37.1937Z" fill="white"></path><path d="M29.7115 41.5614C32.7652 41.5614 35.8189 41.5614 38.8726 41.5614C43.7374 41.5614 48.6022 41.5614 53.4669 41.5614C54.5802 41.5614 55.6934 41.5614 56.8067 41.5614C57.7014 41.5614 57.7028 40.1709 56.8067 40.1709C53.753 40.1709 50.6992 40.1709 47.6455 40.1709C42.7808 40.1709 37.916 40.1709 33.0512 40.1709C31.938 40.1709 30.8247 40.1709 29.7115 40.1709C28.8168 40.1709 28.8153 41.5614 29.7115 41.5614Z" fill="white"></path><path d="M29.7115 45.9295C32.7652 45.9295 35.8189 45.9295 38.8726 45.9295C43.7374 45.9295 48.6022 45.9295 53.4669 45.9295C54.5802 45.9295 55.6934 45.9295 56.8067 45.9295C57.7014 45.9295 57.7028 44.5391 56.8067 44.5391C53.753 44.5391 50.6992 44.5391 47.6455 44.5391C42.7808 44.5391 37.916 44.5391 33.0512 44.5391C31.938 44.5391 30.8247 44.5391 29.7115 44.5391C28.8168 44.5391 28.8153 45.9295 29.7115 45.9295Z" fill="white"></path><path d="M29.7115 50.2972C35.2267 50.2972 40.7419 50.2972 46.2571 50.2972C47.0401 50.2972 47.8232 50.2972 48.6062 50.2972C49.5009 50.2972 49.5024 48.9067 48.6062 48.9067C43.091 48.9067 37.5758 48.9067 32.0606 48.9067C31.2775 48.9067 30.4945 48.9067 29.7115 48.9067C28.8168 48.9067 28.8153 50.2972 29.7115 50.2972Z" fill="white"></path><path d="M55.8726 27.4525H30.6457C30.1298 27.4525 29.7115 27.0346 29.7115 26.519V25.371C29.7115 24.8554 30.1298 24.4375 30.6457 24.4375H55.8726C56.3885 24.4375 56.8067 24.8554 56.8067 25.371V26.519C56.8067 27.0346 56.3885 27.4525 55.8726 27.4525Z" fill="white"></path><path d="M55.8726 26.758C52.6814 26.758 49.4901 26.758 46.2989 26.758C41.6828 26.758 37.0668 26.758 32.4507 26.758C31.9353 26.758 31.4198 26.758 30.9043 26.758C30.8281 26.758 30.7248 26.7768 30.6503 26.758C30.2486 26.6564 30.4068 25.945 30.4068 25.6207C30.4068 25.0792 30.6755 25.1324 31.0988 25.1324C31.6932 25.1324 32.2876 25.1324 32.882 25.1324C37.5967 25.1324 42.3114 25.1324 47.026 25.1324C49.1826 25.1324 51.3393 25.1324 53.4959 25.1324C54.1137 25.1324 54.7315 25.1324 55.3494 25.1324C55.6623 25.1324 56.0533 25.0356 56.1115 25.427C56.1516 25.696 56.2635 26.7265 55.8726 26.758C54.9868 26.8294 54.9791 28.2195 55.8726 28.1474C56.8387 28.0695 57.4758 27.4027 57.502 26.4316C57.5194 25.7873 57.5915 25.0324 57.2268 24.4692C56.8037 23.8158 56.1112 23.743 55.4195 23.743C53.725 23.743 52.0304 23.743 50.3359 23.743C45.0937 23.743 39.8514 23.743 34.6092 23.743C33.3097 23.743 32.0009 23.6973 30.702 23.743C30.1938 23.7608 29.7354 23.9345 29.4002 24.3286C28.9226 24.8904 29.0058 25.6705 29.0164 26.3588C29.0333 27.4597 29.7667 28.1362 30.8432 28.1474C34.9616 28.1903 39.0827 28.1474 43.2013 28.1474C47.35 28.1474 51.5034 28.206 55.6517 28.1474C55.7253 28.1464 55.799 28.1474 55.8726 28.1474C56.7673 28.1474 56.7688 26.758 55.8726 26.758Z" fill="white"></path><path d="M107.82 111.27H63.188V108.254H109.493V109.597C109.493 110.521 108.744 111.27 107.82 111.27Z" fill="#7CBF99"></path><path d="M107.82 110.575C106.336 110.575 104.853 110.575 103.369 110.575C99.8262 110.575 96.2833 110.575 92.7404 110.575C88.4358 110.575 84.1312 110.575 79.8265 110.575C76.1195 110.575 72.4124 110.575 68.7054 110.575C67.4763 110.575 66.2472 110.575 65.0181 110.575C64.456 110.575 63.8231 110.493 63.2653 110.575C63.2407 110.579 63.2131 110.575 63.188 110.575C63.4198 110.807 63.6515 111.038 63.8833 111.27C63.8833 110.265 63.8833 109.259 63.8833 108.254C63.6515 108.486 63.4198 108.717 63.188 108.949C64.7199 108.949 66.2518 108.949 67.7836 108.949C71.4636 108.949 75.1436 108.949 78.8236 108.949C83.2971 108.949 87.7705 108.949 92.244 108.949C96.0945 108.949 99.9451 108.949 103.796 108.949C105.065 108.949 106.334 108.949 107.604 108.949C108.186 108.949 108.836 109.03 109.414 108.949C109.439 108.945 109.467 108.949 109.493 108.949C109.262 108.717 109.03 108.486 108.798 108.254C108.798 109.097 109.046 110.517 107.82 110.575C106.929 110.617 106.924 112.007 107.82 111.965C108.949 111.911 109.944 111.169 110.145 110.021C110.245 109.447 110.189 108.834 110.189 108.254C110.189 107.878 109.87 107.559 109.493 107.559C107.962 107.559 106.43 107.559 104.898 107.559C101.218 107.559 97.5378 107.559 93.8578 107.559C89.3844 107.559 84.9109 107.559 80.4375 107.559C76.5869 107.559 72.7364 107.559 68.8858 107.559C67.0195 107.559 65.133 107.479 63.2679 107.559C63.2414 107.56 63.2146 107.559 63.188 107.559C62.8122 107.559 62.4928 107.878 62.4928 108.254C62.4928 109.259 62.4928 110.265 62.4928 111.27C62.4928 111.645 62.8113 111.965 63.188 111.965C64.6716 111.965 66.1551 111.965 67.6386 111.965C71.1815 111.965 74.7244 111.965 78.2673 111.965C82.5719 111.965 86.8765 111.965 91.1812 111.965C94.8882 111.965 98.5953 111.965 102.302 111.965C104.109 111.965 105.937 112.045 107.742 111.965C107.768 111.963 107.794 111.965 107.82 111.965C108.714 111.965 108.716 110.575 107.82 110.575Z" fill="#7CBF99"></path><path d="M71.2099 111.27H16.8392C15.9485 111.27 15.1681 110.674 14.934 109.816L4.36828 71.0597C4.02611 69.8046 4.97166 68.5679 6.27341 68.5679H60.6441C61.5348 68.5679 62.3152 69.1637 62.5493 70.0224L73.115 108.778C73.4572 110.033 72.5116 111.27 71.2099 111.27Z" fill="#7CBF99"></path><path d="M71.2099 110.575C69.7546 110.575 68.2993 110.575 66.844 110.575C63.2421 110.575 59.6402 110.575 56.0383 110.575C51.4356 110.575 46.8328 110.575 42.2301 110.575C37.7723 110.575 33.3145 110.575 28.8568 110.575C25.6985 110.575 22.5403 110.575 19.3821 110.575C18.6336 110.575 17.8851 110.575 17.1366 110.575C16.3785 110.575 15.7835 110.264 15.5633 109.48C14.9255 107.209 14.3222 104.927 13.7017 102.651C12.5446 98.4068 11.3874 94.1624 10.2303 89.9179C9.08662 85.7228 7.94293 81.5277 6.79924 77.3326C6.2192 75.2049 5.57726 73.0839 5.05665 70.9407C4.84936 70.0873 5.37104 69.3067 6.27374 69.2623C6.37871 69.2571 6.48526 69.2623 6.59031 69.2623C7.34994 69.2623 8.10957 69.2623 8.8692 69.2623C12.0425 69.2623 15.2158 69.2623 18.3892 69.2623C22.872 69.2623 27.3549 69.2623 31.8378 69.2623C36.4177 69.2623 40.9977 69.2623 45.5776 69.2623C49.1666 69.2623 52.7556 69.2623 56.3447 69.2623C57.4053 69.2623 58.466 69.2623 59.5266 69.2623C59.9411 69.2623 60.3867 69.216 60.8001 69.2684C61.811 69.3967 61.9373 70.4209 62.1521 71.2091C62.4759 72.3968 62.7997 73.5845 63.1235 74.7722C64.2018 78.7275 65.2801 82.6827 66.3584 86.638C67.5512 91.0131 68.7439 95.3882 69.9367 99.7633C70.7077 102.591 71.4787 105.42 72.2497 108.248C72.3082 108.462 72.3697 108.676 72.4252 108.891C72.6439 109.739 72.1085 110.54 71.2099 110.575C70.3181 110.61 70.3136 112 71.2099 111.965C72.9728 111.895 74.1955 110.318 73.7854 108.593C73.7528 108.456 73.7112 108.321 73.6742 108.185C73.4087 107.211 73.1432 106.238 72.8777 105.264C71.8415 101.463 70.8053 97.662 69.7691 93.8611C68.5338 89.3299 67.2985 84.7987 66.0632 80.2675C65.2173 77.1647 64.3713 74.0618 63.5254 70.959C63.2939 70.1096 63.138 69.1985 62.4486 68.5775C61.6795 67.8846 60.8031 67.8728 59.8603 67.8728C57.3187 67.8728 54.7771 67.8728 52.2354 67.8728C47.9888 67.8728 43.7422 67.8728 39.4956 67.8728C34.7233 67.8728 29.951 67.8728 25.1787 67.8728C21.1257 67.8728 17.0727 67.8728 13.0197 67.8728C10.8669 67.8728 8.71405 67.8728 6.56121 67.8728C6.41194 67.8728 6.26168 67.8688 6.11263 67.8792C4.40763 67.9975 3.31584 69.6183 3.69801 71.2445C3.82316 71.777 3.98668 72.3033 4.13052 72.831C5.03579 76.1516 5.94107 79.4722 6.84634 82.7928C8.08295 87.3287 9.31957 91.8647 10.5562 96.4007C11.5523 100.055 12.5485 103.709 13.5446 107.363C13.7684 108.183 13.9874 109.005 14.2158 109.825C14.579 111.127 15.6018 111.952 16.9683 111.965C18.9021 111.982 20.837 111.965 22.7708 111.965C26.7097 111.965 30.6486 111.965 34.5875 111.965C39.3473 111.965 44.1072 111.965 48.867 111.965C53.2178 111.965 57.5686 111.965 61.9194 111.965C64.6377 111.965 67.3559 111.965 70.0742 111.965C70.4528 111.965 70.8313 111.965 71.2099 111.965C72.1046 111.965 72.1061 110.575 71.2099 110.575Z" fill="#7CBF99"></path><path d="M67.5882 111.27H13.2175C12.3268 111.27 11.5464 110.674 11.3123 109.816L0.746573 71.0597C0.404409 69.8046 1.34996 68.5679 2.65171 68.5679H57.0224C57.9131 68.5679 58.6935 69.1637 58.9276 70.0224L69.4933 108.778C69.8355 110.033 68.8899 111.27 67.5882 111.27Z" fill="#A3D2A9"></path><path d="M67.5882 110.575C66.1329 110.575 64.6776 110.575 63.2224 110.575C59.6204 110.575 56.0185 110.575 52.4166 110.575C47.8139 110.575 43.2111 110.575 38.6084 110.575C34.1506 110.575 29.6928 110.575 25.2351 110.575C22.0768 110.575 18.9186 110.575 15.7604 110.575C15.0119 110.575 14.2634 110.575 13.5149 110.575C12.7568 110.575 12.1618 110.264 11.9416 109.48C11.3038 107.209 10.7005 104.927 10.08 102.651C8.92288 98.4068 7.76574 94.1624 6.6086 89.9179C5.46492 85.7228 4.32123 81.5277 3.17755 77.3326C2.5975 75.2049 1.95556 73.0839 1.43495 70.9407C1.22766 70.0873 1.74934 69.3067 2.65205 69.2623C2.75702 69.2571 2.86356 69.2623 2.96861 69.2623C3.72824 69.2623 4.48788 69.2623 5.24751 69.2623C8.42082 69.2623 11.5941 69.2623 14.7675 69.2623C19.2503 69.2623 23.7332 69.2623 28.2161 69.2623C32.796 69.2623 37.376 69.2623 41.9559 69.2623C45.5449 69.2623 49.1339 69.2623 52.723 69.2623C53.7836 69.2623 54.8443 69.2623 55.9049 69.2623C56.3194 69.2623 56.765 69.216 57.1784 69.2684C58.1893 69.3967 58.3156 70.4209 58.5304 71.2091C58.8542 72.3968 59.178 73.5845 59.5018 74.7722C60.5801 78.7275 61.6584 82.6827 62.7367 86.638C63.9295 91.0131 65.1222 95.3882 66.315 99.7633C67.086 102.591 67.857 105.42 68.628 108.248C68.6865 108.462 68.748 108.676 68.8035 108.891C69.0222 109.739 68.4868 110.54 67.5882 110.575C66.6964 110.61 66.6919 112 67.5882 111.965C69.3511 111.895 70.5738 110.318 70.1637 108.593C70.1311 108.456 70.0895 108.321 70.0525 108.185C69.787 107.211 69.5215 106.238 69.256 105.264C68.2198 101.463 67.1836 97.662 66.1474 93.8611C64.9121 89.3299 63.6768 84.7987 62.4415 80.2675C61.5956 77.1647 60.7497 74.0618 59.9037 70.959C59.6722 70.1096 59.5163 69.1985 58.8269 68.5775C58.0578 67.8846 57.1814 67.8728 56.2386 67.8728C53.697 67.8728 51.1554 67.8728 48.6137 67.8728C44.3671 67.8728 40.1205 67.8728 35.8739 67.8728C31.1016 67.8728 26.3293 67.8728 21.557 67.8728C17.504 67.8728 13.451 67.8728 9.39802 67.8728C7.24518 67.8728 5.09234 67.8728 2.93951 67.8728C2.79023 67.8728 2.63998 67.8688 2.49093 67.8792C0.785926 67.9975 -0.305867 69.6183 0.0763101 71.2445C0.201451 71.777 0.364978 72.3033 0.508817 72.831C1.41409 76.1516 2.31936 79.4722 3.22464 82.7928C4.46125 87.3287 5.69787 91.8647 6.93448 96.4007C7.93063 100.055 8.92678 103.709 9.92293 107.363C10.1466 108.183 10.3657 109.005 10.5941 109.825C10.9573 111.127 11.9801 111.952 13.3466 111.965C15.2804 111.982 17.2152 111.965 19.1491 111.965C23.088 111.965 27.0269 111.965 30.9658 111.965C35.7256 111.965 40.4855 111.965 45.2453 111.965C49.5961 111.965 53.9469 111.965 58.2977 111.965C61.016 111.965 63.7342 111.965 66.4525 111.965C66.8311 111.965 67.2096 111.965 67.5882 111.965C68.4829 111.965 68.4844 110.575 67.5882 110.575Z" fill="#A3D2A9"></path><path d="M112.238 110.575C111.358 110.575 110.478 110.575 109.598 110.575C107.19 110.575 104.782 110.575 102.374 110.575C98.8258 110.575 95.2776 110.575 91.7295 110.575C87.4015 110.575 83.0735 110.575 78.7455 110.575C73.9855 110.575 69.2255 110.575 64.4655 110.575C59.6799 110.575 54.8942 110.575 50.1085 110.575C45.646 110.575 41.1834 110.575 36.7209 110.575C32.9486 110.575 29.1763 110.575 25.404 110.575C22.6809 110.575 19.9577 110.575 17.2346 110.575C15.952 110.575 14.6654 110.546 13.383 110.575C13.3279 110.576 13.2726 110.575 13.2175 110.575C12.3228 110.575 12.3213 111.965 13.2175 111.965C14.0977 111.965 14.9779 111.965 15.8581 111.965C18.266 111.965 20.674 111.965 23.082 111.965C26.6301 111.965 30.1783 111.965 33.7264 111.965C38.0544 111.965 42.3824 111.965 46.7104 111.965C51.4704 111.965 56.2304 111.965 60.9904 111.965C65.776 111.965 70.5617 111.965 75.3474 111.965C79.8099 111.965 84.2725 111.965 88.735 111.965C92.5073 111.965 96.2796 111.965 100.052 111.965C102.775 111.965 105.498 111.965 108.221 111.965C109.504 111.965 110.791 111.994 112.073 111.965C112.128 111.963 112.183 111.965 112.238 111.965C113.133 111.965 113.135 110.575 112.238 110.575Z" fill="#025749"></path><path d="M31.3406 94.5172L40.4934 103.664V70.4478H22.1877V103.664L31.3406 94.5172Z" fill="#FF9180"></path><path d="M30.8492 95.0084C33.5213 97.6787 36.1935 100.349 38.8657 103.019C39.2445 103.398 39.6232 103.776 40.002 104.155C40.4278 104.58 41.1888 104.266 41.1888 103.663C41.1888 99.9282 41.1888 96.1929 41.1888 92.4577C41.1888 86.4976 41.1888 80.5376 41.1888 74.5775C41.1888 73.2009 41.1888 71.8243 41.1888 70.4477C41.1888 70.0721 40.8703 69.7529 40.4936 69.7529C35.1441 69.7529 29.7945 69.7529 24.4449 69.7529C23.6926 69.7529 22.9402 69.7529 22.1879 69.7529C21.8121 69.7529 21.4927 70.0712 21.4927 70.4477C21.4927 74.1829 21.4927 77.9182 21.4927 81.6535C21.4927 87.6135 21.4927 93.5736 21.4927 99.5336C21.4927 100.91 21.4927 102.287 21.4927 103.663C21.4927 104.265 22.2534 104.58 22.6795 104.155C25.3517 101.484 28.0239 98.8142 30.696 96.1439C31.0748 95.7654 31.4536 95.3869 31.8324 95.0084C32.4659 94.3753 31.483 93.3925 30.8492 94.0259C28.177 96.6962 25.5048 99.3664 22.8326 102.037C22.4538 102.415 22.0751 102.794 21.6963 103.172C22.0919 103.336 22.4875 103.5 22.8831 103.663C22.8831 99.9282 22.8831 96.1929 22.8831 92.4577C22.8831 86.4976 22.8831 80.5376 22.8831 74.5775C22.8831 73.2009 22.8831 71.8243 22.8831 70.4477C22.6514 70.6792 22.4196 70.9108 22.1879 71.1424C27.5375 71.1424 32.887 71.1424 38.2366 71.1424C38.9889 71.1424 39.7413 71.1424 40.4936 71.1424C40.2619 70.9108 40.0301 70.6792 39.7984 70.4477C39.7984 74.1829 39.7984 77.9182 39.7984 81.6535C39.7984 87.6135 39.7984 93.5736 39.7984 99.5336C39.7984 100.91 39.7984 102.287 39.7984 103.663C40.194 103.5 40.5896 103.336 40.9852 103.172C38.313 100.502 35.6408 97.8317 32.9687 95.1614C32.5899 94.7829 32.2111 94.4044 31.8324 94.0259C31.1988 93.3928 30.2153 94.375 30.8492 95.0084Z" fill="#FF9180"></path><path d="M22.6796 104.155C25.3518 101.484 28.0239 98.8141 30.6961 96.1439C31.0749 95.7654 31.4537 95.3869 31.8324 95.0084C31.5047 95.0084 31.177 95.0084 30.8492 95.0084C33.5214 97.6786 36.1936 100.349 38.8658 103.019C39.2445 103.398 39.6233 103.776 40.0021 104.155C40.6356 104.788 41.6191 103.806 40.9853 103.172C38.3131 100.502 35.6409 97.8316 32.9687 95.1614C32.59 94.7829 32.2112 94.4044 31.8324 94.0259C31.5669 93.7606 31.1153 93.76 30.8492 94.0259C28.1771 96.6961 25.5049 99.3664 22.8327 102.037C22.4539 102.415 22.0751 102.794 21.6964 103.172C21.0628 103.805 22.0458 104.788 22.6796 104.155Z" fill="#FF765C"></path><path d="M33.5217 45.8474L33.5217 45.8474C34.7826 43.5792 38.2401 44.505 38.1971 47.0993V47.0993C38.1647 49.0551 40.2959 50.2846 41.9746 49.2787L41.9746 49.2787C44.2014 47.9444 46.7325 50.4737 45.3973 52.6989L45.3973 52.6989C44.3906 54.3764 45.6211 56.5061 47.5782 56.4737H47.5782C50.1743 56.4308 51.1008 59.8859 48.831 61.1458L48.831 61.1458C47.1199 62.0957 47.1199 64.5548 48.831 65.5046L48.831 65.5046C51.1008 66.7646 50.1743 70.2196 47.5782 70.1767H47.5782C45.6211 70.1443 44.3906 72.274 45.3973 73.9515L45.3973 73.9515C46.7325 76.1768 44.2014 78.7061 41.9746 77.3717L41.9746 77.3717C40.2959 76.3658 38.1647 77.5954 38.1971 79.5511V79.5511C38.2401 82.1454 34.7826 83.0712 33.5217 80.803L33.5217 80.803C32.5712 79.0931 30.1103 79.0931 29.1598 80.803L29.1598 80.803C27.899 83.0712 24.4414 82.1454 24.4844 79.5511V79.5511C24.5168 77.5954 22.3856 76.3658 20.7069 77.3717L20.7069 77.3717C18.4801 78.7061 15.949 76.1768 17.2842 73.9515L17.2843 73.9515C18.2909 72.274 17.0605 70.1443 15.1033 70.1767H15.1033C12.5072 70.2196 11.5807 66.7646 13.8505 65.5046L13.8505 65.5046C15.5617 64.5548 15.5617 62.0957 13.8505 61.1458L13.8505 61.1458C11.5807 59.8859 12.5072 56.4308 15.1033 56.4737H15.1033C17.0605 56.5061 18.2909 54.3764 17.2843 52.6989L17.2842 52.6989C15.949 50.4737 18.4801 47.9444 20.7069 49.2787L20.7069 49.2787C22.3856 50.2846 24.5168 49.0551 24.4844 47.0993V47.0993C24.4414 44.505 27.899 43.5792 29.1598 45.8474L29.1598 45.8474C30.1103 47.5573 32.5712 47.5573 33.5217 45.8474Z" fill="#FFD483"></path><path d="M34.122 46.198C34.5793 45.3754 35.5476 45.0339 36.4211 45.403C36.8377 45.579 37.1955 45.9148 37.37 46.3346C37.5815 46.8435 37.4693 47.4166 37.6029 47.9452C37.9292 49.2362 39.0855 50.1823 40.3989 50.3133C41.0529 50.3785 41.6818 50.2206 42.2588 49.9159C42.7808 49.6402 43.3023 49.4925 43.8793 49.7161C44.3894 49.9137 44.803 50.3436 44.9804 50.8598C45.1862 51.4589 44.9942 51.9496 44.7222 52.4815C44.1115 53.6755 44.2762 55.0876 45.1577 56.1022C45.5771 56.585 46.175 56.9473 46.8013 57.0849C47.3098 57.1966 47.8557 57.0978 48.3433 57.3002C49.2033 57.657 49.6334 58.7201 49.326 59.5855C49.1581 60.0581 48.8238 60.3243 48.416 60.5838C47.8595 60.938 47.4063 61.4049 47.1372 62.0126C46.6197 63.181 46.839 64.5758 47.7184 65.5118C48.109 65.9274 48.6851 66.1192 49.0438 66.56C49.3206 66.9002 49.4485 67.3378 49.4208 67.7734C49.3556 68.7974 48.5653 69.4463 47.5783 69.4818C46.2892 69.5282 45.1472 70.1873 44.6189 71.3949C44.3528 72.0033 44.2827 72.6659 44.4115 73.3179C44.5326 73.9311 44.9892 74.4265 45.0632 75.044C45.1976 76.1653 44.1362 77.1968 43.0185 77.0325C42.3976 76.9412 41.8979 76.4879 41.2714 76.3752C40.6091 76.2561 39.9435 76.3472 39.3333 76.6288C38.127 77.1853 37.5516 78.3435 37.5014 79.6197C37.4628 80.6039 36.7326 81.3563 35.7358 81.3936C35.2721 81.411 34.8264 81.2497 34.4873 80.9326C34.0856 80.557 33.8963 80.0172 33.4784 79.6438C32.5051 78.7742 31.075 78.5901 29.9059 79.1642C29.3237 79.4502 28.8988 79.9104 28.5596 80.4522C28.3081 80.8539 28.0053 81.1653 27.5439 81.314C26.6748 81.594 25.6422 81.1429 25.3017 80.2868C25.0938 79.7642 25.2141 79.1757 25.0612 78.6355C24.892 78.0375 24.5372 77.4876 24.0615 77.0882C22.9824 76.1822 21.5739 76.1304 20.3561 76.7717C19.3342 77.3098 18.0988 76.9323 17.7013 75.7903C17.493 75.192 17.687 74.7014 17.9595 74.1687C18.2711 73.5593 18.3975 72.8954 18.2991 72.2169C18.115 70.9482 17.1443 69.8481 15.8803 69.5653C15.352 69.447 14.7865 69.5541 14.2851 69.3237C13.8736 69.1347 13.5557 68.7785 13.3903 68.3594C13.0133 67.4044 13.4584 66.5828 14.2656 66.0664C15.3977 65.342 16.0063 64.0889 15.7731 62.7486C15.6649 62.1264 15.3605 61.5378 14.9159 61.0878C14.5321 60.6994 13.9838 60.513 13.6379 60.0902C13.0583 59.3818 13.1651 58.2797 13.8142 57.6519C14.1758 57.3022 14.6135 57.186 15.1034 57.1683C15.7376 57.1455 16.3395 57.011 16.8777 56.6595C17.9867 55.9353 18.5544 54.5558 18.2547 53.263C18.1196 52.68 17.6898 52.2014 17.6184 51.6062C17.5511 51.0442 17.7875 50.4788 18.1995 50.0982C18.6144 49.715 19.1746 49.527 19.7346 49.6333C20.3521 49.7504 20.8421 50.1859 21.4796 50.2863C22.7632 50.4883 24.08 49.8791 24.7435 48.7563C25.0814 48.1844 25.1415 47.6073 25.1807 46.9618C25.2105 46.4697 25.4046 46.0146 25.7878 45.6942C26.4746 45.12 27.5307 45.097 28.1943 45.7176C28.6135 46.1096 28.8083 46.6681 29.2559 47.0502C29.7559 47.477 30.3606 47.7334 31.0136 47.8034C32.2882 47.94 33.4761 47.2866 34.122 46.198C34.5795 45.427 33.3779 44.7273 32.9214 45.4967C32.3033 46.5383 30.8197 46.7883 29.9883 45.8282C29.5882 45.3661 29.3626 44.8452 28.8525 44.4664C28.3794 44.1152 27.8144 43.919 27.2279 43.8751C26.0729 43.7885 24.9163 44.3586 24.2827 45.3256C23.9318 45.8612 23.8118 46.47 23.7892 47.0992C23.7687 47.6696 23.5742 48.1892 23.1122 48.553C22.662 48.9075 22.0526 49.0321 21.5029 48.8734C20.8491 48.6847 20.3458 48.2815 19.6347 48.2244C18.2776 48.1153 16.9828 48.9791 16.4649 50.2172C16.1973 50.8571 16.1472 51.5694 16.3342 52.2396C16.5057 52.8543 16.9554 53.3386 16.9472 54.0008C16.9401 54.5763 16.6472 55.1286 16.1759 55.4597C15.6412 55.8354 15.0581 55.7309 14.4521 55.836C11.9882 56.2632 11.0002 59.5343 12.8263 61.251C13.255 61.654 13.8346 61.8503 14.1615 62.358C14.4666 62.8317 14.5233 63.4538 14.3209 63.9787C14.0972 64.5591 13.6312 64.7812 13.1622 65.1251C12.6546 65.4974 12.2692 65.9946 12.0533 66.5874C11.6562 67.6777 11.9212 68.9431 12.6766 69.8141C13.0604 70.2567 13.5807 70.584 14.1434 70.7468C14.7117 70.9113 15.3327 70.7792 15.8778 71.0191C16.4191 71.2573 16.8192 71.7805 16.922 72.3603C17.0394 73.0218 16.7035 73.4757 16.4641 74.0521C15.939 75.3163 16.3209 76.7894 17.3681 77.6668C18.4991 78.6144 19.8651 78.587 21.1246 77.9341C22.2452 77.3532 23.6448 78.0386 23.782 79.3233C23.8483 79.9439 23.8443 80.4944 24.1373 81.07C24.3988 81.5838 24.817 82.0168 25.3099 82.3143C26.2995 82.9114 27.6087 82.9468 28.6071 82.3511C29.6193 81.7472 29.9011 80.3119 31.2097 80.2194C32.6139 80.1201 32.8922 81.4868 33.8291 82.1837C34.7774 82.8892 36.0699 82.9525 37.1229 82.4469C38.2711 81.8957 38.8478 80.7861 38.8924 79.551C38.9356 78.3551 40.0334 77.39 41.2477 77.7964C41.8984 78.0142 42.3982 78.3922 43.1176 78.4324C43.7793 78.4694 44.4655 78.269 45.0122 77.8972C46.1493 77.1238 46.7465 75.6755 46.3272 74.3389C46.1371 73.7332 45.6964 73.2471 45.7351 72.5807C45.767 72.03 46.0532 71.5083 46.5057 71.1904C47.0397 70.8154 47.6243 70.9191 48.2295 70.8142C48.8223 70.7114 49.37 70.4302 49.8089 70.0198C50.653 69.2306 50.9947 67.9727 50.7137 66.8597C50.5691 66.287 50.2446 65.7538 49.8079 65.357C49.3682 64.9573 48.7976 64.7665 48.4863 64.2343C48.2058 63.7546 48.1622 63.1469 48.3762 62.632C48.6205 62.0444 49.1179 61.8331 49.5898 61.4708C51.5896 59.9351 50.971 56.6073 48.5382 55.9034C47.9707 55.7392 47.348 55.8706 46.8038 55.6311C46.2626 55.393 45.8624 54.8697 45.7596 54.2899C45.6425 53.6297 45.9783 53.1742 46.2175 52.5981C46.4849 51.954 46.5393 51.228 46.342 50.5548C45.9603 49.253 44.7549 48.2856 43.3972 48.2167C42.1078 48.1514 41.056 49.4121 39.7951 48.6996C38.5929 48.0203 39.0749 46.5855 38.5181 45.5271C37.9849 44.5135 36.8655 43.8946 35.7358 43.8671C34.5723 43.8387 33.4844 44.484 32.9214 45.4967C32.4865 46.2791 33.687 46.9806 34.122 46.198Z" fill="#FFD483"></path><path d="M44.7969 52.3483C44.1869 53.3649 44.1975 54.6955 44.8464 55.6929C45.1576 56.1713 45.5885 56.5768 46.1019 56.831C46.6805 57.1174 47.2306 57.1082 47.8499 57.177C48.7272 57.2745 49.3631 58.0116 49.4207 58.877C49.4482 59.2901 49.334 59.7089 49.0837 60.0412C48.768 60.4604 48.2488 60.6434 47.8668 60.9912C46.9894 61.7902 46.6462 63.0885 46.9793 64.2226C47.1389 64.766 47.4471 65.277 47.8668 65.6592C48.2488 66.007 48.768 66.19 49.0837 66.6092C49.6002 67.2951 49.5047 68.2868 48.9466 68.9167C48.2231 69.7334 47.015 69.3674 46.1019 69.8195C45.0285 70.3509 44.3213 71.5218 44.3432 72.7182C44.3638 73.8473 45.428 74.8107 44.9257 75.9376C44.4602 76.9819 43.2945 77.2821 42.3255 76.7719C41.2618 76.2117 40.0176 76.1462 38.9785 76.8213C38.4997 77.1323 38.094 77.5628 37.8396 78.0759C37.5529 78.654 37.5622 79.2038 37.4933 79.8226C37.3958 80.6993 36.6581 81.3347 35.7922 81.3924C35.3787 81.4199 34.9596 81.3057 34.627 81.0556C34.2076 80.7401 34.0244 80.2212 33.6764 79.8396C32.8768 78.9628 31.5776 78.6198 30.4428 78.9527C29.7859 79.1453 29.2161 79.5444 28.8043 80.0881C28.4753 80.5224 28.2756 80.9917 27.7518 81.2363C26.9002 81.6338 25.7871 81.2658 25.3641 80.422C25.1049 79.9049 25.2195 79.3248 25.0961 78.7747C24.9498 78.1228 24.572 77.5171 24.0615 77.0883C23.0244 76.2174 21.526 76.0708 20.356 76.7719C19.5893 77.2312 20.2877 78.4331 21.0578 77.9716C21.9692 77.4255 23.2072 77.7924 23.6413 78.7772C23.8569 79.2664 23.7593 79.8139 23.8692 80.3277C23.9814 80.8518 24.2435 81.3416 24.6022 81.7386C25.3052 82.5166 26.4014 82.8877 27.4327 82.7506C27.9473 82.6822 28.4349 82.4945 28.8524 82.1839C29.3079 81.8451 29.5537 81.4134 29.877 80.9648C30.494 80.1088 31.7581 79.9633 32.5457 80.6737C32.9359 81.0255 33.1209 81.5475 33.504 81.9152C33.8851 82.2811 34.3647 82.555 34.8779 82.6844C35.9101 82.9446 37.0313 82.6713 37.8343 81.9762C38.2347 81.6297 38.5294 81.1802 38.7094 80.6843C38.8944 80.1746 38.8236 79.66 38.9261 79.1441C39.1419 78.0586 40.3646 77.4125 41.385 77.8445C41.9518 78.0844 42.4111 78.3748 43.0468 78.426C43.6467 78.4742 44.2573 78.3272 44.7836 78.0387C45.8493 77.4547 46.5503 76.2419 46.4522 75.023C46.3608 73.8879 45.3376 72.9874 45.9445 71.8327C46.1933 71.3594 46.6434 71.0099 47.1709 70.9052C47.6872 70.8028 48.2021 70.8736 48.7121 70.6887C49.7037 70.3292 50.4614 69.4853 50.7131 68.4592C50.9717 67.4051 50.701 66.2744 49.9439 65.4869C49.5759 65.1042 49.0536 64.9192 48.7016 64.5294C48.3609 64.1522 48.1953 63.6349 48.2504 63.1287C48.3794 61.9448 49.5821 61.6853 50.2128 60.8387C50.8271 60.0141 50.9728 58.8879 50.6321 57.9216C50.2727 56.9025 49.425 56.0876 48.3553 55.859C47.8412 55.7491 47.2932 55.8467 46.8037 55.6312C46.322 55.4192 45.959 54.9863 45.8094 54.4865C45.6634 53.9986 45.736 53.4854 45.9976 53.0496C46.4589 52.2808 45.2571 51.5813 44.7969 52.3483Z" fill="#025749"></path><path d="M31.3407 74.2215C37.3626 74.2215 42.2443 69.3432 42.2443 63.3256C42.2443 57.3079 37.3626 52.4297 31.3407 52.4297C25.3187 52.4297 20.437 57.3079 20.437 63.3256C20.437 69.3432 25.3187 74.2215 31.3407 74.2215Z" fill="#FFC17F"></path><path d="M41.5492 63.3253C41.5183 67.5444 38.8664 71.4587 34.8643 72.9049C30.8056 74.3715 26.2241 73.1208 23.4608 69.8156C20.714 66.5302 20.396 61.6949 22.6037 58.0462C24.8047 54.4087 29.1955 52.4595 33.3726 53.3246C38.101 54.3039 41.514 58.5125 41.5492 63.3253C41.5557 64.219 42.9462 64.221 42.9396 63.3253C42.9041 58.4556 39.8236 54.0643 35.2339 52.4058C30.7054 50.7694 25.4168 52.235 22.3816 55.9689C19.322 59.7326 18.8797 65.1351 21.4031 69.3056C23.915 73.4571 28.8318 75.6031 33.5884 74.6964C38.9877 73.6671 42.8999 68.7697 42.9396 63.3253C42.9461 62.431 41.5557 62.4301 41.5492 63.3253Z" fill="#FFC17F"></path><path d="M26.7594 62.5069L25.0052 64.2598L29.1902 68.4418L30.9443 66.6889L26.7594 62.5069Z" fill="white"></path><path d="M30.4525 66.1976C29.8678 66.7819 29.2831 67.3661 28.6984 67.9504C29.0261 67.9504 29.3538 67.9504 29.6816 67.9504C28.4594 66.7292 27.2373 65.5079 26.0152 64.2866C25.8423 64.1139 25.6695 63.9412 25.4966 63.7685C25.4966 64.096 25.4966 64.4235 25.4966 64.751C26.0813 64.1667 26.666 63.5824 27.2507 62.9981C26.923 62.9981 26.5953 62.9981 26.2675 62.9981C27.4897 64.2194 28.7118 65.4406 29.9339 66.6619C30.1068 66.8346 30.2796 67.0074 30.4525 67.1801C31.086 67.8132 32.0695 66.8309 31.4357 66.1976C30.2135 64.9763 28.9914 63.755 27.7693 62.5338C27.5964 62.361 27.4236 62.1883 27.2507 62.0156C26.9852 61.7503 26.5336 61.7497 26.2675 62.0156C25.6828 62.5999 25.0981 63.1842 24.5134 63.7685C24.2479 64.0338 24.2473 64.4851 24.5134 64.751C25.7356 65.9722 26.9577 67.1935 28.1798 68.4148C28.3527 68.5875 28.5255 68.7602 28.6984 68.9329C28.9639 69.1983 29.4155 69.1988 29.6816 68.9329C30.2663 68.3487 30.851 67.7644 31.4357 67.1801C32.0692 66.547 31.0863 65.5642 30.4525 66.1976Z" fill="white"></path><path d="M35.9223 58.2086L27.4359 66.689L29.19 68.4418L37.6764 59.9614L35.9223 58.2086Z" fill="white"></path><path d="M29.6815 67.9505C29.0968 67.3662 28.5121 66.7819 27.9274 66.1976C27.9274 66.5251 27.9274 66.8526 27.9274 67.1801C30.4011 64.7082 32.8747 62.2363 35.3484 59.7644C35.7035 59.4096 36.0587 59.0547 36.4138 58.6998C36.0861 58.6998 35.7583 58.6998 35.4306 58.6998C36.0153 59.2841 36.6 59.8683 37.1847 60.4526C37.1847 60.1251 37.1847 59.7976 37.1847 59.4701C34.7111 61.942 32.2374 64.4139 29.7638 66.8858C29.4086 67.2407 29.0535 67.5956 28.6983 67.9505C28.0648 68.5836 29.0477 69.5664 29.6815 68.933C32.1552 66.4611 34.6288 63.9892 37.1025 61.5173C37.4576 61.1624 37.8128 60.8075 38.1679 60.4526C38.4334 60.1873 38.434 59.736 38.1679 59.4701C37.5832 58.8858 36.9985 58.3016 36.4138 57.7173C36.1483 57.452 35.6967 57.4514 35.4306 57.7173C32.957 60.1892 30.4833 62.6611 28.0096 65.1329C27.6545 65.4878 27.2994 65.8427 26.9442 66.1976C26.6787 66.4629 26.6781 66.9142 26.9442 67.1801C27.5289 67.7644 28.1136 68.3487 28.6983 68.933C29.3319 69.5661 30.3153 68.5838 29.6815 67.9505Z" fill="white"></path></svg> 