<?xml version="1.0" encoding="UTF-8"?> <svg xmlns="http://www.w3.org/2000/svg" width="120" height="120" viewBox="0 0 120 120" fill="none"><rect width="120" height="120" fill="white"></rect><g clip-path="url(#clip0_1067_32692)"><path d="M47.2268 114.237C64.8737 114.237 79.1793 99.8637 79.1793 82.1335C79.1793 64.4034 64.8737 50.0303 47.2268 50.0303C29.5798 50.0303 15.2742 64.4034 15.2742 82.1335C15.2742 99.8637 29.5798 114.237 47.2268 114.237Z" fill="#FFF0E9"></path><path d="M78.4886 82.1332C78.4725 88.6413 76.4653 95.0119 72.7179 100.325C69.0905 105.467 63.8799 109.477 57.9844 111.636C51.813 113.896 44.9877 114.153 38.6676 112.351C32.5831 110.616 27.1263 106.997 23.0949 102.107C19.0219 97.166 16.5314 90.9549 16.0546 84.5582C15.5678 78.0279 17.1067 71.4455 20.4915 65.8449C23.7586 60.4389 28.6403 56.1067 34.3692 53.4907C40.2904 50.7871 47.075 50.0423 53.4443 51.3436C59.6689 52.6153 65.4114 55.8031 69.806 60.4097C74.2145 65.0309 77.1311 70.9599 78.1224 77.2821C78.3739 78.886 78.4846 80.5102 78.4886 82.1332C78.4908 83.0261 79.8722 83.0278 79.87 82.1332C79.8532 75.3479 77.7588 68.6421 73.8231 63.1178C69.9917 57.74 64.6044 53.6001 58.4237 51.3189C52.0173 48.9544 44.8633 48.7057 38.3004 50.5774C31.9801 52.3798 26.2487 56.1421 22.0703 61.2365C17.8114 66.429 15.2176 72.8387 14.6856 79.5482C14.1456 86.3571 15.7695 93.2824 19.2987 99.122C22.693 104.738 27.778 109.3 33.7415 112.006C39.9818 114.837 47.0211 115.633 53.735 114.277C60.2302 112.965 66.2632 109.597 70.8348 104.783C75.4048 99.9718 78.4799 93.777 79.4785 87.1969C79.733 85.5198 79.8658 83.8297 79.87 82.1332C79.8722 81.2401 78.4909 81.2388 78.4886 82.1332Z" fill="#FFF0E9"></path><path d="M95.8917 80.7181C105.122 80.7181 112.604 73.2003 112.604 63.9267C112.604 54.653 105.122 47.1353 95.8917 47.1353C86.6616 47.1353 79.1791 54.653 79.1791 63.9267C79.1791 73.2003 86.6616 80.7181 95.8917 80.7181Z" fill="#FFF0E9"></path><path d="M111.914 63.9267C111.882 70.6006 107.675 76.7684 101.396 79.0514C95.0352 81.3643 87.8106 79.3664 83.5019 74.1387C79.225 68.9496 78.7146 61.3585 82.1732 55.6065C85.6212 49.8723 92.4701 46.8115 99.0191 48.1339C105.539 49.4503 110.661 54.81 111.722 61.4031C111.856 62.2372 111.91 63.0823 111.914 63.9267C111.918 64.8195 113.299 64.8213 113.295 63.9267C113.261 56.6555 108.694 50.056 101.907 47.5167C95.0765 44.9612 87.0972 47.1353 82.4775 52.7916C77.8474 58.4606 77.196 66.6493 80.9805 72.9473C84.7621 79.2404 92.2231 82.5013 99.3863 81.0577C106.385 79.6474 111.999 73.7548 113.079 66.6634C113.217 65.7563 113.291 64.8444 113.295 63.9267C113.299 63.0335 111.918 63.0324 111.914 63.9267Z" fill="#FFF0E9"></path><path d="M84.3722 51.1581C88.9872 51.1581 92.7285 47.3992 92.7285 42.7624C92.7285 38.1256 88.9872 34.3667 84.3722 34.3667C79.7571 34.3667 76.0159 38.1256 76.0159 42.7624C76.0159 47.3992 79.7571 51.1581 84.3722 51.1581Z" fill="#FFF0E9"></path><path d="M92.0378 42.7625C92.008 45.9455 90.029 48.9082 87.0169 49.9956C83.9618 51.0985 80.5267 50.1587 78.4483 47.6555C76.405 45.1947 76.157 41.5755 77.7786 38.8319C79.4082 36.0748 82.6929 34.5685 85.8346 35.1991C89.4207 35.9189 92.0035 39.1005 92.0378 42.7625C92.0462 43.6551 93.4276 43.6573 93.4192 42.7625C93.3835 38.955 91.0151 35.5403 87.4558 34.217C83.9132 32.8999 79.7506 34.0585 77.3767 37.004C74.9979 39.9555 74.6525 44.1926 76.6247 47.458C78.5882 50.7088 82.4158 52.3909 86.1258 51.6794C90.3426 50.8707 93.3792 47.0325 93.4192 42.7625C93.4276 41.8692 92.0462 41.8684 92.0378 42.7625Z" fill="#FFF0E9"></path><path d="M61.0916 7.62988L101.227 43.4863V82.133" stroke="#FFD1C3" stroke-width="0.924032" stroke-miterlimit="10" stroke-linejoin="round" stroke-dasharray="0.92 0.92"></path><path d="M42.8372 80.735H10.1975C7.1608 80.735 4.69904 78.2617 4.69904 75.2106V6.22024C4.69904 3.16918 7.1608 0.695801 10.1975 0.695801H42.8372C45.8739 0.695801 48.3357 3.16918 48.3357 6.22024V75.2106C48.3357 78.2617 45.8739 80.735 42.8372 80.735Z" fill="#7CBF99"></path><path d="M42.8371 80.041C40.118 80.041 37.3989 80.041 34.6798 80.041C29.5462 80.041 24.4125 80.041 19.2789 80.041C16.2682 80.041 13.2561 80.0684 10.2456 80.041C7.56333 80.0167 5.41878 77.8856 5.38965 75.1849C5.38429 74.6877 5.38965 74.1901 5.38965 73.6929C5.38965 70.7703 5.38965 67.8477 5.38965 64.9251C5.38965 60.3142 5.38965 55.7032 5.38965 51.0923C5.38965 45.8094 5.38965 40.5266 5.38965 35.2437C5.38965 30.2957 5.38965 25.3476 5.38965 20.3995C5.38965 16.8385 5.38965 13.2775 5.38965 9.71645C5.38965 7.85322 5.07185 5.47189 6.03377 3.80436C6.89708 2.30775 8.48527 1.41023 10.198 1.38966C10.4177 1.38702 10.6377 1.38966 10.8574 1.38966C12.2945 1.38966 13.7316 1.38966 15.1687 1.38966C20.1308 1.38966 25.0929 1.38966 30.0549 1.38966C34.0055 1.38966 37.956 1.38966 41.9066 1.38966C42.2038 1.38966 42.5013 1.38662 42.7985 1.38966C44.1471 1.40345 45.4097 1.92394 46.3419 2.91304C47.3491 3.98172 47.6449 5.3249 47.6449 6.73701C47.6449 9.08102 47.6449 11.425 47.6449 13.769C47.6449 18.0764 47.6449 22.3839 47.6449 26.6913C47.6449 31.9246 47.6449 37.158 47.6449 42.3913C47.6449 47.4998 47.6449 52.6083 47.6449 57.7168C47.6449 61.6956 47.6449 65.6744 47.6449 69.6532C47.6449 71.481 47.6539 73.309 47.6449 75.1368C47.6317 77.8283 45.5268 80.002 42.8371 80.041C41.949 80.054 41.9464 81.4418 42.8371 81.4289C46.2511 81.3793 48.9878 78.6194 49.0263 75.1898C49.0319 74.6909 49.0263 74.1917 49.0263 73.6929C49.0263 70.699 49.0263 67.7051 49.0263 64.7112C49.0263 59.9864 49.0263 55.2616 49.0263 50.5368C49.0263 45.1538 49.0263 39.7709 49.0263 34.3879C49.0263 29.4259 49.0263 24.4638 49.0263 19.5018C49.0263 16.0313 49.0263 12.5609 49.0263 9.09043C49.0263 8.26737 49.0263 7.44432 49.0263 6.62126C49.0263 4.82607 48.5067 3.12245 47.2135 1.82313C46.0492 0.653364 44.4678 0.0207203 42.8285 0.00181324C42.5746 -0.00111511 42.3205 0.00181324 42.0665 0.00181324C40.5217 0.00181324 38.977 0.00181324 37.4322 0.00181324C32.3536 0.00181324 27.275 0.00181324 22.1964 0.00181324C18.3936 0.00181324 14.5908 0.00181324 10.7881 0.00181324C10.5374 0.00181324 10.286 -0.00354847 10.0354 0.00416795C8.16176 0.0618606 6.40827 0.968817 5.27169 2.46405C4.31883 3.71758 4.00832 5.18837 4.00832 6.72585C4.00832 9.12414 4.00832 11.5224 4.00832 13.9207C4.00832 18.3202 4.00832 22.7197 4.00832 27.1191C4.00832 32.4408 4.00832 37.7624 4.00832 43.084C4.00832 48.2655 4.00832 53.447 4.00832 58.6285C4.00832 62.551 4.00832 66.4736 4.00832 70.3961C4.00832 71.9994 3.9896 73.604 4.00832 75.2073C4.04834 78.634 6.80443 81.3886 10.2109 81.4289C11.1103 81.4395 12.0104 81.4289 12.9099 81.4289C17.5989 81.4289 22.2879 81.4289 26.977 81.4289C31.5205 81.4289 36.0641 81.4289 40.6076 81.4289C41.3508 81.4289 42.0939 81.4289 42.8371 81.4289C43.7259 81.4289 43.7274 80.041 42.8371 80.041Z" fill="#7CBF99"></path><path d="M48.132 80.735H15.4923C12.4556 80.735 9.99384 78.2617 9.99384 75.2106V6.22024C9.99384 3.16918 12.4556 0.695801 15.4923 0.695801H48.132C51.1687 0.695801 53.6305 3.16918 53.6305 6.22024V75.2106C53.6305 78.2617 51.1687 80.735 48.132 80.735Z" fill="#A3D2A9"></path><path d="M48.1319 80.041C45.4128 80.041 42.6937 80.041 39.9746 80.041C34.841 80.041 29.7073 80.041 24.5737 80.041C21.563 80.041 18.5509 80.0684 15.5404 80.041C12.8581 80.0167 10.7136 77.8856 10.6845 75.1849C10.6791 74.6877 10.6845 74.1901 10.6845 73.6929C10.6845 70.7703 10.6845 67.8477 10.6845 64.9251C10.6845 60.3142 10.6845 55.7032 10.6845 51.0923C10.6845 45.8094 10.6845 40.5266 10.6845 35.2437C10.6845 30.2957 10.6845 25.3476 10.6845 20.3995C10.6845 16.8385 10.6845 13.2775 10.6845 9.71645C10.6845 7.85322 10.3667 5.47189 11.3286 3.80436C12.1919 2.30775 13.7801 1.41023 15.4928 1.38966C15.7125 1.38702 15.9325 1.38966 16.1522 1.38966C17.5893 1.38966 19.0264 1.38966 20.4635 1.38966C25.4256 1.38966 30.3877 1.38966 35.3497 1.38966C39.3003 1.38966 43.2508 1.38966 47.2014 1.38966C47.4986 1.38966 47.7961 1.38662 48.0933 1.38966C49.4419 1.40345 50.7045 1.92394 51.6367 2.91304C52.6439 3.98172 52.9397 5.3249 52.9397 6.73701C52.9397 9.08102 52.9397 11.425 52.9397 13.769C52.9397 18.0764 52.9397 22.3839 52.9397 26.6913C52.9397 31.9246 52.9397 37.158 52.9397 42.3913C52.9397 47.4998 52.9397 52.6083 52.9397 57.7168C52.9397 61.6956 52.9397 65.6744 52.9397 69.6532C52.9397 71.481 52.9487 73.309 52.9397 75.1368C52.9265 77.8283 50.8216 80.002 48.1319 80.041C47.2438 80.054 47.2412 81.4418 48.1319 81.4289C51.5459 81.3793 54.2826 78.6194 54.3211 75.1898C54.3267 74.6909 54.3211 74.1917 54.3211 73.6929C54.3211 70.699 54.3211 67.7051 54.3211 64.7112C54.3211 59.9864 54.3211 55.2616 54.3211 50.5368C54.3211 45.1538 54.3211 39.7709 54.3211 34.3879C54.3211 29.4259 54.3211 24.4638 54.3211 19.5018C54.3211 16.0313 54.3211 12.5609 54.3211 9.09043C54.3211 8.26737 54.3211 7.44432 54.3211 6.62126C54.3211 4.82607 53.8015 3.12245 52.5083 1.82313C51.344 0.653364 49.7626 0.0207203 48.1233 0.00181324C47.8694 -0.00111511 47.6152 0.00181324 47.3613 0.00181324C45.8165 0.00181324 44.2718 0.00181324 42.727 0.00181324C37.6484 0.00181324 32.5698 0.00181324 27.4912 0.00181324C23.6884 0.00181324 19.8856 0.00181324 16.0828 0.00181324C15.8322 0.00181324 15.5808 -0.00354847 15.3302 0.00416795C13.4566 0.0618606 11.7031 0.968817 10.5665 2.46405C9.61363 3.71758 9.30312 5.18837 9.30312 6.72585C9.30312 9.12414 9.30312 11.5224 9.30312 13.9207C9.30312 18.3202 9.30312 22.7197 9.30312 27.1191C9.30312 32.4408 9.30312 37.7624 9.30312 43.084C9.30312 48.2655 9.30312 53.447 9.30312 58.6285C9.30312 62.551 9.30312 66.4736 9.30312 70.3961C9.30312 71.9994 9.2844 73.604 9.30312 75.2073C9.34314 78.634 12.0992 81.3886 15.5057 81.4289C16.4051 81.4395 17.3052 81.4289 18.2047 81.4289C22.8937 81.4289 27.5827 81.4289 32.2718 81.4289C36.8153 81.4289 41.3589 81.4289 45.9024 81.4289C46.6456 81.4289 47.3887 81.4289 48.1319 81.4289C49.0207 81.4289 49.0222 80.041 48.1319 80.041Z" fill="#A3D2A9"></path><path d="M47.1036 77.6155H16.5206C14.723 77.6155 13.2657 76.1513 13.2657 74.3452V7.08518C13.2657 5.27908 14.723 3.81494 16.5206 3.81494H47.1036C48.9012 3.81494 50.3585 5.27908 50.3585 7.08518V74.3452C50.3585 76.1513 48.9012 77.6155 47.1036 77.6155Z" fill="#FFD483"></path><path d="M47.1036 3.81494H16.5207C14.723 3.81494 13.2657 5.27907 13.2657 7.08517V12.4479C13.2657 10.6418 14.723 9.17769 16.5207 9.17769H47.1036C48.9012 9.17769 50.3585 10.6418 50.3585 12.4479V7.08517C50.3585 5.27906 48.9012 3.81494 47.1036 3.81494Z" fill="#FFC17F"></path><path d="M47.1036 76.9216C44.5622 76.9216 42.0209 76.9216 39.4795 76.9216C34.6936 76.9216 29.9077 76.9216 25.1217 76.9216C22.2748 76.9216 19.424 76.9654 16.5773 76.9216C15.0073 76.8975 13.9615 75.6866 13.9564 74.1562C13.9543 73.5248 13.9564 72.8933 13.9564 72.2618C13.9564 69.3588 13.9564 66.4558 13.9564 63.5528C13.9564 59.1918 13.9564 54.8308 13.9564 50.4699C13.9564 45.51 13.9564 40.5502 13.9564 35.5903C13.9564 30.9508 13.9564 26.3113 13.9564 21.6717C13.9564 18.2121 13.9564 14.7525 13.9564 11.2929C13.9564 9.89224 13.9274 8.48806 13.9564 7.08761C13.986 5.65995 15.0984 4.53699 16.5212 4.50891C16.7244 4.5049 16.9281 4.50891 17.1313 4.50891C18.4849 4.50891 19.8384 4.50891 21.192 4.50891C25.8168 4.50891 30.4417 4.50891 35.0666 4.50891C38.771 4.50891 42.4754 4.50891 46.1798 4.50891C46.4723 4.50891 46.7651 4.50449 47.0576 4.50891C48.2308 4.52663 49.2761 5.26234 49.582 6.42515C49.7142 6.92763 49.6678 7.49242 49.6678 8.0096C49.6678 10.4251 49.6678 12.8407 49.6678 15.2562C49.6678 19.3434 49.6678 23.4306 49.6678 27.5177C49.6678 32.3983 49.6678 37.2789 49.6678 42.1595C49.6678 46.9725 49.6678 51.7855 49.6678 56.5985C49.6678 60.426 49.6678 64.2534 49.6678 68.0808C49.6678 70.0637 49.6678 72.0467 49.6678 74.0296C49.6678 74.1337 49.6699 74.2379 49.6678 74.342C49.6398 75.7744 48.5259 76.8876 47.1036 76.9216C46.2162 76.9428 46.2129 78.3307 47.1036 78.3094C49.3914 78.2547 51.0405 76.4292 51.0492 74.1699C51.0516 73.5339 51.0492 72.8978 51.0492 72.2618C51.0492 69.2856 51.0492 66.3094 51.0492 63.3332C51.0492 58.8598 51.0492 54.3864 51.0492 49.9129C51.0492 44.8724 51.0492 39.8318 51.0492 34.7912C51.0492 30.1134 51.0492 25.4357 51.0492 20.758C51.0492 17.3731 51.0492 13.9882 51.0492 10.6034C51.0492 9.68642 51.0492 8.76945 51.0492 7.85249C51.0492 7.00044 51.043 6.20006 50.6692 5.39343C50.0213 3.99517 48.6094 3.15145 47.0944 3.12106C46.851 3.11618 46.6069 3.12106 46.3634 3.12106C44.9228 3.12106 43.4823 3.12106 42.0417 3.12106C37.2857 3.12106 32.5297 3.12106 27.7736 3.12106C24.2088 3.12106 20.644 3.12106 17.0792 3.12106C16.8412 3.12106 16.6009 3.11249 16.3629 3.12483C14.6399 3.21425 13.1007 4.4258 12.6907 6.1297C12.5438 6.74041 12.5751 7.37188 12.5751 7.99468C12.5751 10.4679 12.5751 12.9411 12.5751 15.4143C12.5751 19.6101 12.5751 23.806 12.5751 28.0018C12.5751 32.9903 12.5751 37.9788 12.5751 42.9673C12.5751 47.8184 12.5751 52.6695 12.5751 57.5206C12.5751 61.3043 12.5751 65.088 12.5751 68.8717C12.5751 70.6578 12.5641 72.4443 12.5751 74.2304C12.5889 76.4707 14.2843 78.2687 16.5349 78.3094C17.3831 78.3248 18.2329 78.3094 19.0812 78.3094C23.4589 78.3094 27.8367 78.3094 32.2145 78.3094C36.4748 78.3094 40.7351 78.3094 44.9955 78.3094C45.6982 78.3094 46.4009 78.3094 47.1036 78.3094C47.9924 78.3094 47.9939 76.9216 47.1036 76.9216Z" fill="#025749"></path><path d="M37.5396 5.91977H26.0845L24.6606 3.81494H38.9635L37.5396 5.91977Z" fill="#025749"></path><path d="M37.5396 5.22593C34.1944 5.22593 30.8491 5.22593 27.5039 5.22593C27.0308 5.22593 26.5577 5.22593 26.0845 5.22593C26.2833 5.34049 26.4821 5.45505 26.6809 5.56961C26.2063 4.868 25.7317 4.16639 25.257 3.46478C25.0582 3.81283 24.8595 4.16089 24.6607 4.50894C28.8412 4.50894 33.0218 4.50894 37.2023 4.50894C37.7894 4.50894 38.3764 4.50894 38.9635 4.50894C38.7647 4.16089 38.5659 3.81283 38.3671 3.46478C37.8925 4.16639 37.4179 4.868 36.9433 5.56961C36.4423 6.31023 37.6386 7.00536 38.136 6.27008C38.6106 5.56847 39.0852 4.86686 39.5599 4.16525C39.8606 3.72076 39.46 3.12109 38.9635 3.12109C34.783 3.12109 30.6024 3.12109 26.4218 3.12109C25.8348 3.12109 25.2477 3.12109 24.6607 3.12109C24.1642 3.12109 23.7636 3.72076 24.0643 4.16525C24.3329 4.56233 24.6015 4.9594 24.8701 5.35648C25.1105 5.71172 25.452 6.46157 25.901 6.58898C26.439 6.74169 27.1584 6.61377 27.7059 6.61377C30.2687 6.61377 32.8314 6.61377 35.3942 6.61377C36.1093 6.61377 36.8245 6.61377 37.5396 6.61377C38.4284 6.61377 38.4299 5.22593 37.5396 5.22593Z" fill="#025749"></path><path d="M5.88806 15.5399C5.88806 17.8444 5.88806 20.1488 5.88806 22.4532C5.88806 22.7791 5.88806 23.105 5.88806 23.4309C5.88806 24.3239 7.26939 24.3254 7.26939 23.4309C7.26939 21.1265 7.26939 18.8221 7.26939 16.5177C7.26939 16.1918 7.26939 15.8659 7.26939 15.5399C7.26939 14.6469 5.88806 14.6454 5.88806 15.5399Z" fill="#025749"></path><path d="M5.88806 25.8246C5.88806 28.129 5.88806 30.4334 5.88806 32.7378C5.88806 33.0638 5.88806 33.3897 5.88806 33.7156C5.88806 34.6086 7.26939 34.6101 7.26939 33.7156C7.26939 31.4112 7.26939 29.1067 7.26939 26.8023C7.26939 26.4764 7.26939 26.1505 7.26939 25.8246C7.26939 24.9316 5.88806 24.9301 5.88806 25.8246Z" fill="#025749"></path><path d="M100.093 37.2344C109.049 37.2344 116.309 29.9397 116.309 20.9412C116.309 11.9427 109.049 4.64795 100.093 4.64795C91.1362 4.64795 83.8757 11.9427 83.8757 20.9412C83.8757 29.9397 91.1362 37.2344 100.093 37.2344Z" fill="#FF765C"></path><path d="M115.619 20.9409C115.587 27.4027 111.519 33.3771 105.44 35.5928C99.2813 37.8375 92.2851 35.9134 88.1032 30.8578C83.9359 25.82 83.4415 18.4361 86.815 12.8506C90.1642 7.30531 96.8001 4.353 103.139 5.6402C109.454 6.92252 114.403 12.113 115.433 18.4981C115.564 19.3055 115.615 20.1236 115.619 20.9409C115.623 21.8337 117.004 21.8356 117 20.9409C116.966 13.855 112.503 7.42758 105.879 4.9773C99.2629 2.53006 91.5572 4.63899 87.0787 10.1009C82.5579 15.6142 81.9215 23.6044 85.6222 29.7317C89.2918 35.8075 96.4971 38.971 103.43 37.5954C110.253 36.2415 115.742 30.5112 116.79 23.5969C116.923 22.7162 116.996 21.8317 117 20.9409C117.004 20.0477 115.623 20.0466 115.619 20.9409Z" fill="#FF765C"></path><path d="M94.2222 19.8868L91.9746 22.145L97.3369 27.5326L99.5845 25.2744L94.2222 19.8868Z" fill="white"></path><path d="M99.0959 24.7843C98.3467 25.537 97.5975 26.2898 96.8483 27.0425C97.1739 27.0425 97.4994 27.0425 97.825 27.0425C96.2591 25.4691 94.6931 23.8958 93.1272 22.3225C92.9057 22.0999 92.6842 21.8774 92.4627 21.6549C92.4627 21.982 92.4627 22.3091 92.4627 22.6363C93.2119 21.8835 93.9611 21.1308 94.7103 20.3781C94.3848 20.3781 94.0592 20.3781 93.7336 20.3781C95.2996 21.9514 96.8655 23.5248 98.4315 25.0981C98.6529 25.3206 98.8744 25.5431 99.0959 25.7657C99.7253 26.398 100.702 25.4169 100.073 24.7843C98.5067 23.211 96.9407 21.6376 95.3748 20.0643C95.1533 19.8417 94.9318 19.6192 94.7103 19.3967C94.4466 19.1317 93.9979 19.1311 93.7336 19.3967C92.9844 20.1495 92.2352 20.9022 91.486 21.6549C91.2222 21.9199 91.2217 22.3707 91.486 22.6363C93.052 24.2096 94.6179 25.783 96.1839 27.3563C96.4054 27.5788 96.6268 27.8013 96.8483 28.0238C97.112 28.2888 97.5607 28.2894 97.825 28.0238C98.5742 27.2711 99.3234 26.5184 100.073 25.7657C100.702 25.1333 99.7255 24.1517 99.0959 24.7843Z" fill="white"></path><path d="M105.963 14.3492L95.0894 25.2744L97.337 27.5326L108.211 16.6074L105.963 14.3492Z" fill="white"></path><path d="M97.825 27.042C97.0758 26.2892 96.3266 25.5365 95.5774 24.7838C95.5774 25.1109 95.5774 25.438 95.5774 25.7651C98.757 22.5705 101.937 19.376 105.116 16.1814C105.561 15.7342 106.006 15.2871 106.451 14.84C106.126 14.84 105.8 14.84 105.475 14.84C106.224 15.5927 106.973 16.3454 107.722 17.0982C107.722 16.7711 107.722 16.4439 107.722 16.1168C104.543 19.3114 101.363 22.506 98.1834 25.7006C97.7383 26.1477 97.2933 26.5948 96.8483 27.042C96.2189 27.6743 97.1954 28.6559 97.825 28.0233C101.005 24.8287 104.184 21.6341 107.364 18.4396C107.809 17.9924 108.254 17.5453 108.699 17.0982C108.963 16.8332 108.963 16.3824 108.699 16.1168C107.95 15.3641 107.2 14.6114 106.451 13.8586C106.188 13.5936 105.739 13.5931 105.475 13.8586C102.295 17.0532 99.1154 20.2478 95.9358 23.4424C95.4907 23.8895 95.0457 24.3366 94.6007 24.7838C94.3369 25.0488 94.3363 25.4995 94.6007 25.7651C95.3499 26.5179 96.0991 27.2706 96.8483 28.0233C97.4777 28.6557 98.4547 27.6746 97.825 27.042Z" fill="white"></path><path d="M69.2864 16.2207H18.9819V87.4408H69.2864V16.2207Z" fill="#C1E2EC"></path><path d="M69.2864 86.7474C67.6203 86.7474 65.9542 86.7474 64.2881 86.7474C60.2864 86.7474 56.2847 86.7474 52.283 86.7474C47.4404 86.7474 42.5979 86.7474 37.7553 86.7474C33.5668 86.7474 29.3782 86.7474 25.1896 86.7474C23.8077 86.7474 22.4258 86.7474 21.0439 86.7474C20.4079 86.7474 19.7019 86.6601 19.0703 86.7474C19.042 86.7513 19.0106 86.7474 18.9819 86.7474C19.2122 86.9787 19.4424 87.21 19.6726 87.4413C19.6726 85.0653 19.6726 82.6894 19.6726 80.3134C19.6726 74.6498 19.6726 68.9862 19.6726 63.3225C19.6726 56.4772 19.6726 49.6319 19.6726 42.7865C19.6726 36.8391 19.6726 30.8917 19.6726 24.9443C19.6726 22.9984 19.6726 21.0526 19.6726 19.1067C19.6726 18.203 19.7669 17.2406 19.6726 16.3404C19.6685 16.3015 19.6726 16.2604 19.6726 16.2212C19.4424 16.4525 19.2122 16.6838 18.9819 16.9151C20.648 16.9151 22.3141 16.9151 23.9802 16.9151C27.9819 16.9151 31.9836 16.9151 35.9854 16.9151C40.8279 16.9151 45.6705 16.9151 50.513 16.9151C54.7016 16.9151 58.8901 16.9151 63.0787 16.9151C64.4606 16.9151 65.8426 16.9151 67.2245 16.9151C67.8604 16.9151 68.5664 17.0024 69.1981 16.9151C69.2264 16.9112 69.2577 16.9151 69.2864 16.9151C69.0562 16.6838 68.826 16.4525 68.5957 16.2212C68.5957 18.5972 68.5957 20.9731 68.5957 23.3491C68.5957 29.0127 68.5957 34.6763 68.5957 40.34C68.5957 47.1853 68.5957 54.0306 68.5957 60.876C68.5957 66.8234 68.5957 72.7708 68.5957 78.7182C68.5957 81.5806 68.5025 84.4608 68.5957 87.3221C68.597 87.3617 68.5957 87.4016 68.5957 87.4413C68.5957 88.3343 69.9771 88.3358 69.9771 87.4413C69.9771 85.0653 69.9771 82.6894 69.9771 80.3134C69.9771 74.6498 69.9771 68.9862 69.9771 63.3225C69.9771 56.4772 69.9771 49.6319 69.9771 42.7865C69.9771 36.8391 69.9771 30.8917 69.9771 24.9443C69.9771 22.0819 70.0703 19.2017 69.9771 16.3404C69.9758 16.3008 69.9771 16.2609 69.9771 16.2212C69.9771 15.8461 69.6606 15.5273 69.2864 15.5273C67.6203 15.5273 65.9542 15.5273 64.2881 15.5273C60.2864 15.5273 56.2847 15.5273 52.283 15.5273C47.4404 15.5273 42.5979 15.5273 37.7553 15.5273C33.5668 15.5273 29.3782 15.5273 25.1896 15.5273C23.1562 15.5273 21.1025 15.4428 19.0703 15.5273C19.0409 15.5285 19.0113 15.5273 18.9819 15.5273C18.6086 15.5273 18.2913 15.8452 18.2913 16.2212C18.2913 18.5972 18.2913 20.9731 18.2913 23.3491C18.2913 29.0127 18.2913 34.6763 18.2913 40.34C18.2913 47.1853 18.2913 54.0306 18.2913 60.876C18.2913 66.8234 18.2913 72.7708 18.2913 78.7182C18.2913 81.5806 18.198 84.4608 18.2913 87.3221C18.2926 87.3617 18.2913 87.4016 18.2913 87.4413C18.2913 87.8164 18.6077 88.1352 18.9819 88.1352C20.648 88.1352 22.3141 88.1352 23.9802 88.1352C27.9819 88.1352 31.9836 88.1352 35.9854 88.1352C40.8279 88.1352 45.6705 88.1352 50.513 88.1352C54.7016 88.1352 58.8901 88.1352 63.0787 88.1352C65.1122 88.1352 67.1658 88.2197 69.1981 88.1352C69.2274 88.134 69.257 88.1352 69.2864 88.1352C70.1752 88.1352 70.1767 86.7474 69.2864 86.7474Z" fill="#C1E2EC"></path><path d="M69.2868 86.7468C67.6207 86.7468 65.9546 86.7468 64.2885 86.7468C60.2868 86.7468 56.2851 86.7468 52.2833 86.7468C47.4408 86.7468 42.5982 86.7468 37.7557 86.7468C33.5671 86.7468 29.3786 86.7468 25.19 86.7468C23.8081 86.7468 22.4261 86.7468 21.0442 86.7468C20.4083 86.7468 19.7023 86.6595 19.0706 86.7468C19.0423 86.7507 19.011 86.7468 18.9823 86.7468C19.2125 86.9781 19.4427 87.2094 19.673 87.4407C19.673 85.0647 19.673 82.6888 19.673 80.3128C19.673 74.6492 19.673 68.9856 19.673 63.3219C19.673 56.4766 19.673 49.6313 19.673 42.7859C19.673 36.8385 19.673 30.8911 19.673 24.9437C19.673 22.0813 19.7662 19.2011 19.673 16.3398C19.6717 16.3002 19.673 16.2603 19.673 16.2206C19.673 15.3276 18.2916 15.3261 18.2916 16.2206C18.2916 18.5966 18.2916 20.9725 18.2916 23.3485C18.2916 29.0121 18.2916 34.6757 18.2916 40.3394C18.2916 47.1847 18.2916 54.03 18.2916 60.8754C18.2916 66.8228 18.2916 72.7702 18.2916 78.7176C18.2916 81.58 18.1984 84.4602 18.2916 87.3215C18.2929 87.3611 18.2916 87.401 18.2916 87.4407C18.2916 87.8158 18.6081 88.1346 18.9823 88.1346C20.6484 88.1346 22.3145 88.1346 23.9806 88.1346C27.9823 88.1346 31.984 88.1346 35.9857 88.1346C40.8283 88.1346 45.6708 88.1346 50.5134 88.1346C54.7019 88.1346 58.8905 88.1346 63.0791 88.1346C65.1125 88.1346 67.1662 88.2191 69.1984 88.1346C69.2278 88.1334 69.2574 88.1346 69.2868 88.1346C70.1756 88.1346 70.1771 86.7468 69.2868 86.7468Z" fill="#ACD3E1"></path><path d="M44.1344 42.2303C48.1344 42.2303 51.377 38.9724 51.377 34.9535C51.377 30.9347 48.1344 27.6768 44.1344 27.6768C40.1344 27.6768 36.8918 30.9347 36.8918 34.9535C36.8918 38.9724 40.1344 42.2303 44.1344 42.2303Z" fill="#ACD3E1"></path><path d="M44.1345 35.6973C41.6098 35.6973 39.3879 36.9959 38.0916 38.9638C39.3879 40.9317 41.6098 42.2304 44.1345 42.2304C46.6591 42.2304 48.881 40.9317 50.1773 38.9638C48.881 36.9959 46.6591 35.6973 44.1345 35.6973Z" fill="white"></path><path d="M44.1344 34.367C45.3613 34.367 46.356 33.3676 46.356 32.1349C46.356 30.9022 45.3613 29.9028 44.1344 29.9028C42.9074 29.9028 41.9128 30.9022 41.9128 32.1349C41.9128 33.3676 42.9074 34.367 44.1344 34.367Z" fill="white"></path><path d="M50.6863 34.9534C50.6568 37.6624 48.9827 40.1993 46.414 41.1294C43.8074 42.0731 40.8824 41.2911 39.0943 39.1639C37.3247 37.0586 37.1066 33.9441 38.5026 31.5873C39.8926 29.2408 42.6945 27.9505 45.3722 28.4859C48.4461 29.1004 50.6522 31.8163 50.6863 34.9534C50.6961 35.8459 52.0774 35.8482 52.0677 34.9534C52.0313 31.6163 49.9693 28.6356 46.853 27.4661C43.7581 26.3047 40.107 27.3096 38.0215 29.8779C35.9307 32.4529 35.6088 36.1483 37.3099 39.02C39.0184 41.9043 42.3923 43.3906 45.6625 42.7737C49.369 42.0746 52.0269 38.697 52.0677 34.9534C52.0774 34.0601 50.6961 34.0595 50.6863 34.9534Z" fill="#C1E2EC"></path><path d="M58.5629 50.4799H29.7061C29.3115 50.4799 28.9916 50.1585 28.9916 49.762V47.4381C28.9916 47.0416 29.3115 46.7202 29.7061 46.7202H58.5629C58.9575 46.7202 59.2774 47.0416 59.2774 47.4381V49.762C59.2774 50.1585 58.9575 50.4799 58.5629 50.4799Z" fill="#ACD3E1"></path><path d="M58.5629 49.7856C54.7984 49.7856 51.0339 49.7856 47.2695 49.7856C41.9695 49.7856 36.6694 49.7856 31.3694 49.7856C30.8997 49.7856 30.3008 49.8867 29.8395 49.7856C29.6965 49.7543 29.7451 49.8223 29.6823 49.7006C29.5947 49.5312 29.6823 49.0661 29.6823 48.8784C29.6823 48.5263 29.6823 48.1743 29.6823 47.8222C29.6823 47.6253 29.6245 47.4853 29.7659 47.4138C29.8677 47.3624 30.1303 47.4138 30.2423 47.4138C30.9585 47.4138 31.6748 47.4138 32.391 47.4138C37.9226 47.4138 43.4542 47.4138 48.9858 47.4138C51.419 47.4138 53.8521 47.4138 56.2852 47.4138C56.9232 47.4138 57.5611 47.4138 58.199 47.4138C58.2642 47.4138 58.4926 47.3742 58.5478 47.4138C58.6801 47.5088 58.5867 48.1635 58.5867 48.321C58.5867 48.439 58.6346 49.7784 58.5629 49.7856C57.6868 49.8744 57.6777 51.2631 58.5629 51.1735C59.6008 51.0684 59.968 50.3258 59.968 49.3773C59.968 48.7425 59.9986 48.0996 59.968 47.4655C59.9163 46.3934 59.0835 46.026 58.1701 46.026C56.2745 46.026 54.379 46.026 52.4834 46.026C46.4155 46.026 40.3476 46.026 34.2797 46.026C32.7792 46.026 31.2656 45.9675 29.7659 46.026C29.1549 46.0498 28.5866 46.3642 28.3818 46.9738C28.1889 47.5478 28.3009 48.2855 28.3009 48.8784C28.3009 49.6192 28.2078 50.4037 28.8881 50.9019C29.1814 51.1167 29.5102 51.1664 29.8576 51.1735C34.5167 51.2683 39.1875 51.1735 43.8475 51.1735C48.6664 51.1735 53.4853 51.1735 58.3042 51.1735C58.3904 51.1735 58.4766 51.1735 58.5629 51.1735C59.4517 51.1735 59.4532 49.7856 58.5629 49.7856Z" fill="#ACD3E1"></path><path d="M56.3829 55.7598C53.6184 55.7598 50.8539 55.7598 48.0894 55.7598C43.7027 55.7598 39.3159 55.7598 34.9292 55.7598C33.9148 55.7598 32.9004 55.7598 31.886 55.7598C30.9972 55.7598 30.9957 57.1476 31.886 57.1476C34.6505 57.1476 37.415 57.1476 40.1795 57.1476C44.5662 57.1476 48.9529 57.1476 53.3397 57.1476C54.3541 57.1476 55.3685 57.1476 56.3829 57.1476C57.2717 57.1476 57.2732 55.7598 56.3829 55.7598Z" fill="white"></path><path d="M56.3829 60.6426C53.6183 60.6426 50.8538 60.6426 48.0893 60.6426C43.7026 60.6426 39.3159 60.6426 34.9292 60.6426C33.9148 60.6426 32.9003 60.6426 31.8859 60.6426C30.9971 60.6426 30.9956 62.0304 31.8859 62.0304C34.6504 62.0304 37.4149 62.0304 40.1795 62.0304C44.5662 62.0304 48.9529 62.0304 53.3396 62.0304C54.354 62.0304 55.3684 62.0304 56.3829 62.0304C57.2717 62.0304 57.2731 60.6426 56.3829 60.6426Z" fill="white"></path><path d="M56.3829 65.5254C53.6183 65.5254 50.8538 65.5254 48.0893 65.5254C43.7026 65.5254 39.3159 65.5254 34.9292 65.5254C33.9148 65.5254 32.9003 65.5254 31.8859 65.5254C30.9971 65.5254 30.9956 66.9132 31.8859 66.9132C34.6504 66.9132 37.4149 66.9132 40.1795 66.9132C44.5662 66.9132 48.9529 66.9132 53.3396 66.9132C54.354 66.9132 55.3684 66.9132 56.3829 66.9132C57.2717 66.9132 57.2731 65.5254 56.3829 65.5254Z" fill="white"></path><path d="M56.3829 70.4087C53.6183 70.4087 50.8538 70.4087 48.0893 70.4087C43.7026 70.4087 39.3159 70.4087 34.9292 70.4087C33.9148 70.4087 32.9003 70.4087 31.8859 70.4087C30.9971 70.4087 30.9956 71.7965 31.8859 71.7965C34.6504 71.7965 37.4149 71.7965 40.1795 71.7965C44.5662 71.7965 48.9529 71.7965 53.3396 71.7965C54.354 71.7965 55.3684 71.7965 56.3829 71.7965C57.2717 71.7965 57.2731 70.4087 56.3829 70.4087Z" fill="white"></path><path d="M52.2352 75.291C47.5133 75.291 42.7914 75.291 38.0695 75.291C37.3909 75.291 36.7123 75.291 36.0337 75.291C35.1449 75.291 35.1434 76.6789 36.0337 76.6789C40.7556 76.6789 45.4775 76.6789 50.1994 76.6789C50.878 76.6789 51.5566 76.6789 52.2352 76.6789C53.124 76.6789 53.1255 75.291 52.2352 75.291Z" fill="white"></path><path d="M82.5889 32.1343H32.2844V103.354H82.5889V32.1343Z" fill="#FF9180"></path><path d="M82.5889 102.661C80.9229 102.661 79.2568 102.661 77.5907 102.661C73.589 102.661 69.5872 102.661 65.5855 102.661C60.743 102.661 55.9004 102.661 51.0579 102.661C46.8693 102.661 42.6807 102.661 38.4922 102.661C37.1102 102.661 35.7283 102.661 34.3464 102.661C33.7105 102.661 33.0045 102.574 32.3728 102.661C32.3445 102.665 32.3132 102.661 32.2845 102.661C32.5147 102.892 32.7449 103.124 32.9751 103.355C32.9751 100.979 32.9751 98.603 32.9751 96.227C32.9751 90.5634 32.9751 84.8997 32.9751 79.2361C32.9751 72.3908 32.9751 65.5454 32.9751 58.7001C32.9751 52.7527 32.9751 46.8053 32.9751 40.8579C32.9751 38.912 32.9751 36.9661 32.9751 35.0203C32.9751 34.1166 33.0694 33.1542 32.9751 32.254C32.9711 32.2151 32.9751 32.174 32.9751 32.1348C32.7449 32.3661 32.5147 32.5974 32.2845 32.8287C33.9506 32.8287 35.6167 32.8287 37.2827 32.8287C41.2845 32.8287 45.2862 32.8287 49.2879 32.8287C54.1305 32.8287 58.973 32.8287 63.8155 32.8287C68.0041 32.8287 72.1927 32.8287 76.3813 32.8287C77.7632 32.8287 79.1451 32.8287 80.527 32.8287C81.1629 32.8287 81.8689 32.916 82.5006 32.8287C82.5289 32.8248 82.5602 32.8287 82.5889 32.8287C82.3587 32.5974 82.1285 32.3661 81.8983 32.1348C81.8983 34.5107 81.8983 36.8867 81.8983 39.2627C81.8983 44.9263 81.8983 50.5899 81.8983 56.2535C81.8983 63.0989 81.8983 69.9442 81.8983 76.7895C81.8983 82.7369 81.8983 88.6844 81.8983 94.6318C81.8983 97.4941 81.805 100.374 81.8983 103.236C81.8996 103.275 81.8983 103.315 81.8983 103.355C81.8983 104.248 83.2796 104.249 83.2796 103.355C83.2796 100.979 83.2796 98.603 83.2796 96.227C83.2796 90.5634 83.2796 84.8997 83.2796 79.2361C83.2796 72.3908 83.2796 65.5454 83.2796 58.7001C83.2796 52.7527 83.2796 46.8053 83.2796 40.8579C83.2796 37.9955 83.3729 35.1153 83.2796 32.254C83.2783 32.2143 83.2796 32.1745 83.2796 32.1348C83.2796 31.7597 82.9632 31.4408 82.5889 31.4408C80.9229 31.4408 79.2568 31.4408 77.5907 31.4408C73.589 31.4408 69.5872 31.4408 65.5855 31.4408C60.743 31.4408 55.9004 31.4408 51.0579 31.4408C46.8693 31.4408 42.6807 31.4408 38.4922 31.4408C36.4587 31.4408 34.405 31.3564 32.3728 31.4408C32.3435 31.4421 32.3139 31.4408 32.2845 31.4408C31.9111 31.4408 31.5938 31.7588 31.5938 32.1348C31.5938 34.5107 31.5938 36.8867 31.5938 39.2627C31.5938 44.9263 31.5938 50.5899 31.5938 56.2535C31.5938 63.0989 31.5938 69.9442 31.5938 76.7895C31.5938 82.7369 31.5938 88.6844 31.5938 94.6318C31.5938 97.4941 31.5006 100.374 31.5938 103.236C31.5951 103.275 31.5938 103.315 31.5938 103.355C31.5938 103.73 31.9103 104.049 32.2845 104.049C33.9506 104.049 35.6167 104.049 37.2827 104.049C41.2845 104.049 45.2862 104.049 49.2879 104.049C54.1305 104.049 58.973 104.049 63.8156 104.049C68.0041 104.049 72.1927 104.049 76.3813 104.049C78.4147 104.049 80.4684 104.133 82.5006 104.049C82.53 104.048 82.5596 104.049 82.5889 104.049C83.4778 104.049 83.4792 102.661 82.5889 102.661Z" fill="#FF9180"></path><path d="M82.5894 102.661C80.9233 102.661 79.2572 102.661 77.5911 102.661C73.5894 102.661 69.5877 102.661 65.586 102.661C60.7434 102.661 55.9009 102.661 51.0583 102.661C46.8697 102.661 42.6812 102.661 38.4926 102.661C37.1107 102.661 35.7288 102.661 34.3468 102.661C33.7109 102.661 33.0049 102.574 32.3732 102.661C32.345 102.665 32.3136 102.661 32.2849 102.661C32.5151 102.892 32.7454 103.123 32.9756 103.355C32.9756 100.979 32.9756 98.6028 32.9756 96.2269C32.9756 90.5633 32.9756 84.8996 32.9756 79.236C32.9756 72.3907 32.9756 65.5453 32.9756 58.7C32.9756 52.7526 32.9756 46.8052 32.9756 40.8578C32.9756 37.9954 33.0688 35.1152 32.9756 32.2539C32.9743 32.2142 32.9756 32.1743 32.9756 32.1347C32.9756 31.2417 31.5942 31.2402 31.5942 32.1347C31.5942 34.5106 31.5942 36.8866 31.5942 39.2626C31.5942 44.9262 31.5942 50.5898 31.5942 56.2534C31.5942 63.0988 31.5942 69.9441 31.5942 76.7894C31.5942 82.7368 31.5942 88.6842 31.5942 94.6317C31.5942 97.494 31.501 100.374 31.5942 103.236C31.5955 103.275 31.5942 103.315 31.5942 103.355C31.5942 103.73 31.9107 104.049 32.2849 104.049C33.951 104.049 35.6171 104.049 37.2832 104.049C41.2849 104.049 45.2866 104.049 49.2883 104.049C54.1309 104.049 58.9734 104.049 63.816 104.049C68.0046 104.049 72.1931 104.049 76.3817 104.049C78.4152 104.049 80.4688 104.133 82.5011 104.049C82.5304 104.047 82.56 104.049 82.5894 104.049C83.4782 104.049 83.4797 102.661 82.5894 102.661Z" fill="#FF765C"></path><path d="M57.4369 58.1443C61.4369 58.1443 64.6795 54.8864 64.6795 50.8676C64.6795 46.8487 61.4369 43.5908 57.4369 43.5908C53.4369 43.5908 50.1943 46.8487 50.1943 50.8676C50.1943 54.8864 53.4369 58.1443 57.4369 58.1443Z" fill="#FFD1C3"></path><path d="M63.9888 50.8675C63.9593 53.5765 62.2851 56.1134 59.7165 57.0434C57.1099 57.9872 54.1849 57.2052 52.3968 55.0779C50.6271 52.9727 50.409 49.8581 51.8051 47.5014C53.195 45.1549 55.997 43.8646 58.6746 44.3999C61.7485 45.0145 63.9546 47.7303 63.9888 50.8675C63.9985 51.76 65.3799 51.7623 65.3701 50.8675C65.3337 47.5303 63.2718 44.5496 60.1554 43.3802C57.0605 42.2188 53.4094 43.2236 51.324 45.792C49.2331 48.367 48.9113 52.0624 50.6123 54.934C52.3209 57.8183 55.6948 59.3046 58.9649 58.6878C62.6715 57.9886 65.3293 54.6111 65.3701 50.8675C65.3798 49.9741 63.9985 49.9735 63.9888 50.8675Z" fill="#FFD1C3"></path><path d="M57.4369 51.6113C54.9122 51.6113 52.6904 52.91 51.394 54.8779C52.6904 56.8458 54.9122 58.1444 57.4369 58.1444C59.9615 58.1444 62.1834 56.8458 63.4797 54.8779C62.1834 52.91 59.9615 51.6113 57.4369 51.6113Z" fill="white"></path><path d="M57.4369 50.2805C58.6638 50.2805 59.6584 49.2812 59.6584 48.0485C59.6584 46.8157 58.6638 45.8164 57.4369 45.8164C56.2099 45.8164 55.2153 46.8157 55.2153 48.0485C55.2153 49.2812 56.2099 50.2805 57.4369 50.2805Z" fill="white"></path><path d="M63.9888 50.8675C63.9593 53.5765 62.2851 56.1134 59.7165 57.0434C57.1099 57.9872 54.1849 57.2052 52.3968 55.0779C50.6271 52.9727 50.409 49.8581 51.8051 47.5014C53.195 45.1549 55.997 43.8646 58.6746 44.3999C61.7485 45.0145 63.9546 47.7303 63.9888 50.8675C63.9985 51.76 65.3799 51.7623 65.3701 50.8675C65.3337 47.5303 63.2718 44.5496 60.1554 43.3802C57.0605 42.2188 53.4094 43.2236 51.324 45.792C49.2331 48.367 48.9113 52.0624 50.6123 54.934C52.3209 57.8183 55.6948 59.3046 58.9649 58.6878C62.6715 57.9886 65.3293 54.6111 65.3701 50.8675C65.3798 49.9741 63.9985 49.9735 63.9888 50.8675Z" fill="#FF9180"></path><path d="M71.8653 66.393H43.0085C42.6139 66.393 42.294 66.0716 42.294 65.6751V63.3512C42.294 62.9547 42.6139 62.6333 43.0085 62.6333H71.8653C72.2599 62.6333 72.5798 62.9547 72.5798 63.3512V65.6751C72.5798 66.0716 72.2599 66.393 71.8653 66.393Z" fill="#FF765C"></path><path d="M71.8653 65.6992C68.1008 65.6992 64.3364 65.6992 60.5719 65.6992C55.2719 65.6992 49.9719 65.6992 44.6718 65.6992C44.2021 65.6992 43.6032 65.8002 43.1419 65.6992C42.999 65.6679 43.0476 65.7359 42.9847 65.6142C42.8972 65.4448 42.9847 64.9797 42.9847 64.792C42.9847 64.4399 42.9847 64.0878 42.9847 63.7357C42.9847 63.5389 42.9269 63.3988 43.0683 63.3274C43.1701 63.276 43.4328 63.3274 43.5447 63.3274C44.2609 63.3274 44.9772 63.3274 45.6935 63.3274C51.2251 63.3274 56.7567 63.3274 62.2883 63.3274C64.7214 63.3274 67.1545 63.3274 69.5877 63.3274C70.2256 63.3274 70.8635 63.3274 71.5014 63.3274C71.5666 63.3274 71.7951 63.2878 71.8502 63.3274C71.9825 63.4224 71.8891 64.0771 71.8891 64.2346C71.8891 64.3526 71.9371 65.692 71.8653 65.6992C70.9892 65.788 70.9801 67.1767 71.8653 67.0871C72.9032 66.982 73.2704 66.2393 73.2704 65.2909C73.2704 64.656 73.301 64.0132 73.2704 63.3791C73.2187 62.307 72.386 61.9395 71.4725 61.9395C69.5769 61.9395 67.6814 61.9395 65.7858 61.9395C59.7179 61.9395 53.65 61.9395 47.5821 61.9395C46.0816 61.9395 44.568 61.8811 43.0683 61.9395C42.4573 61.9634 41.8891 62.2778 41.6842 62.8874C41.4913 63.4614 41.6034 64.199 41.6034 64.792C41.6034 65.5327 41.5102 66.3172 42.1905 66.8155C42.4838 67.0302 42.8126 67.08 43.16 67.0871C47.8192 67.1819 52.4899 67.0871 57.1499 67.0871C61.9688 67.0871 66.7877 67.0871 71.6067 67.0871C71.6929 67.0871 71.7791 67.0871 71.8653 67.0871C72.7541 67.0871 72.7556 65.6992 71.8653 65.6992Z" fill="#FF765C"></path><path d="M69.6853 71.6733C66.9208 71.6733 64.1563 71.6733 61.3918 71.6733C57.0051 71.6733 52.6184 71.6733 48.2317 71.6733C47.2172 71.6733 46.2028 71.6733 45.1884 71.6733C44.2996 71.6733 44.2981 73.0612 45.1884 73.0612C47.9529 73.0612 50.7174 73.0612 53.482 73.0612C57.8687 73.0612 62.2554 73.0612 66.6421 73.0612C67.6565 73.0612 68.6709 73.0612 69.6853 73.0612C70.5742 73.0612 70.5756 71.6733 69.6853 71.6733Z" fill="white"></path><path d="M69.6853 76.5562C66.9208 76.5562 64.1563 76.5562 61.3918 76.5562C57.0051 76.5562 52.6184 76.5562 48.2317 76.5562C47.2172 76.5562 46.2028 76.5562 45.1884 76.5562C44.2996 76.5562 44.2981 77.944 45.1884 77.944C47.9529 77.944 50.7174 77.944 53.482 77.944C57.8687 77.944 62.2554 77.944 66.6421 77.944C67.6565 77.944 68.6709 77.944 69.6853 77.944C70.5742 77.944 70.5756 76.5562 69.6853 76.5562Z" fill="white"></path><path d="M69.6853 81.439C66.9208 81.439 64.1563 81.439 61.3918 81.439C57.0051 81.439 52.6184 81.439 48.2317 81.439C47.2172 81.439 46.2028 81.439 45.1884 81.439C44.2996 81.439 44.2981 82.8268 45.1884 82.8268C47.9529 82.8268 50.7174 82.8268 53.482 82.8268C57.8687 82.8268 62.2554 82.8268 66.6421 82.8268C67.6565 82.8268 68.6709 82.8268 69.6853 82.8268C70.5742 82.8268 70.5756 81.439 69.6853 81.439Z" fill="white"></path><path d="M69.6853 86.3218C66.9208 86.3218 64.1563 86.3218 61.3918 86.3218C57.0051 86.3218 52.6184 86.3218 48.2317 86.3218C47.2172 86.3218 46.2028 86.3218 45.1884 86.3218C44.2996 86.3218 44.2981 87.7096 45.1884 87.7096C47.9529 87.7096 50.7174 87.7096 53.482 87.7096C57.8687 87.7096 62.2554 87.7096 66.6421 87.7096C67.6565 87.7096 68.6709 87.7096 69.6853 87.7096C70.5742 87.7096 70.5756 86.3218 69.6853 86.3218Z" fill="white"></path><path d="M65.5377 91.2046C60.8158 91.2046 56.0939 91.2046 51.372 91.2046C50.6934 91.2046 50.0148 91.2046 49.3362 91.2046C48.4474 91.2046 48.4459 92.5924 49.3362 92.5924C54.0581 92.5924 58.78 92.5924 63.5018 92.5924C64.1805 92.5924 64.8591 92.5924 65.5377 92.5924C66.4265 92.5924 66.428 91.2046 65.5377 91.2046Z" fill="white"></path><path d="M95.8914 48.0483H45.5869V119.268H95.8914V48.0483Z" fill="#A3D2A9"></path><path d="M95.8914 118.575C94.2253 118.575 92.5592 118.575 90.8931 118.575C86.8914 118.575 82.8897 118.575 78.888 118.575C74.0454 118.575 69.2029 118.575 64.3603 118.575C60.1717 118.575 55.9832 118.575 51.7946 118.575C50.4127 118.575 49.0308 118.575 47.6488 118.575C47.0129 118.575 46.3069 118.487 45.6752 118.575C45.647 118.578 45.6156 118.575 45.5869 118.575C45.8171 118.806 46.0474 119.037 46.2776 119.268C46.2776 116.892 46.2776 114.517 46.2776 112.141C46.2776 106.477 46.2776 100.813 46.2776 95.1497C46.2776 88.3044 46.2776 81.459 46.2776 74.6137C46.2776 68.6663 46.2776 62.7189 46.2776 56.7715C46.2776 54.8256 46.2776 52.8797 46.2776 50.9339C46.2776 50.0302 46.3719 49.0678 46.2776 48.1676C46.2735 48.1287 46.2776 48.0875 46.2776 48.0484C46.0474 48.2797 45.8171 48.511 45.5869 48.7423C47.253 48.7423 48.9191 48.7423 50.5852 48.7423C54.5869 48.7423 58.5886 48.7423 62.5903 48.7423C67.4329 48.7423 72.2754 48.7423 77.118 48.7423C81.3066 48.7423 85.4951 48.7423 89.6837 48.7423C91.0656 48.7423 92.4475 48.7423 93.8294 48.7423C94.4654 48.7423 95.1714 48.8296 95.8031 48.7423C95.8313 48.7384 95.8627 48.7423 95.8914 48.7423C95.6612 48.511 95.4309 48.2797 95.2007 48.0484C95.2007 50.4243 95.2007 52.8003 95.2007 55.1762C95.2007 60.8399 95.2007 66.5035 95.2007 72.1671C95.2007 79.0124 95.2007 85.8578 95.2007 92.7031C95.2007 98.6505 95.2007 104.598 95.2007 110.545C95.2007 113.408 95.1074 116.288 95.2007 119.149C95.202 119.189 95.2007 119.229 95.2007 119.268C95.2007 120.161 96.582 120.163 96.582 119.268C96.582 116.892 96.582 114.517 96.582 112.141C96.582 106.477 96.582 100.813 96.582 95.1497C96.582 88.3043 96.582 81.459 96.582 74.6137C96.582 68.6663 96.582 62.7189 96.582 56.7715C96.582 53.9091 96.6753 51.0289 96.582 48.1675C96.5807 48.1279 96.582 48.088 96.582 48.0483C96.582 47.6732 96.2656 47.3544 95.8914 47.3544C94.2253 47.3544 92.5592 47.3544 90.8931 47.3544C86.8914 47.3544 82.8897 47.3544 78.888 47.3544C74.0454 47.3544 69.2029 47.3544 64.3603 47.3544C60.1717 47.3544 55.9832 47.3544 51.7946 47.3544C49.7611 47.3544 47.7075 47.27 45.6752 47.3544C45.6459 47.3556 45.6163 47.3544 45.5869 47.3544C45.2136 47.3544 44.8962 47.6724 44.8962 48.0483C44.8962 50.4243 44.8962 52.8003 44.8962 55.1762C44.8962 60.8399 44.8962 66.5035 44.8962 72.1671C44.8962 79.0124 44.8962 85.8578 44.8962 92.7031C44.8962 98.6505 44.8962 104.598 44.8962 110.545C44.8962 113.408 44.803 116.288 44.8962 119.149C44.8975 119.189 44.8962 119.229 44.8962 119.268C44.8962 119.644 45.2127 119.962 45.5869 119.962C47.253 119.962 48.9191 119.962 50.5852 119.962C54.5869 119.962 58.5886 119.962 62.5903 119.962C67.4329 119.962 72.2754 119.962 77.118 119.962C81.3066 119.962 85.4951 119.962 89.6837 119.962C91.7171 119.962 93.7708 120.047 95.8031 119.962C95.8324 119.961 95.862 119.962 95.8914 119.962C96.7802 119.962 96.7817 118.575 95.8914 118.575Z" fill="#A3D2A9"></path><path d="M95.8919 118.574C94.2258 118.574 92.5597 118.574 90.8936 118.574C86.8919 118.574 82.8902 118.574 78.8884 118.574C74.0459 118.574 69.2033 118.574 64.3608 118.574C60.1722 118.574 55.9836 118.574 51.7951 118.574C50.4132 118.574 49.0312 118.574 47.6493 118.574C47.0134 118.574 46.3074 118.487 45.6757 118.574C45.6474 118.578 45.6161 118.574 45.5874 118.574C45.8176 118.806 46.0478 119.037 46.2781 119.268C46.2781 116.892 46.2781 114.516 46.2781 112.14C46.2781 106.477 46.2781 100.813 46.2781 95.1496C46.2781 88.3042 46.2781 81.4589 46.2781 74.6136C46.2781 68.6662 46.2781 62.7188 46.2781 56.7713C46.2781 53.909 46.3713 51.0288 46.2781 48.1674C46.2768 48.1278 46.2781 48.0879 46.2781 48.0482C46.2781 47.1552 44.8967 47.1538 44.8967 48.0482C44.8967 50.4242 44.8967 52.8002 44.8967 55.1761C44.8967 60.8398 44.8967 66.5034 44.8967 72.167C44.8967 79.0123 44.8967 85.8577 44.8967 92.703C44.8967 98.6504 44.8967 104.598 44.8967 110.545C44.8967 113.408 44.8035 116.288 44.8967 119.149C44.898 119.189 44.8967 119.229 44.8967 119.268C44.8967 119.643 45.2132 119.962 45.5874 119.962C47.2535 119.962 48.9196 119.962 50.5857 119.962C54.5874 119.962 58.5891 119.962 62.5908 119.962C67.4334 119.962 72.2759 119.962 77.1185 119.962C81.3071 119.962 85.4956 119.962 89.6842 119.962C91.7176 119.962 93.7713 120.047 95.8036 119.962C95.8329 119.961 95.8625 119.962 95.8919 119.962C96.7807 119.962 96.7822 118.574 95.8919 118.574Z" fill="#7CBF99"></path><path d="M70.7394 74.0579C74.7394 74.0579 77.982 70.8 77.982 66.7812C77.982 62.7623 74.7394 59.5044 70.7394 59.5044C66.7394 59.5044 63.4968 62.7623 63.4968 66.7812C63.4968 70.8 66.7394 74.0579 70.7394 74.0579Z" fill="#7CBF99"></path><path d="M77.2913 66.781C77.2618 69.4901 75.5877 72.0269 73.019 72.957C70.4124 73.9008 67.4874 73.1188 65.6993 70.9915C63.9297 68.8862 63.7115 65.7717 65.1076 63.415C66.4976 61.0685 69.2995 59.7782 71.9771 60.3135C75.0511 60.9281 77.2571 63.6439 77.2913 66.781C77.301 67.6735 78.6824 67.6759 78.6726 66.781C78.6363 63.4439 76.5743 60.4632 73.458 59.2938C70.363 58.1324 66.7119 59.1372 64.6265 61.7055C62.5356 64.2806 62.2138 67.976 63.9149 70.8476C65.6234 73.7319 68.9973 75.2182 72.2675 74.6014C75.974 73.9022 78.6319 70.5247 78.6727 66.781C78.6824 65.8877 77.3011 65.8871 77.2913 66.781Z" fill="#7CBF99"></path><path d="M70.7394 67.5249C68.2147 67.5249 65.9928 68.8236 64.6965 70.7915C65.9928 72.7594 68.2147 74.058 70.7394 74.058C73.264 74.058 75.4859 72.7594 76.7822 70.7915C75.4859 68.8236 73.264 67.5249 70.7394 67.5249Z" fill="white"></path><path d="M70.7393 66.1941C71.9663 66.1941 72.9609 65.1948 72.9609 63.962C72.9609 62.7293 71.9663 61.73 70.7393 61.73C69.5124 61.73 68.5178 62.7293 68.5178 63.962C68.5178 65.1948 69.5124 66.1941 70.7393 66.1941Z" fill="white"></path><path d="M77.2913 66.781C77.2618 69.4901 75.5877 72.0269 73.019 72.957C70.4124 73.9008 67.4874 73.1188 65.6993 70.9915C63.9297 68.8862 63.7115 65.7717 65.1076 63.415C66.4976 61.0685 69.2995 59.7782 71.9771 60.3135C75.0511 60.9281 77.2571 63.6439 77.2913 66.781C77.301 67.6735 78.6824 67.6759 78.6726 66.781C78.6363 63.4439 76.5743 60.4632 73.458 59.2938C70.363 58.1324 66.7119 59.1372 64.6265 61.7055C62.5356 64.2806 62.2138 67.976 63.9149 70.8476C65.6234 73.7319 68.9973 75.2182 72.2675 74.6014C75.974 73.9022 78.6319 70.5247 78.6727 66.781C78.6824 65.8877 77.3011 65.8871 77.2913 66.781Z" fill="#025749"></path><path d="M85.1679 82.307H56.3111C55.9165 82.307 55.5966 81.9856 55.5966 81.5892V79.2652C55.5966 78.8688 55.9165 78.5474 56.3111 78.5474H85.1679C85.5625 78.5474 85.8824 78.8688 85.8824 79.2652V81.5892C85.8824 81.9856 85.5625 82.307 85.1679 82.307Z" fill="#7CBF99"></path><path d="M85.1679 81.6133C81.4034 81.6133 77.6389 81.6133 73.8745 81.6133C68.5744 81.6133 63.2744 81.6133 57.9744 81.6133C57.5046 81.6133 56.9058 81.7143 56.4445 81.6133C56.3015 81.582 56.3501 81.65 56.2872 81.5283C56.1997 81.3588 56.2872 80.8938 56.2872 80.7061C56.2872 80.354 56.2872 80.0019 56.2872 79.6498C56.2872 79.4529 56.2295 79.3129 56.3709 79.2415C56.4726 79.19 56.7353 79.2415 56.8472 79.2415C57.5635 79.2415 58.2798 79.2415 58.996 79.2415C64.5276 79.2415 70.0592 79.2415 75.5908 79.2415C78.0239 79.2415 80.4571 79.2415 82.8902 79.2415C83.5281 79.2415 84.1661 79.2415 84.804 79.2415C84.8692 79.2415 85.0976 79.2019 85.1528 79.2415C85.285 79.3364 85.1917 79.9911 85.1917 80.1487C85.1917 80.2666 85.2396 81.606 85.1679 81.6133C84.2918 81.702 84.2827 83.0908 85.1679 83.0011C86.2058 82.896 86.573 82.1534 86.573 81.2049C86.573 80.5701 86.6036 79.9272 86.573 79.2932C86.5212 78.221 85.6885 77.8536 84.775 77.8536C82.8795 77.8536 80.984 77.8536 79.0884 77.8536C73.0205 77.8536 66.9526 77.8536 60.8847 77.8536C59.3842 77.8536 57.8706 77.7952 56.3709 77.8536C55.7599 77.8774 55.1916 78.1919 54.9867 78.8015C54.7938 79.3754 54.9059 80.1131 54.9059 80.7061C54.9059 81.4468 54.8128 82.2313 55.4931 82.7295C55.7863 82.9443 56.1151 82.9941 56.4626 83.0011C61.1217 83.096 65.7925 83.0011 70.4524 83.0011C75.2714 83.0011 80.0903 83.0011 84.9092 83.0011C84.9954 83.0011 85.0816 83.0011 85.1678 83.0011C86.0567 83.0011 86.0581 81.6133 85.1679 81.6133Z" fill="#7CBF99"></path><path d="M85.1679 81.6133C81.921 81.6133 78.6742 81.6133 75.4273 81.6133C70.2486 81.6133 65.07 81.6133 59.8913 81.6133C58.6979 81.6133 57.5045 81.6133 56.3111 81.6133C55.4223 81.6133 55.4208 83.0011 56.3111 83.0011C59.5579 83.0011 62.8048 83.0011 66.0517 83.0011C71.2303 83.0011 76.409 83.0011 81.5877 83.0011C82.7811 83.0011 83.9745 83.0011 85.1679 83.0011C86.0567 83.0011 86.0582 81.6133 85.1679 81.6133Z" fill="#025749"></path><path d="M82.9879 87.5874C80.2234 87.5874 77.4589 87.5874 74.6943 87.5874C70.3076 87.5874 65.9209 87.5874 61.5342 87.5874C60.5198 87.5874 59.5054 87.5874 58.491 87.5874C57.6021 87.5874 57.6007 88.9752 58.491 88.9752C61.2555 88.9752 64.02 88.9752 66.7845 88.9752C71.1712 88.9752 75.5579 88.9752 79.9446 88.9752C80.9591 88.9752 81.9735 88.9752 82.9879 88.9752C83.8767 88.9752 83.8782 87.5874 82.9879 87.5874Z" fill="white"></path><path d="M82.9878 92.4702C80.2233 92.4702 77.4588 92.4702 74.6943 92.4702C70.3076 92.4702 65.9209 92.4702 61.5342 92.4702C60.5197 92.4702 59.5053 92.4702 58.4909 92.4702C57.6021 92.4702 57.6006 93.8581 58.4909 93.8581C61.2554 93.8581 64.0199 93.8581 66.7844 93.8581C71.1712 93.8581 75.5579 93.8581 79.9446 93.8581C80.959 93.8581 81.9734 93.8581 82.9878 93.8581C83.8766 93.8581 83.8781 92.4702 82.9878 92.4702Z" fill="white"></path><path d="M82.9878 97.353C80.2233 97.353 77.4588 97.353 74.6943 97.353C70.3076 97.353 65.9209 97.353 61.5342 97.353C60.5197 97.353 59.5053 97.353 58.4909 97.353C57.6021 97.353 57.6006 98.7409 58.4909 98.7409C61.2554 98.7409 64.0199 98.7409 66.7844 98.7409C71.1712 98.7409 75.5579 98.7409 79.9446 98.7409C80.959 98.7409 81.9734 98.7409 82.9878 98.7409C83.8766 98.7409 83.8781 97.353 82.9878 97.353Z" fill="white"></path><path d="M82.9878 102.236C80.2233 102.236 77.4588 102.236 74.6943 102.236C70.3076 102.236 65.9209 102.236 61.5342 102.236C60.5197 102.236 59.5053 102.236 58.4909 102.236C57.6021 102.236 57.6006 103.624 58.4909 103.624C61.2554 103.624 64.0199 103.624 66.7844 103.624C71.1712 103.624 75.5579 103.624 79.9446 103.624C80.959 103.624 81.9734 103.624 82.9878 103.624C83.8766 103.624 83.8781 102.236 82.9878 102.236Z" fill="white"></path><path d="M78.8402 107.119C74.1183 107.119 69.3964 107.119 64.6745 107.119C63.9959 107.119 63.3173 107.119 62.6387 107.119C61.7498 107.119 61.7484 108.506 62.6387 108.506C67.3606 108.506 72.0824 108.506 76.8043 108.506C77.483 108.506 78.1616 108.506 78.8402 108.506C79.729 108.506 79.7305 107.119 78.8402 107.119Z" fill="white"></path><path d="M101.227 83.6553C102.114 83.6553 102.833 82.9328 102.833 82.0415C102.833 81.1502 102.114 80.4277 101.227 80.4277C100.34 80.4277 99.6206 81.1502 99.6206 82.0415C99.6206 82.9328 100.34 83.6553 101.227 83.6553Z" fill="#FF765C"></path><path d="M102.142 82.0411C102.142 82.0862 102.138 82.1308 102.137 82.1757C102.132 82.3003 102.135 82.1318 102.145 82.1228C102.119 82.1458 102.109 82.2909 102.096 82.334C102.088 82.3589 102.049 82.4311 102.053 82.4552C102.05 82.4392 102.128 82.3045 102.071 82.406C102.029 82.4803 101.988 82.552 101.941 82.6235C101.865 82.7414 102.029 82.5424 101.959 82.599C101.933 82.6201 101.912 82.6526 101.889 82.6766C101.869 82.6967 101.849 82.7162 101.829 82.7352C101.819 82.7446 101.808 82.754 101.798 82.7634C101.742 82.8103 101.756 82.8006 101.84 82.7343C101.787 82.7471 101.713 82.8221 101.665 82.8494C101.64 82.8633 101.614 82.875 101.59 82.889C101.476 82.9549 101.741 82.8448 101.579 82.8936C101.51 82.9144 101.443 82.937 101.372 82.9517C101.257 82.9757 101.342 82.9191 101.405 82.9512C101.385 82.9412 101.319 82.9584 101.294 82.9594C101.219 82.9626 101.146 82.9569 101.071 82.9533C100.972 82.9485 101.248 82.9893 101.103 82.9562C101.06 82.9466 101.018 82.9379 100.976 82.9262C100.935 82.9146 100.895 82.8996 100.854 82.8865C100.766 82.8582 100.878 82.8621 100.902 82.9074C100.885 82.8746 100.755 82.8305 100.717 82.8061C100.688 82.7875 100.66 82.764 100.63 82.7468C100.551 82.701 100.756 82.8629 100.656 82.7634C100.627 82.735 100.511 82.588 100.481 82.583C100.524 82.59 100.563 82.7019 100.512 82.6235C100.489 82.5881 100.465 82.5539 100.443 82.5175C100.429 82.4933 100.415 82.4687 100.402 82.4438C100.396 82.4312 100.389 82.4186 100.383 82.406C100.352 82.3389 100.358 82.3553 100.401 82.4552C100.407 82.404 100.348 82.3031 100.335 82.2508C100.328 82.2226 100.322 82.1942 100.316 82.1658C100.285 82.029 100.327 82.3326 100.315 82.1534C100.311 82.0861 100.31 82.0185 100.314 81.9511C100.318 81.8803 100.363 81.7949 100.308 81.9595C100.317 81.9338 100.319 81.9009 100.325 81.8738C100.341 81.8031 100.364 81.7358 100.385 81.667C100.43 81.5238 100.309 81.8059 100.383 81.6762C100.404 81.6395 100.422 81.6012 100.443 81.5648C100.461 81.5345 100.482 81.5059 100.5 81.4761C100.564 81.3744 100.538 81.49 100.481 81.4992C100.507 81.495 100.602 81.3683 100.625 81.347C100.648 81.3254 100.745 81.2728 100.65 81.3198C100.549 81.3704 100.663 81.3121 100.682 81.2992C100.724 81.2707 100.888 81.2105 100.902 81.1749C100.897 81.1858 100.739 81.2331 100.854 81.1958C100.895 81.1826 100.935 81.1677 100.976 81.1561C101.004 81.1483 101.032 81.1413 101.06 81.135C101.081 81.1302 101.219 81.116 101.097 81.1247C100.971 81.1337 101.12 81.1247 101.137 81.1238C101.175 81.1217 101.212 81.1211 101.249 81.1216C101.287 81.1221 101.324 81.1256 101.361 81.1268C101.507 81.1317 101.22 81.0934 101.351 81.1261C101.435 81.1472 101.517 81.1694 101.599 81.1958C101.735 81.2391 101.497 81.1315 101.571 81.1841C101.61 81.2117 101.66 81.2293 101.701 81.2541C101.725 81.2685 101.749 81.2836 101.772 81.2992C101.795 81.3149 101.818 81.3311 101.84 81.348C101.756 81.2817 101.742 81.272 101.798 81.3189C101.847 81.3683 101.896 81.4178 101.946 81.4673C102.05 81.572 101.861 81.3346 101.941 81.4588C101.964 81.4943 101.989 81.5284 102.01 81.5648C102.032 81.6012 102.05 81.6394 102.071 81.6762C102.135 81.7904 102.025 81.5318 102.068 81.667C102.095 81.7502 102.116 81.8317 102.138 81.9164C102.159 82.0045 102.103 81.9212 102.133 81.8624C102.117 81.8933 102.142 82.0035 102.142 82.0411C102.147 82.4039 102.456 82.752 102.833 82.7351C103.203 82.7184 103.529 82.43 103.524 82.0411C103.51 81.0533 102.9 80.2107 101.986 79.8652C101.131 79.542 100.071 79.8254 99.4908 80.5342C98.8714 81.2908 98.7411 82.3613 99.2506 83.218C99.7597 84.0739 100.735 84.4722 101.697 84.2983C102.759 84.1063 103.509 83.0982 103.524 82.0411C103.529 81.678 103.202 81.3306 102.833 81.3472C102.455 81.3642 102.148 81.6521 102.142 82.0411Z" fill="#FF765C"></path><path d="M61.0915 9.74512C61.9786 9.74512 62.6977 9.02261 62.6977 8.13135C62.6977 7.24009 61.9786 6.51758 61.0915 6.51758C60.2045 6.51758 59.4854 7.24009 59.4854 8.13135C59.4854 9.02261 60.2045 9.74512 61.0915 9.74512Z" fill="#FF765C"></path><path d="M62.0071 8.13147C62.0065 8.1765 62.0032 8.22111 62.0016 8.26605C61.9972 8.39067 61.9996 8.22214 62.01 8.21309C61.9835 8.23614 61.9736 8.3812 61.9604 8.42431C61.9527 8.44925 61.9134 8.52143 61.9177 8.54555C61.9148 8.52954 61.9927 8.39486 61.9355 8.49637C61.8936 8.57065 61.8526 8.64228 61.8062 8.71382C61.7298 8.83169 61.8934 8.63269 61.824 8.68933C61.7982 8.71039 61.7769 8.74292 61.7536 8.76695C61.7342 8.78699 61.7142 8.80657 61.6938 8.82557C61.6834 8.83495 61.6731 8.84432 61.6627 8.8537C61.6069 8.9006 61.621 8.89093 61.705 8.82467C61.6514 8.83738 61.5777 8.91241 61.5293 8.93976C61.5049 8.95358 61.4791 8.96533 61.4548 8.97935C61.3403 9.04525 61.6062 8.93513 61.4439 8.98394C61.3749 9.00467 61.3076 9.02728 61.2369 9.04207C61.1222 9.06607 61.2067 9.00938 61.2695 9.04152C61.25 9.03152 61.1834 9.04875 61.1589 9.04976C61.0838 9.05287 61.0104 9.04727 60.9356 9.04364C60.8365 9.03884 61.1132 9.07963 60.9675 9.04651C60.9251 9.03689 60.8831 9.02823 60.8413 9.01652C60.7999 9.00494 60.76 8.98993 60.7192 8.97678C60.6313 8.94848 60.7432 8.95237 60.7665 8.99768C60.7497 8.96495 60.62 8.92085 60.5816 8.89642C60.5524 8.87781 60.5249 8.85434 60.495 8.83706C60.416 8.79134 60.6207 8.95317 60.5204 8.85369C60.4918 8.8253 60.3758 8.67828 60.3455 8.67336C60.3885 8.68033 60.4279 8.79219 60.3769 8.71381C60.354 8.67842 60.3298 8.64418 60.3082 8.60785C60.2938 8.58367 60.28 8.55903 60.2669 8.53411C60.2605 8.52153 60.2541 8.50894 60.2477 8.49636C60.2165 8.42926 60.2225 8.44565 60.2655 8.54554C60.2718 8.49435 60.2127 8.39344 60.1996 8.34111C60.1926 8.31293 60.1872 8.2845 60.1808 8.25617C60.15 8.11935 60.1923 8.42297 60.18 8.24376C60.1754 8.17641 60.1748 8.10885 60.1785 8.04143C60.1824 7.97066 60.228 7.88522 60.1731 8.04984C60.1817 8.0241 60.1837 7.99123 60.1897 7.96408C60.2053 7.89342 60.2286 7.8261 60.2502 7.7573C60.2952 7.61411 60.1737 7.89619 60.2477 7.76656C60.2686 7.72985 60.2865 7.6915 60.3082 7.65507C60.3262 7.62484 60.3465 7.59626 60.365 7.56645C60.4284 7.46471 60.4025 7.58031 60.3455 7.58957C60.3717 7.58532 60.4665 7.45867 60.4894 7.43736C60.5126 7.41573 60.6094 7.36307 60.5152 7.41009C60.4138 7.46069 60.5274 7.4024 60.5465 7.38954C60.5887 7.36106 60.7524 7.30084 60.7665 7.26524C60.7622 7.27614 60.6041 7.32341 60.7192 7.28614C60.76 7.27292 60.7999 7.25803 60.8413 7.2464C60.869 7.23861 60.8969 7.23161 60.925 7.2253C60.946 7.22056 61.0837 7.20631 60.962 7.21503C60.836 7.22406 60.9845 7.21505 61.002 7.21409C61.0393 7.21202 61.0767 7.21141 61.114 7.21193C61.1513 7.21244 61.1883 7.21591 61.2255 7.21715C61.3718 7.22201 61.085 7.18367 61.2157 7.21642C61.2998 7.2375 61.3814 7.25976 61.464 7.28614C61.5994 7.32942 61.3619 7.22182 61.4357 7.27441C61.4745 7.30206 61.5245 7.31964 61.5657 7.34438C61.5897 7.35879 61.6134 7.37388 61.6367 7.38954C61.6599 7.40519 61.6827 7.42143 61.705 7.43826C61.621 7.372 61.6069 7.36233 61.6627 7.40923C61.712 7.4586 61.7613 7.50814 61.8104 7.55764C61.9144 7.66236 61.7258 7.42489 61.8062 7.54912C61.8292 7.58461 61.8533 7.61869 61.875 7.65507C61.8966 7.69152 61.9147 7.72968 61.9355 7.76656C61.9997 7.88071 61.89 7.62212 61.9329 7.7573C61.9594 7.84051 61.9813 7.92198 62.0023 8.00676C62.0242 8.09486 61.9676 8.01147 61.9974 7.95269C61.9817 7.98362 62.0066 8.09387 62.0071 8.13147C62.0121 8.49426 62.3212 8.84234 62.6978 8.8254C63.0677 8.80875 63.3937 8.52038 63.3884 8.13147C63.3749 7.14364 62.7649 6.30106 61.8511 5.95555C60.9963 5.63238 59.936 5.91571 59.3556 6.62454C58.7362 7.3811 58.6059 8.4516 59.1154 9.30833C59.6245 10.1643 60.5999 10.5625 61.5615 10.3887C62.6235 10.1967 63.374 9.18851 63.3884 8.13147C63.3934 7.76838 63.0672 7.42093 62.6978 7.43755C62.3193 7.45458 62.0124 7.74239 62.0071 8.13147Z" fill="#FF765C"></path></g><defs><clipPath id="clip0_1067_32692"><rect width="113" height="120" fill="white" transform="translate(4)"></rect></clipPath></defs></svg> 