<?xml version="1.0" encoding="UTF-8"?> <svg xmlns="http://www.w3.org/2000/svg" width="120" height="120" viewBox="0 0 120 120" fill="none"><rect width="120" height="120" fill="white"></rect><g clip-path="url(#clip0_1070_41206)"><path d="M46.0895 69.4518C57.4937 69.4518 66.7387 60.2209 66.7387 48.8341C66.7387 37.4472 57.4937 28.2163 46.0895 28.2163C34.6854 28.2163 25.4404 37.4472 25.4404 48.8341C25.4404 60.2209 34.6854 69.4518 46.0895 69.4518Z" fill="#FFF0E9"></path><path d="M24.7444 48.8339C24.7444 57.6833 30.4055 65.7914 38.758 68.8493C47.1568 71.9536 56.9013 69.2663 62.516 62.4092C68.1771 55.5057 68.966 45.4516 64.2793 37.8068C59.6391 30.2084 50.5442 26.2238 41.7741 27.9844C33.1897 29.6987 26.3221 36.8339 24.9764 45.4516C24.7908 46.5636 24.698 47.7219 24.698 48.8339C24.698 49.9458 26.0901 49.7142 26.0901 48.8339C26.0901 40.5404 31.38 32.942 39.222 30.1157C47.1104 27.2895 56.0661 29.7451 61.4024 36.1389C66.7851 42.579 67.4347 52.0308 63.0729 59.1659C58.7574 66.2547 50.2194 70.0076 42.0989 68.3397C34.0249 66.718 27.6678 60.0462 26.3685 51.8918C25.0692 43.7373 26.1365 49.8532 26.1365 48.7875C26.1365 47.7219 24.7444 47.9072 24.7444 48.7875V48.8339Z" fill="#FFF0E9"></path><path d="M72.539 55.4131C77.2288 55.4131 81.0307 51.617 81.0307 46.9343C81.0307 42.2516 77.2288 38.4556 72.539 38.4556C67.8492 38.4556 64.0474 42.2516 64.0474 46.9343C64.0474 51.617 67.8492 55.4131 72.539 55.4131Z" fill="#FFF0E9"></path><path d="M63.3513 46.9343C63.3513 50.7798 65.8107 54.2547 69.43 55.552C73.0494 56.8957 77.2721 55.7374 79.685 52.7258C82.0979 49.7142 82.4692 45.4516 80.4274 42.1621C78.4321 38.8725 74.5343 37.1582 70.7757 37.8995C67.0171 38.6408 63.3977 42.5791 63.3513 46.9343C63.3513 47.8146 64.7434 47.8146 64.7434 46.9343C64.7434 43.691 66.7851 40.7258 69.8477 39.6138C72.9566 38.5018 76.4832 39.4285 78.5713 41.9767C80.6595 44.4787 80.8915 48.1389 79.2674 50.9188C77.6433 53.6987 74.2559 55.2277 71.0541 54.5791C67.3883 53.8377 64.7898 50.6408 64.7434 46.9343C64.7434 46.054 63.3513 46.054 63.3513 46.9343Z" fill="#FFF0E9"></path><path d="M91.9818 36.7875C95.6721 36.7875 98.6637 33.8004 98.6637 30.1157C98.6637 26.4309 95.6721 23.4438 91.9818 23.4438C88.2914 23.4438 85.2998 26.4309 85.2998 30.1157C85.2998 33.8004 88.2914 36.7875 91.9818 36.7875Z" fill="#FFF0E9"></path><path d="M84.6038 30.1159C84.6038 33.2201 86.5527 36.0001 89.476 37.0657C92.353 38.1313 95.7404 37.2047 97.6893 34.8418C99.6382 32.4788 99.963 29.0039 98.3853 26.363C96.8076 23.6757 93.6058 22.2858 90.5433 22.8881C87.4807 23.4904 84.6502 26.6873 84.6038 30.1159C84.6038 30.9962 85.9958 30.9962 85.9958 30.1159C85.9958 27.614 87.6199 25.2974 90.0329 24.4634C92.3994 23.6294 95.0907 24.3707 96.6684 26.3167C98.2461 28.2626 98.4317 31.0425 97.1788 33.1738C95.926 35.3051 93.3738 36.4634 90.9145 36.0001C88.4552 35.5367 86.0422 32.9885 85.9958 30.1159C85.9958 29.2356 84.6038 29.2356 84.6038 30.1159Z" fill="#FFF0E9"></path><path d="M36.3452 90.9499C47.7493 90.9499 56.9943 81.719 56.9943 70.3321C56.9943 58.9452 47.7493 49.7144 36.3452 49.7144C24.941 49.7144 15.696 58.9452 15.696 70.3321C15.696 81.719 24.941 90.9499 36.3452 90.9499Z" fill="#FFF0E9"></path><path d="M15 70.3319C15 79.1813 20.6611 87.2894 29.0136 90.3474C37.4124 93.4516 47.1569 90.7644 52.7716 83.9072C58.4327 77.0037 59.2216 66.9497 54.5349 59.3049C49.8947 51.7064 40.7998 47.7219 32.0297 49.4825C23.4917 51.1968 16.6241 58.3319 15.2784 66.9497C15.0928 68.0616 15 69.2199 15 70.3319C15 71.4439 16.3921 71.2122 16.3921 70.3319C16.3921 62.0385 21.682 54.44 29.524 51.6138C37.4124 48.7875 46.3681 51.2431 51.7044 57.6369C57.0871 64.0771 57.7367 73.5288 53.3749 80.664C49.0594 87.7528 40.5214 91.5057 32.4009 89.8377C24.2805 88.1698 17.9234 81.5906 16.6241 73.4362C16.4385 72.4169 16.3921 71.3976 16.3921 70.3319C16.3921 69.4516 15 69.4516 15 70.3319Z" fill="#FFF0E9"></path><path d="M76.0657 101.699C91.1089 101.699 103.304 89.5225 103.304 74.5021C103.304 59.4817 91.1089 47.3052 76.0657 47.3052C61.0224 47.3052 48.8274 59.4817 48.8274 74.5021C48.8274 89.5225 61.0224 101.699 76.0657 101.699Z" fill="#FFF0E9"></path><path d="M48.1313 74.5017C48.1313 80.2469 49.941 85.9458 53.282 90.6253C56.623 95.3048 61.1705 98.7334 66.4603 100.679C71.7502 102.625 78.1074 102.95 83.7685 101.328C89.4296 99.7064 94.0698 96.6021 97.6428 92.2469C101.309 87.8454 103.49 82.3782 103.954 76.6793C104.418 70.9342 103.026 65.05 100.009 60.0925C97.086 55.2739 92.7242 51.382 87.6199 49.0654C82.2836 46.6562 76.2513 46.0075 70.4974 47.1658C64.7434 48.3241 59.8248 51.1504 55.927 55.2276C52.0292 59.3048 49.3842 64.5867 48.5026 70.1929C48.2706 71.6292 48.1777 73.0654 48.1777 74.5481C48.1777 76.0307 49.5698 75.4284 49.5698 74.5481C49.5698 69.0346 51.2867 63.66 54.4885 59.2122C57.5511 54.857 62.0057 51.4747 67.0172 49.6678C72.2606 47.7681 78.061 47.5365 83.4436 49.0654C88.5943 50.5481 93.1882 53.5597 96.622 57.6832C100.056 61.8068 102.237 67.0886 102.608 72.4631C103.026 77.9766 101.726 83.5365 98.8493 88.2624C96.0651 92.8492 91.9353 96.5095 87.063 98.6871C82.0052 101.004 76.2513 101.606 70.8222 100.494C65.3931 99.382 60.66 96.7411 56.9478 92.8492C53.2356 88.9573 50.7763 83.9998 49.8946 78.6716C49.013 73.3434 49.5698 75.938 49.5698 74.5481C49.5698 73.6678 48.1777 73.6678 48.1777 74.5481L48.1313 74.5017Z" fill="#FFF0E9"></path><path d="M40.5679 48.3705C47.389 48.3705 53.6998 52.2623 56.8087 58.3318C58.108 60.8801 58.7576 63.7527 58.804 66.6253C58.804 67.4129 58.804 68.2469 58.804 69.0345V95.7681C58.804 98.4554 58.7112 101.189 58.804 103.876C58.804 103.876 58.804 103.969 58.804 104.015C58.804 104.896 60.1961 104.896 60.1961 104.015V69.6369C60.1961 68.6639 60.1961 67.6909 60.1961 66.7643C60.1961 64.1697 59.7321 61.6214 58.7576 59.2122C56.1127 52.8183 50.1732 48.1388 43.2592 47.2122C36.3452 46.2855 41.4959 47.0268 40.6143 47.0268C39.7326 47.0268 39.7326 48.4168 40.6143 48.4168L40.5679 48.3705Z" fill="#7CBF99"></path><path d="M78.4322 46.9804C71.4254 46.9804 64.8363 50.7796 61.4025 56.8955C59.732 59.8607 58.8503 63.1966 58.8503 66.5789C58.8503 67.2738 58.8503 67.9688 58.8503 68.6175V95.4437C58.8503 98.2237 58.7575 101.05 58.8503 103.83C58.8503 103.83 58.8503 103.922 58.8503 103.969C58.8503 104.849 60.2424 104.849 60.2424 103.969V66.8569C60.2424 64.6793 60.5672 62.548 61.2633 60.5094C63.4906 54.1619 69.2445 49.436 75.9265 48.5094C82.6084 47.5827 77.5969 48.324 78.4786 48.324C79.3602 48.324 79.3602 46.9341 78.4786 46.9341L78.4322 46.9804Z" fill="#7CBF99"></path><path d="M58.804 66.5792V103.969C58.804 104.849 60.196 104.849 60.196 103.969V66.5792C60.196 65.6989 58.804 65.6989 58.804 66.5792Z" fill="#025749"></path><path d="M40.5678 70.6564C46.0433 70.6564 51.89 72.417 55.695 76.5405C57.2727 78.2085 58.3864 80.3398 58.7112 82.6564C58.804 83.3977 58.804 84.1853 58.804 84.973V105.035C58.804 107.212 58.7112 109.436 58.804 111.614C58.8968 113.791 58.804 111.707 58.804 111.707C58.804 112.587 60.1961 112.587 60.1961 111.707V85.251C60.1961 84.556 60.1961 83.861 60.1961 83.2123C60.0105 80.8031 59.0824 78.5328 57.5975 76.6332C54.1638 72.1853 48.4562 69.8687 42.9807 69.4054C37.5053 68.9421 41.4031 69.3127 40.6142 69.3127C39.8254 69.3127 39.7326 70.7027 40.6142 70.7027L40.5678 70.6564Z" fill="#7CBF99"></path><path d="M78.4322 69.2666C72.7247 69.2666 66.7388 71.0736 62.6554 75.1971C60.9385 76.9114 59.6392 79.0427 59.0824 81.4056C58.5256 83.7685 58.804 83.5369 58.804 84.6488V104.757C58.804 107.027 58.7112 109.297 58.804 111.568C58.8968 113.838 58.804 111.66 58.804 111.66C58.804 112.541 60.1961 112.541 60.1961 111.66V85.6218C60.1961 85.0658 60.1961 84.5098 60.1961 83.9539C60.1961 81.7763 60.9385 79.7376 62.145 77.9307C65.2075 73.4828 70.8222 71.2125 76.0193 70.7492C81.2164 70.2859 77.597 70.6566 78.3858 70.6566C79.1747 70.6566 79.2675 69.2666 78.3858 69.2666H78.4322Z" fill="#7CBF99"></path><path d="M88.8263 86.085H30.1271C29.4608 86.085 28.9207 86.6243 28.9207 87.2896V94.6564C28.9207 95.3217 29.4608 95.861 30.1271 95.861H88.8263C89.4926 95.861 90.0327 95.3217 90.0327 94.6564V87.2896C90.0327 86.6243 89.4926 86.085 88.8263 86.085Z" fill="#FF9180"></path><path d="M88.8263 95.1661H30.5912C30.3127 95.1661 29.9415 95.2124 29.7559 94.9808C29.5703 94.7491 29.6631 94.2395 29.6631 93.9615V87.7066C29.6631 87.197 29.7559 86.8263 30.3127 86.8263C30.8696 86.8263 31.0088 86.8263 31.3336 86.8263H71.7502C76.4832 86.8263 81.2163 86.8263 85.9493 86.8263C90.6824 86.8263 87.8518 86.78 88.7799 86.8263C89.7079 86.8727 89.3831 87.5213 89.3831 88.0773V94.2395C89.3831 94.6564 89.3831 95.1661 88.8727 95.2124C87.9911 95.2588 87.9911 96.6487 88.8727 96.6024C89.7543 96.5561 90.7288 95.7684 90.7752 94.6565C90.8216 93.5445 90.7752 93.8225 90.7752 93.4055V88.726C90.7752 88.2626 90.7752 87.8456 90.7752 87.3823C90.7752 86.4557 90.172 85.6217 89.1975 85.4364C88.2231 85.251 88.6407 85.4364 88.3623 85.4364H39.7789C36.6235 85.4364 33.4217 85.39 30.2663 85.4364C27.111 85.4827 28.271 86.224 28.2246 87.3823C28.2246 88.587 28.2246 89.7453 28.2246 90.9499C28.2246 92.1545 28.2246 93.4055 28.2246 94.6101C28.2246 95.8148 29.1063 96.5561 30.2663 96.5561C33.4217 96.6024 36.5307 96.5561 39.6861 96.5561H88.8263C89.708 96.5561 89.708 95.1661 88.8263 95.1661Z" fill="#FF9180"></path><path d="M30.1272 86.7798H81.634C84.0005 86.7798 86.3671 86.8724 88.7336 86.7798C91.1001 86.6871 88.78 86.7798 88.8264 86.7798C89.708 86.7798 89.708 85.3898 88.8264 85.3898H37.366C34.9995 85.3898 32.633 85.2972 30.2664 85.3898C27.8999 85.4825 30.22 85.3898 30.1736 85.3898C29.292 85.3898 29.292 86.7798 30.1736 86.7798H30.1272Z" fill="#025749"></path><path d="M75.9265 119.259H43.0736C41.8207 119.259 40.7071 118.471 40.3358 117.266L33.4683 95.8608H85.5783L78.7107 117.266C78.3395 118.471 77.2258 119.259 75.9729 119.259H75.9265Z" fill="#FF9180"></path><path d="M75.9265 118.564H45.3009C44.4193 118.564 43.2128 118.749 42.3775 118.425C40.9855 117.915 40.7535 116.062 40.3358 114.811L38.1549 108.046L34.2571 95.8612L34.1643 95.6295L33.5147 96.5098H83.4902C84.1398 96.5098 84.8822 96.6025 85.5319 96.5098C86.1815 96.4172 85.5783 96.5098 85.6247 96.5098L84.975 95.6295L82.4229 103.599L78.6179 115.367C78.1539 116.757 77.8755 118.471 76.0194 118.518C74.1633 118.564 75.1377 119.954 76.0194 119.907C77.597 119.907 78.8963 118.888 79.4531 117.406C79.5459 117.128 79.6387 116.85 79.7316 116.618L81.2628 111.938L85.3927 99.1507L86.4135 96.0465C86.5527 95.6295 86.1815 95.1662 85.7639 95.1662H39.8718C37.7837 95.1662 35.6492 95.0735 33.5147 95.1662C31.3801 95.2588 33.4683 95.1662 33.4219 95.1662C33.0042 95.1662 32.633 95.6295 32.7722 96.0465L36.206 106.749C37.3661 110.317 38.4333 113.931 39.6398 117.452C40.8463 120.973 41.4959 119.954 43.0736 119.954C44.6513 119.954 43.7232 119.954 44.0016 119.954H65.0684C68.595 119.954 72.1215 120.046 75.6945 119.954C79.2675 119.861 75.7873 119.954 75.8801 119.954C76.7618 119.954 76.7618 118.564 75.8801 118.564H75.9265Z" fill="#FF9180"></path><path d="M89.3833 94.6563C89.3369 95.3976 88.0377 95.166 87.5272 95.166H37.5053C35.0924 95.166 32.6795 95.0733 30.2665 95.166C27.8536 95.2586 30.2201 95.166 30.1737 95.166C29.2921 95.166 29.2921 96.5559 30.1737 96.5559H82.7942C84.8359 96.5559 86.8776 96.6486 88.8729 96.5559C90.8682 96.4633 90.729 95.722 90.7754 94.6563C90.8218 93.776 89.4297 93.776 89.3833 94.6563Z" fill="#FF765C"></path><path d="M80.5205 107.537L76.2979 111.753L72.0753 107.537L67.8527 111.753L63.63 107.537L59.4074 111.753L55.1848 107.537L50.9622 111.753L46.7395 107.537L42.5169 111.753L38.2943 107.537L37.3198 108.51L40.1504 117.266C40.5216 118.471 41.6353 119.259 42.8881 119.259H75.6947C76.9476 119.259 78.0612 118.471 78.4324 117.266L81.263 108.51L80.2885 107.537H80.5205Z" fill="#FF765C"></path><path d="M80.01 107.027L75.7874 111.243H76.7618L72.5392 107.027C72.2608 106.749 71.8432 106.749 71.5648 107.027L67.3421 111.243H68.3166L64.094 107.027C63.8155 106.749 63.3979 106.749 63.1195 107.027L58.8969 111.243H59.8713L55.6487 107.027C55.3703 106.749 54.9527 106.749 54.6742 107.027L50.4516 111.243H51.4261L47.2034 107.027C46.925 106.749 46.5074 106.749 46.229 107.027L42.0064 111.243H42.9808L38.7582 107.027C38.4798 106.749 38.0621 106.749 37.7837 107.027L36.8093 108C36.6237 108.185 36.5773 108.463 36.6237 108.695L38.387 114.208L39.315 117.127C39.7326 118.332 40.4287 119.351 41.7279 119.768C43.0272 120.185 43.8161 119.954 44.7905 119.954H66.1821C69.3374 119.954 72.4928 120 75.6018 119.954C78.7107 119.907 78.2931 119.212 78.8963 117.915C79.1748 117.266 79.3604 116.571 79.5924 115.923L81.7733 109.205L81.9589 108.695C82.0517 108.463 81.9589 108.185 81.7733 108L80.7989 107.027C80.1492 106.378 79.1748 107.398 79.8244 108L80.7989 108.973L80.6132 108.278L78.8963 113.606L77.9219 116.571C77.5971 117.591 77.0403 118.425 75.8338 118.517C74.6273 118.61 74.2561 118.517 73.4673 118.517H52.4933C49.338 118.517 46.1362 118.517 42.9808 118.517C39.8254 118.517 41.1247 118.008 40.7535 117.035C40.3823 116.062 40.3823 115.83 40.1967 115.228L38.1086 108.741L37.9693 108.278L37.7837 108.973L38.7582 108H37.7837L42.0064 112.216C42.2848 112.494 42.7024 112.494 42.9808 112.216L47.2034 108H46.229L50.4516 112.216C50.73 112.494 51.1477 112.494 51.4261 112.216L55.6487 108H54.6742L58.8969 112.216C59.1753 112.494 59.5929 112.494 59.8713 112.216L64.094 108H63.1195L67.3421 112.216C67.6205 112.494 68.0382 112.494 68.3166 112.216L72.5392 108H71.5648L75.7874 112.216C76.0658 112.494 76.4834 112.494 76.7618 112.216L80.9845 108C81.6341 107.351 80.6132 106.378 80.01 107.027Z" fill="#FF765C"></path><path d="M35.417 119.954H77.6433C79.5922 119.954 81.5411 120.046 83.49 119.954C85.4389 119.861 83.5364 119.954 83.5828 119.954C84.4645 119.954 84.4645 118.564 83.5828 118.564H41.3565C39.4076 118.564 37.4587 118.471 35.5098 118.564C33.5609 118.656 35.4634 118.564 35.417 118.564C34.5354 118.564 34.5354 119.954 35.417 119.954Z" fill="#025749"></path><path d="M58.8039 27.4746V63.0113C58.8039 64.6329 58.7111 66.3009 58.8039 67.9225C58.8967 69.5441 58.8039 67.9688 58.8039 68.0152C58.8039 68.8955 60.196 68.8955 60.196 68.0152V32.4322C60.196 30.8105 60.2888 29.1426 60.196 27.521C60.1032 25.8993 60.196 27.4746 60.196 27.4283C60.196 26.548 58.8039 26.548 58.8039 27.4283V27.4746Z" fill="#7CBF99"></path><path d="M59.5001 41.4206C63.1648 41.4206 66.1356 32.2935 66.1356 21.0345C66.1356 9.77561 63.1648 0.648438 59.5001 0.648438C55.8353 0.648438 52.8645 9.77561 52.8645 21.0345C52.8645 32.2935 55.8353 41.4206 59.5001 41.4206Z" fill="#7CBF99"></path><path d="M65.4395 21.0347C65.4395 24.8803 65.1147 28.7259 64.2795 32.4788C63.7226 34.888 63.0266 37.668 61.4025 39.5676C60.9385 40.1236 60.3352 40.6332 59.6856 40.7259C59.036 40.8185 59.1752 40.7259 58.8504 40.5869C58.5255 40.4479 58.2935 40.2625 58.0615 40.0309C56.3446 38.4093 55.5558 35.7683 54.999 33.5907C54.0709 29.9768 53.6533 26.2703 53.5605 22.5637C53.4677 18.6718 53.6997 14.7336 54.4421 10.888C54.9526 8.20077 55.6486 5.32819 57.2263 3.01158C57.6439 2.40927 58.2471 1.71429 58.8504 1.48263C59.4536 1.25097 59.964 1.34363 60.5673 1.71429C61.1705 2.08494 61.8201 3.01158 62.2842 3.7529C62.9338 4.9112 63.3978 6.16216 63.769 7.41313C64.7899 10.8417 65.2539 14.4093 65.4395 17.9305C65.6251 21.4517 65.5323 20.0154 65.5323 21.0347C65.5323 22.0541 66.9244 21.9151 66.9244 21.0347C66.9244 16.9575 66.5532 12.7876 65.6251 8.80309C65.0219 6.2085 64.1403 3.24324 62.2378 1.25097C60.3352 -0.741312 58.9432 -0.509651 57.3655 0.787646C55.7878 2.08494 54.4885 5.23552 53.7925 7.59846C52.7252 11.3977 52.3076 15.4286 52.2148 19.3668C52.122 23.583 52.4004 27.7992 53.2357 31.9228C53.7925 34.7027 54.5813 37.7606 56.3446 40.0772C58.1079 42.3938 59.3144 42.6718 61.1241 41.6062C62.9338 40.5405 64.2331 37.7143 64.9291 35.583C66.0892 31.9691 66.5996 28.0772 66.8316 24.3243C66.878 23.2124 66.9244 22.1004 66.9244 20.9884C66.9244 19.8764 65.5323 20.1081 65.5323 20.9884L65.4395 21.0347Z" fill="#7CBF99"></path><path d="M69.6864 38.6743C72.8601 36.8447 70.8624 27.4572 65.2244 17.7066C59.5864 7.95612 52.443 1.53493 49.2693 3.3645C46.0955 5.19408 48.0932 14.5816 53.7313 24.3321C59.3693 34.0826 66.5126 40.5038 69.6864 38.6743Z" fill="#7CBF99"></path><path d="M64.6508 18.0693C66.6461 21.4978 68.363 25.1117 69.4767 28.911C70.1727 31.2739 70.9616 34.1002 70.3583 36.5558C69.7551 39.0114 69.8479 37.8994 69.2447 38.1774C68.6415 38.4554 68.7343 38.3164 68.4558 38.3164C68.0846 38.3164 67.7598 38.27 67.3422 38.1311C65.1149 37.4361 63.166 35.5828 61.5883 33.9148C59.0825 31.3202 56.948 28.355 55.0455 25.2971C53.143 22.2392 51.1477 18.2083 49.8484 14.409C48.9668 11.8608 48.1315 8.89553 48.4564 6.16194C48.5492 5.42062 48.7812 4.58665 49.338 4.12333C49.8948 3.66001 50.3589 3.70634 50.9621 3.799C53.0966 4.16966 54.9991 5.93028 56.5304 7.36657C59.0361 9.77584 61.1706 12.6021 63.0731 15.521C64.9757 18.4399 64.1404 17.189 64.6044 18.0693C65.0685 18.8569 66.2749 18.1619 65.8109 17.3743C63.8156 13.9457 61.5419 10.6561 58.8041 7.73723C56.0664 4.81831 54.8135 3.70634 52.2614 2.73337C50.4981 2.08472 48.5492 2.36271 47.6211 4.16966C46.4611 6.48626 47.0643 9.49784 47.6211 11.9071C48.5956 15.8453 50.2661 19.6909 52.215 23.2585C54.1639 26.8724 56.484 30.3473 59.1753 33.4515C61.0314 35.5828 63.2124 37.8531 65.8109 39.0577C67.4814 39.8453 69.6159 40.1697 70.8688 38.5017C72.2608 36.6021 71.8432 33.6368 71.4256 31.5056C70.6832 27.6137 69.1055 23.9071 67.3422 20.3859C66.8318 19.3666 66.2749 18.3936 65.7181 17.4206C65.1613 16.4476 64.0476 17.328 64.5116 18.1156L64.6508 18.0693Z" fill="#7CBF99"></path><path d="M77.1668 31.2503C78.9992 28.0814 72.5682 20.9489 62.8029 15.3194C53.0375 9.68996 43.6357 7.69529 41.8034 10.8642C39.971 14.0331 46.402 21.1656 56.1673 26.7951C65.9327 32.4246 75.3345 34.4192 77.1668 31.2503Z" fill="#7CBF99"></path><path d="M62.4698 15.8922C65.6716 17.7455 68.7806 19.8768 71.5183 22.3787C73.3744 24.0467 75.3697 25.9926 76.3906 28.3555C77.4115 30.7185 76.7154 29.1432 76.7618 29.5602C76.8082 29.9772 76.7618 30.2088 76.7618 30.3941C76.7154 30.7185 76.5762 30.9038 76.437 31.0891C76.2978 31.2745 75.9266 31.5061 75.6018 31.6914C74.7201 32.0621 73.6529 32.1084 72.6784 32.0621C71.2863 32.0158 69.8942 31.7378 68.5486 31.3671C64.8364 30.3941 61.2634 28.8189 57.9224 27.0119C54.535 25.1586 51.2868 23.0737 48.3635 20.5717C46.3218 18.8111 44.2337 16.8652 42.9344 14.4559C42.5168 13.7146 42.192 12.8806 42.192 12.1393C42.192 11.5833 42.424 11.0273 42.9344 10.703C43.4448 10.3787 44.5585 10.1007 45.3937 10.1007C46.693 10.1007 48.0387 10.2397 49.2915 10.5177C52.9109 11.3053 56.3911 12.7416 59.6393 14.4096C60.5673 14.8729 61.4954 15.3826 62.4234 15.9385C63.3515 16.4945 63.9083 15.1972 63.1195 14.7339C59.4537 12.649 55.5559 10.7957 51.5189 9.63738C47.4818 8.47908 48.3635 8.84974 46.7394 8.71074C45.1153 8.57175 44.3265 8.61808 43.2128 8.98874C41.2639 9.59105 40.3823 11.3053 40.8927 13.2513C41.4959 15.7069 43.4448 17.8845 45.2081 19.5988C47.9459 22.3324 51.1012 24.6026 54.3958 26.5949C58.0616 28.8189 62.0058 30.7648 66.0892 32.1084C70.1727 33.4521 72.0288 33.869 74.9521 33.3131C77.8755 32.7571 78.3395 31.6451 78.1075 29.6065C77.8755 27.2436 76.1122 25.1123 74.5345 23.398C71.9824 20.6644 68.9662 18.3478 65.8108 16.3092C64.9292 15.7532 64.0011 15.1972 63.1195 14.6412C62.2378 14.0853 61.6346 15.3826 62.4234 15.8459L62.4698 15.8922Z" fill="#7CBF99"></path><path d="M59.4999 27.6601C70.7759 27.6601 79.917 24.6938 79.917 21.0347C79.917 17.3755 70.7759 14.4092 59.4999 14.4092C48.2238 14.4092 39.0828 17.3755 39.0828 21.0347C39.0828 24.6938 48.2238 27.6601 59.4999 27.6601Z" fill="#7CBF99"></path><path d="M59.4999 15.1041C63.3513 15.1041 67.2027 15.4284 70.9613 16.2624C74.7199 17.0963 76.1584 17.5133 78.0609 19.1349C79.9634 20.7566 79.1282 20.2006 79.221 20.8492C79.3138 21.4979 79.221 21.3589 79.0818 21.6832C78.9426 22.0075 78.7569 22.2392 78.5249 22.4709C76.9008 24.1851 74.2559 24.9728 72.075 25.5288C68.4556 26.4554 64.7434 26.8724 61.0312 26.9651C57.319 27.0577 53.1892 26.8261 49.3378 26.0848C45.4864 25.3434 43.7695 24.8801 41.4493 23.3048C40.8461 22.8878 40.1501 22.2855 39.9181 21.6832C39.686 21.0809 39.7788 20.5712 40.1501 19.9689C40.6141 19.2276 41.4493 18.718 42.1918 18.2546C43.3518 17.606 44.6047 17.1427 45.8576 16.772C49.2914 15.7527 52.8643 15.2894 56.3909 15.1041C57.4118 15.0577 58.4791 15.0114 59.4999 15.0114C60.5208 15.0114 60.3816 13.6214 59.4999 13.6214C55.4165 13.6214 51.2403 13.9921 47.2496 14.9187C44.6511 15.521 41.6813 16.4014 39.686 18.301C38.2476 19.6446 37.9227 21.5905 39.222 23.1658C40.8461 25.1118 43.6767 26.0384 46.0432 26.7334C49.8482 27.799 53.8852 28.216 57.8294 28.3087C61.7736 28.4014 66.2747 28.1234 70.4045 27.2894C73.1886 26.7334 76.2512 25.9458 78.5713 24.1851C80.1026 23.0268 81.1699 21.2199 80.1026 19.4129C78.9426 17.328 76.2048 16.3087 74.0703 15.6137C70.4509 14.4554 66.5531 13.9458 62.7945 13.7141C59.0359 13.4824 60.5672 13.6214 59.4535 13.6214C58.3398 13.6214 58.5719 15.0114 59.4535 15.0114L59.4999 15.1041Z" fill="#7CBF99"></path><path d="M62.7953 26.7577C72.5607 21.1283 78.9916 13.9958 77.1593 10.8268C75.3269 7.65792 65.9251 9.65258 56.1598 15.282C46.3944 20.9115 39.9634 28.044 41.7958 31.2129C43.6282 34.3819 53.03 32.3872 62.7953 26.7577Z" fill="#7CBF99"></path><path d="M56.5301 15.8922C59.9639 13.8999 63.5833 12.1856 67.3883 11.0736C69.7548 10.3786 72.5854 9.591 75.0447 10.1933C77.504 10.7956 76.3904 10.703 76.6688 11.3053C76.9472 11.9076 76.808 11.8149 76.808 12.0929C76.808 12.4636 76.7616 12.7879 76.6224 13.2049C75.9263 15.4288 74.0702 17.3748 72.3997 18.9501C69.8012 21.452 66.8314 23.5833 63.7689 25.4829C60.3351 27.5678 56.6693 29.3748 52.8643 30.6721C49.0593 31.9694 47.3424 32.3864 44.6046 32.062C43.8622 31.9694 43.027 31.7377 42.5629 31.1817C42.0989 30.6258 42.1453 30.1624 42.2381 29.5601C42.6093 27.4288 44.3726 25.5292 45.8111 24.0003C48.224 21.4983 51.0546 19.3671 53.978 17.4674C54.8132 16.9115 55.6484 16.4018 56.5301 15.9385C57.4117 15.4752 56.6229 14.2705 55.8341 14.7339C52.4003 16.7261 49.1057 18.9964 46.1823 21.73C44.187 23.5833 42.1453 25.7146 41.1709 28.2628C40.5212 30.0234 40.7996 31.9694 42.6093 32.896C44.419 33.8227 47.9456 33.452 50.3586 32.896C54.3028 31.923 58.1542 30.2551 61.7272 28.3091C65.3466 26.3632 68.8267 24.0466 71.9357 21.3593C74.0702 19.5061 76.344 17.3285 77.5504 14.7339C78.3393 13.0659 78.6641 10.9346 76.9936 9.68366C75.0911 8.2937 72.1213 8.71069 69.9868 9.12768C66.089 9.86899 62.3768 11.4443 58.8502 13.2049C55.3236 14.9655 56.8549 14.2705 55.8805 14.8265C54.906 15.3825 55.7876 16.4945 56.5765 16.0312L56.5301 15.8922Z" fill="#7CBF99"></path><path d="M65.2315 24.37C70.8695 14.6195 72.8672 5.23197 69.6934 3.4024C66.5197 1.57282 59.3764 7.99401 53.7383 17.7445C48.1003 27.4951 46.1026 36.8826 49.2763 38.7122C52.4501 40.5417 59.5934 34.1205 65.2315 24.37Z" fill="#7CBF99"></path><path d="M54.3492 18.0694C56.2053 14.8725 58.3398 11.7683 60.8455 9.03469C63.3513 6.3011 64.4649 5.18913 66.8314 4.16982C67.2027 3.98449 67.6203 3.8455 68.0379 3.79917C68.4555 3.75283 68.6875 3.79917 68.8732 3.79917C69.198 3.8455 69.3836 3.98449 69.5692 4.12349C69.7548 4.26249 69.9868 4.63314 70.1724 4.95747C70.5436 5.83778 70.59 6.90341 70.5436 7.87639C70.4972 9.26635 70.2188 10.6563 69.8476 11.9999C68.8732 15.7065 67.2955 19.2741 65.4858 22.61C63.6297 25.9922 61.5416 29.2355 59.0358 32.1544C57.2725 34.193 55.3236 36.2779 52.9107 37.5752C52.1683 37.9922 51.333 38.3165 50.5906 38.3165C49.8481 38.3165 49.4769 38.0849 49.1521 37.5752C48.8273 37.0656 48.5489 35.9536 48.5489 35.1196C48.5489 33.8223 48.6881 32.4787 48.9665 31.2277C49.7553 27.6138 51.1938 24.1389 52.8643 20.8957C53.3283 19.969 53.8387 19.0424 54.3956 18.1158C54.8596 17.3281 53.6531 16.6331 53.1891 17.4208C51.101 21.081 49.2449 24.9729 48.0848 29.0038C47.6208 30.5791 47.296 32.1544 47.1568 33.776C47.064 34.9343 47.064 36.1853 47.4352 37.2972C48.0384 39.2432 49.7553 40.1235 51.7042 39.6138C54.1636 39.0115 56.3445 37.0656 58.0614 35.305C60.7991 32.5714 63.0728 29.4208 65.0681 26.1312C67.2955 22.471 69.2444 18.5328 70.59 14.4555C71.4717 11.6756 72.3533 8.52503 71.7965 5.60612C71.4717 3.7065 70.126 2.22388 68.0843 2.45554C66.0426 2.6872 63.5833 4.44781 61.8664 6.0231C59.1286 8.57137 56.8085 11.5829 54.7668 14.7335C54.21 15.6138 53.6531 16.5405 53.0963 17.4208C52.6323 18.2084 53.8387 18.9034 54.3028 18.1158L54.3492 18.0694Z" fill="#7CBF99"></path><path d="M59.4999 34.4249C66.9062 34.4249 72.9102 28.4301 72.9102 21.035C72.9102 13.6399 66.9062 7.64502 59.4999 7.64502C52.0936 7.64502 46.0896 13.6399 46.0896 21.035C46.0896 28.4301 52.0936 34.4249 59.4999 34.4249Z" fill="#FFD483"></path><path d="M72.2143 21.0347C72.2143 26.2702 68.8734 31.1351 63.9083 32.942C58.9432 34.749 53.1429 33.22 49.7091 29.0965C46.2753 25.0192 45.9041 18.9961 48.6419 14.4555C51.3796 9.91499 56.8551 7.50572 62.0522 8.57136C67.2029 9.637 71.2399 13.8532 72.0751 19.0424C72.1679 19.691 72.2143 20.3397 72.2143 21.0347C72.2143 21.915 73.6064 21.915 73.6064 21.0347C73.6064 15.1505 69.8478 9.86866 64.3259 7.83005C58.804 5.79144 52.4005 7.55205 48.6419 12.0463C44.8833 16.6331 44.3264 23.2123 47.389 28.3088C50.4516 33.359 56.4839 35.9999 62.2842 34.8416C68.0845 33.6833 72.4927 29.0038 73.3744 23.3049C73.5136 22.5636 73.56 21.8223 73.56 21.0347C73.56 20.247 72.1679 20.1544 72.1679 21.0347H72.2143Z" fill="#FFD483"></path><path d="M72.2142 21.0347C72.2142 26.2703 68.8732 31.1351 63.9082 32.9421C58.9431 34.749 53.1892 33.2201 49.7554 29.1892C47.8529 26.9189 46.832 24 46.7856 21.0347C46.7856 20.1544 45.3936 20.1544 45.3936 21.0347C45.3936 26.9189 49.1522 32.2008 54.6741 34.2394C60.196 36.278 66.5995 34.5174 70.3581 30.0232C72.4462 27.4749 73.6063 24.3243 73.6063 21.0347C73.6063 20.1544 72.2142 20.1544 72.2142 21.0347Z" fill="#025749"></path><path d="M55.4167 18.3012C55.4631 15.0116 59.3145 12.973 62.0059 15.0579C63.2587 16.0309 63.862 17.6525 63.4908 19.2278C63.3052 20.0154 62.9339 20.7104 62.3307 21.2664C61.7275 21.8224 61.0778 22.0541 60.3354 22.332C59.5929 22.61 58.8969 23.5367 58.8041 24.5097C58.7113 25.4826 58.8041 25.4363 58.8041 25.8996C58.8041 26.7799 60.1962 26.7799 60.1962 25.8996C60.1962 25.0193 60.1498 24.9266 60.1962 24.4633C60.3354 23.5367 61.5883 23.444 62.2379 23.0734C63.862 22.1004 64.9292 20.3398 64.9756 18.4865C65.0684 14.4556 60.753 11.722 57.1336 13.4363C53.5142 15.1506 54.0711 16.3089 54.0246 18.3475C53.9782 20.3861 55.4167 19.2278 55.4167 18.3475V18.3012Z" fill="#025749"></path><path d="M59.5001 29.2821C60.3818 29.2821 60.3818 27.8921 59.5001 27.8921C58.6185 27.8921 58.6185 29.2821 59.5001 29.2821Z" fill="#025749"></path><path d="M35.6028 76.4944C39.2163 76.4944 42.1456 73.5695 42.1456 69.9615C42.1456 66.3536 39.2163 63.4287 35.6028 63.4287C31.9893 63.4287 29.0601 66.3536 29.0601 69.9615C29.0601 73.5695 31.9893 76.4944 35.6028 76.4944Z" fill="#ACD3E1"></path><path d="M35.6027 70.6099C33.329 70.6099 31.3336 71.7682 30.1736 73.5288C31.3336 75.2894 33.329 76.4477 35.6027 76.4477C37.8764 76.4477 39.8717 75.2894 41.0318 73.5288C39.8717 71.7682 37.8764 70.6099 35.6027 70.6099Z" fill="white"></path><path d="M35.6027 69.4518C36.7047 69.4518 37.598 68.5599 37.598 67.4596C37.598 66.3593 36.7047 65.4673 35.6027 65.4673C34.5008 65.4673 33.6074 66.3593 33.6074 67.4596C33.6074 68.5599 34.5008 69.4518 35.6027 69.4518Z" fill="white"></path><path d="M41.4494 69.9612C41.4494 72.3705 39.9181 74.6407 37.598 75.4284C35.2779 76.216 32.6329 75.521 31.0553 73.6214C29.524 71.7218 29.3384 69.0345 30.5912 66.9496C31.8441 64.911 34.3034 63.7527 36.67 64.216C39.0365 64.6793 41.3566 67.1349 41.403 69.9612C41.403 70.8415 42.7951 70.8415 42.7951 69.9612C42.7951 66.9496 40.8926 64.2623 38.062 63.1967C35.2315 62.1311 31.8905 63.0114 29.988 65.3743C28.0855 67.6909 27.8071 71.0732 29.3384 73.6677C30.916 76.2623 33.9322 77.606 36.902 77.05C39.8717 76.494 42.7023 73.3434 42.7487 69.9612C42.7487 69.0809 41.3566 69.0809 41.3566 69.9612H41.4494Z" fill="#C1E2EC"></path><path d="M35.6028 54.4865C39.2163 54.4865 42.1456 51.5617 42.1456 47.9537C42.1456 44.3457 39.2163 41.4209 35.6028 41.4209C31.9893 41.4209 29.0601 44.3457 29.0601 47.9537C29.0601 51.5617 31.9893 54.4865 35.6028 54.4865Z" fill="#FFD1C3"></path><path d="M41.4494 47.9534C41.4494 50.3626 39.9181 52.6329 37.598 53.4206C35.2779 54.2545 32.6329 53.5132 31.0553 51.6136C29.524 49.714 29.3384 47.0267 30.5912 44.9418C31.8441 42.9032 34.3034 41.7449 36.67 42.2082C39.0365 42.6715 41.3566 45.1271 41.403 47.9534C41.4494 50.7796 42.7951 48.8337 42.7951 47.9534C42.7951 44.9418 40.8926 42.2545 38.062 41.1889C35.2315 40.1233 31.8905 41.0036 29.988 43.3665C28.0855 45.6831 27.8071 49.0653 29.3384 51.6599C30.8696 54.2545 33.9322 55.5982 36.902 55.0422C39.8717 54.4862 42.7023 51.3356 42.7487 47.9534C42.7487 47.0731 41.3566 47.0731 41.3566 47.9534H41.4494Z" fill="#FFD1C3"></path><path d="M35.6027 48.6021C33.329 48.6021 31.3336 49.7603 30.1736 51.521C31.3336 53.2816 33.329 54.4399 35.6027 54.4399C37.8764 54.4399 39.8717 53.2816 41.0318 51.521C39.8717 49.7603 37.8764 48.6021 35.6027 48.6021Z" fill="white"></path><path d="M35.6027 47.444C36.7047 47.444 37.598 46.5521 37.598 45.4517C37.598 44.3514 36.7047 43.4595 35.6027 43.4595C34.5008 43.4595 33.6074 44.3514 33.6074 45.4517C33.6074 46.5521 34.5008 47.444 35.6027 47.444Z" fill="white"></path><path d="M41.4494 47.9534C41.4494 50.3626 39.9181 52.6329 37.598 53.4206C35.2779 54.2545 32.6329 53.5132 31.0553 51.6136C29.524 49.714 29.3384 47.0267 30.5912 44.9418C31.8441 42.9032 34.3034 41.7449 36.67 42.2082C39.0365 42.6715 41.3566 45.1271 41.403 47.9534C41.4494 50.7796 42.7951 48.8337 42.7951 47.9534C42.7951 44.9418 40.8926 42.2545 38.062 41.1889C35.2315 40.1233 31.8905 41.0036 29.988 43.3665C28.0855 45.6831 27.8071 49.0653 29.3384 51.6599C30.8696 54.2545 33.9322 55.5982 36.902 55.0422C39.8717 54.4862 42.7023 51.3356 42.7487 47.9534C42.7487 47.0731 41.3566 47.0731 41.3566 47.9534H41.4494Z" fill="#FFD1C3"></path><path d="M83.3972 76.4944C87.0107 76.4944 89.94 73.5695 89.94 69.9615C89.94 66.3536 87.0107 63.4287 83.3972 63.4287C79.7838 63.4287 76.8545 66.3536 76.8545 69.9615C76.8545 73.5695 79.7838 76.4944 83.3972 76.4944Z" fill="#7CBF99"></path><path d="M89.1975 69.9612C89.1975 72.3705 87.6662 74.6407 85.3461 75.4284C83.0259 76.216 80.381 75.521 78.8033 73.6214C77.272 71.7218 77.0864 69.0345 78.3393 66.9496C79.5921 64.911 82.0515 63.7527 84.418 64.216C87.1558 64.772 89.1047 67.1349 89.1511 69.9612C89.1975 72.7874 90.5431 70.8415 90.5431 69.9612C90.5431 66.9496 88.6406 64.2623 85.8101 63.1967C82.9795 62.1311 79.6385 63.0114 77.736 65.3743C75.8335 67.6909 75.5551 71.0732 77.0864 73.6677C78.6641 76.2623 81.6803 77.606 84.65 77.05C87.6198 76.494 90.4503 73.3434 90.4967 69.9612C90.4967 69.0809 89.1047 69.0809 89.1047 69.9612H89.1975Z" fill="#7CBF99"></path><path d="M83.3974 70.6099C81.1236 70.6099 79.1283 71.7682 77.9683 73.5288C79.1283 75.2894 81.1236 76.4477 83.3974 76.4477C85.6711 76.4477 87.6664 75.2894 88.8265 73.5288C87.6664 71.7682 85.6711 70.6099 83.3974 70.6099Z" fill="white"></path><path d="M83.3972 69.4518C84.4991 69.4518 85.3925 68.5599 85.3925 67.4596C85.3925 66.3593 84.4991 65.4673 83.3972 65.4673C82.2952 65.4673 81.4019 66.3593 81.4019 67.4596C81.4019 68.5599 82.2952 69.4518 83.3972 69.4518Z" fill="white"></path><path d="M89.1975 69.9612C89.1975 72.3705 87.6662 74.6407 85.3461 75.4284C83.0259 76.216 80.381 75.521 78.8033 73.6214C77.272 71.7218 77.0864 69.0345 78.3393 66.9496C79.5921 64.911 82.0515 63.7527 84.418 64.216C87.1558 64.772 89.1047 67.1349 89.1511 69.9612C89.1975 72.7874 90.5431 70.8415 90.5431 69.9612C90.5431 66.9496 88.6406 64.2623 85.8101 63.1967C82.9795 62.1311 79.6385 63.0114 77.736 65.3743C75.8335 67.6909 75.5551 71.0732 77.0864 73.6677C78.6641 76.2623 81.6803 77.606 84.65 77.05C87.6198 76.494 90.4503 73.3434 90.4967 69.9612C90.4967 69.0809 89.1047 69.0809 89.1047 69.9612H89.1975Z" fill="#A3D2A9"></path><path d="M83.3972 54.4865C87.0107 54.4865 89.94 51.5617 89.94 47.9537C89.94 44.3457 87.0107 41.4209 83.3972 41.4209C79.7838 41.4209 76.8545 44.3457 76.8545 47.9537C76.8545 51.5617 79.7838 54.4865 83.3972 54.4865Z" fill="#FFC17F"></path><path d="M89.1975 47.9534C89.1975 50.3626 87.6662 52.6329 85.3461 53.4206C83.0259 54.2082 80.381 53.5132 78.8033 51.6136C77.272 49.714 77.0864 47.0267 78.3393 44.9418C79.5921 42.9032 82.0515 41.7449 84.418 42.2082C86.7845 42.6715 89.1047 45.1271 89.1511 47.9534C89.1975 50.7796 90.5431 48.8337 90.5431 47.9534C90.5431 44.9418 88.6406 42.2545 85.8101 41.1889C82.9795 40.1233 79.6385 41.0036 77.736 43.3665C75.8335 45.6831 75.5551 49.0653 77.0864 51.6599C78.6641 54.2545 81.6803 55.5982 84.65 55.0422C87.6198 54.4862 90.4503 51.3356 90.4967 47.9534C90.4967 47.0731 89.1047 47.0731 89.1047 47.9534H89.1975Z" fill="#FFC17F"></path><path d="M83.3974 48.6021C81.1236 48.6021 79.1283 49.7603 77.9683 51.521C79.1283 53.2816 81.1236 54.4399 83.3974 54.4399C85.6711 54.4399 87.6664 53.2816 88.8265 51.521C87.6664 49.7603 85.6711 48.6021 83.3974 48.6021Z" fill="white"></path><path d="M83.3972 47.444C84.4991 47.444 85.3925 46.5521 85.3925 45.4517C85.3925 44.3514 84.4991 43.4595 83.3972 43.4595C82.2952 43.4595 81.4019 44.3514 81.4019 45.4517C81.4019 46.5521 82.2952 47.444 83.3972 47.444Z" fill="white"></path><path d="M89.1975 47.9534C89.1975 50.3626 87.6662 52.6329 85.3461 53.4206C83.0259 54.2082 80.381 53.5132 78.8033 51.6136C77.272 49.714 77.0864 47.0267 78.3393 44.9418C79.5921 42.9032 82.0515 41.7449 84.418 42.2082C86.7845 42.6715 89.1047 45.1271 89.1511 47.9534C89.1975 50.7796 90.5431 48.8337 90.5431 47.9534C90.5431 44.9418 88.6406 42.2545 85.8101 41.1889C82.9795 40.1233 79.6385 41.0036 77.736 43.3665C75.8335 45.6831 75.5551 49.0653 77.0864 51.6599C78.6641 54.2545 81.6803 55.5982 84.65 55.0422C87.6198 54.4862 90.4503 51.3356 90.4967 47.9534C90.4967 47.0731 89.1047 47.0731 89.1047 47.9534H89.1975Z" fill="#FFD483"></path></g><defs><clipPath id="clip0_1070_41206"><rect width="89" height="120" fill="white" transform="translate(15)"></rect></clipPath></defs></svg> 